<svg width="140" height="38" viewBox="0 0 140 38" fill="none" xmlns="http://www.w3.org/2000/svg">
<g clip-path="url(#clip0_22_4)">
<path d="M0 0L0.483641 0.139099L0.945912 0.496702L1.46782 0.276963L1.87649 0.131716L2.39391 0.475228L2.90893 0.651851L3.48032 1.32454L4.0359 2.37957L4.37442 2.39706L4.77913 3.03171L5.33775 2.43424L5.82165 2.64776L6.24492 2.59368L6.79633 1.90466L7.19402 1.64948L7.73779 1.44316L8.28244 1.74815L8.75974 1.62208L9.20326 1.10403L9.6588 1.21083L10.2135 1.01312L10.7339 1.81914L11.1538 1.35767L11.689 1.39676L12.226 1.24678L12.649 0.919309L13.1484 1.34602L13.5787 1.85738L14.1057 2.54165L14.5891 2.49479L15.1524 2.86986L15.5944 2.88598L15.9712 2.72941L16.5537 2.65585L17.1225 2.0769L17.4321 2.12701L18.0539 1.85081L18.5189 1.70728L18.895 1.53771L19.478 1.4316L19.8907 1.26407L20.4394 1.50867L20.9576 1.61769L21.3866 1.41889L21.9036 2.50291L22.2947 3.22045L22.83 3.41129L23.3694 3.48304L23.9102 3.29698L24.3089 3.70166L24.8288 5.52223L25.2574 5.15267L25.7883 6.24379L26.2149 6.80674L26.7665 6.84452L27.2749 7.46929L27.6927 7.79854L28.2149 7.57407L28.706 7.56332L29.2422 7.86718L29.8213 8.00541L30.1144 9.11166L30.6983 8.6713L31.179 8.65165L31.6056 8.56024L32.0878 8.34812L32.6693 8.20539L33.0558 8.53966L33.6709 8.32032L34.0157 8.60091L34.511 9.07744L35.0316 9.19829L35.5699 9.47938L36.0565 9.81956L36.5893 10.0347L37.0075 9.37413L37.4838 9.57982L38.0503 9.93345L38.4606 10.0103L38.9031 10.1719L39.4474 10.1002L39.9214 11.3408L40.4566 10.4951L40.9085 10.3498L41.4196 10.1601L41.839 11.1941L42.4233 10.7767L42.8452 10.7396L43.3726 11.1084L43.912 10.0525L44.363 9.8492L44.8294 10.0408L45.3029 11.5324L45.7261 11.7009L46.2184 11.0563L46.7834 10.6812L47.2538 11.6053L47.7926 12.1291L48.2199 12.8928L48.735 15.407L49.1388 14.4328L49.7726 13.3775L50.131 12.9499L50.6206 12.6961L51.1934 12.4023L51.7336 12.9412L52.2263 14.2226L52.6667 14.4545L53.2031 15.0988L53.7106 15.3046L54.1945 14.0576L54.6819 13.921L55.1886 14.4011L55.6683 14.8502L56.146 14.4923L56.6387 15.8289L56.9625 14.4457L57.4781 14.4057L57.9952 15.5433L58.4188 15.4743L58.9641 15.6363L59.4865 16.6218L60.0107 16.9167L60.4065 15.4387L60.9419 14.7448L61.3509 14.5762L61.9826 15.2022L62.3107 15.3374L62.9009 16.6486L63.3832 17.3373L63.837 16.6742L64.2933 17.5192L64.8518 17.3001L65.6176 16.2802L65.7392 16.3935L66.2957 16.5943L66.8209 16.0428L67.2385 15.7308L67.7557 15.0207L68.2248 14.8064L68.7133 15.9597L69.2011 15.9032L69.7024 15.5373L70.1785 15.0591L70.7995 14.7993L71.1083 15.0041L71.6278 15.4442L72.1672 15.2489L72.693 14.4679L73.1079 14.9855L73.6578 15.8172L74.1468 15.2823L74.6016 14.9665L75.0435 14.721L75.5757 15.1653L76.0637 15.1741L76.5688 14.934L76.9639 15.413L77.5186 14.5729L78.0506 14.1415L78.5394 14.5758L79.0247 14.5431L79.5369 14.3342L79.9848 14.8159L80.4706 14.5713L80.9603 14.5281L81.4493 14.6591L81.9358 15.2439L82.4389 14.9517L82.8845 15.4367L83.385 15.6136L83.8711 15.9681L84.346 15.6658L84.7488 16.0156L85.2547 15.1359L85.7498 14.7194L86.2166 14.7957L86.7316 14.9059L87.269 14.8345L87.7103 15.1628L88.3107 15.4561L88.7352 14.979L89.2543 15.6696L89.6883 17.6882L90.2282 18.8034L90.7453 17.847L91.1234 18.8039L91.5934 18.5924L92.1772 21.2113L92.6062 20.5176L93.0488 30.0801L93.5786 28.9178L94.148 27.5281L94.637 28.1988L95.0405 31.1639L95.5433 38L96.0831 32.3357L96.5245 32.7939L97.0294 34.4496L97.5442 34.1716L97.981 32.6631L98.4264 33.5286L98.9567 31.9095L99.4656 31.8449L99.9848 31.3845L100.392 31.9145L100.909 31.4794L101.423 32.0042L101.934 31.1796L102.444 30.5709L102.834 29.9426L103.396 31.2134L103.854 30.5346L104.276 30.8801L104.799 30.6501L105.321 31.7033L105.842 32.0131L106.212 32.5053L106.734 32.582L107.249 32.9729L107.779 33.7745L108.274 34.8977L108.695 34.1928L109.145 33.5411L109.778 32.3798L110.133 33.6192L110.657 33.4128L111.282 33.806L111.955 33.5516L112.226 33.8482L112.6 34.1582L113.104 32.7389L113.592 34.106L114.112 34.3468L114.531 35.1647L115.06 34.4633L115.593 36.0739L116.002 34.8477L116.504 34.5843L117.068 33.591L117.466 33.3624L117.982 33.6302L118.599 33.4499L118.912 33.4212L119.417 32.8828L119.932 32.9848L120.463 33.7945L120.94 33.6156L121.43 33.5634L121.853 32.6686L122.313 31.623L122.816 31.594L123.39 31.2062L123.852 30.7844L124.358 30.5731L124.963 29.9583L125.287 29.5465L125.764 29.7955L126.299 30.3937L126.774 30.0398L127.322 29.7387L127.706 29.2754L128.215 29.4023L128.7 29.0704L129.283 28.9769L129.686 29.3348L130.166 29.5832L130.652 29.3429L131.096 28.6448L131.613 28.7328L132.137 28.8503L132.609 28.7701L133.041 28.9301L133.535 29.2291L134.197 29.5508L134.536 29.7989L135.182 30.0538L135.554 30.0641L136.192 29.5117L136.461 29.2558L136.968 28.6543L137.464 28.328L137.974 28.7846L138.48 28.7892L139.029 28.5025L139.443 29.3509L140 29.865" stroke="#FB7273" stroke-width="1.5"/>
</g>
<defs>
<clipPath id="clip0_22_4">
<rect width="140" height="38" fill="white"/>
</clipPath>
</defs>
</svg>
