<svg width="221" height="36" viewBox="0 0 221 36" fill="none" xmlns="http://www.w3.org/2000/svg">
<g clip-path="url(#clip0_19_2)">
<path d="M0 1.47701L0.803055 5.26407L1.52878 4.46153L2.41552 5.60676L3.07468 4.92595L3.76934 6.55892L4.6249 6.94504L5.41267 6.56334L6.29363 5.38753L6.9983 5.18459L7.83054 7.77215L8.6149 12.9313L9.42796 12.8542L9.9936 6.18881L10.7258 9.07305L11.5815 10.3434L12.4674 13.0632L13.1347 12.3948L13.8823 7.92796L14.6829 7.67075L15.4564 6.88415L16.364 9.68977L17.1055 10.6368L17.8358 13.824L18.5186 11.6943L19.2313 10.6337L20.1311 8.4822L20.8295 8.25348L21.6317 8.39227L22.3767 6.62825L23.0598 5.94296L23.8938 6.83208L24.6202 8.36715L25.4396 8.94187L26.2298 7.32474L26.9918 8.76461L27.7652 8.95367L28.4356 9.17887L29.3593 9.28878L30.099 9.09695L30.7891 8.13426L31.6279 5.41269L32.3408 4.46074L33.1308 6.76363L34.0079 6.4338L34.8079 5.78947L35.5241 8.44526L36.1911 8.71994L36.9353 9.10016L37.8446 7.98496L38.7304 7.76971L39.3991 9.22513L40.2009 14.0572L40.9127 14.2457L41.6736 15.3133L42.3622 16.5138L43.1905 8.30292L44.0471 9.98452L44.9386 12.0832L45.4646 10.0643L46.3771 11.4483L47.1091 10.1977L47.8526 10.9426L48.4912 10.6973L49.372 10.7965L50.1093 10.5836L50.8322 12.2542L51.7244 11.883L52.3667 11.5121L53.1521 11.9948L53.8863 11.553L54.6776 11.9988L55.5881 11.7575L56.2412 13.5642L56.9822 12.1681L57.7399 12.0216L58.5328 12.4343L59.4448 13.5833L60.1018 11.3639L60.966 12.0816L61.7092 4.55716L62.501 0L63.2614 6.32441L63.9274 7.61478L64.7342 6.35444L65.4374 6.30753L66.2069 9.19557L66.9994 8.50666L67.7979 8.32325L68.644 7.16407L69.3331 7.90284L70.1335 11.2728L71.3064 11.3302L72.3886 12.2831L73.2417 13.3321L74.0519 11.5659L74.6796 14.2178L75.7147 14.0452L76.3315 11.1094L77.1805 13.5404L77.805 10.6464L78.6593 10.2903L79.3237 7.81491L80.0974 9.36719L80.8894 12.0724L81.5645 12.1348L82.4857 12.1813L83.2995 12.7821L84.0684 12.5537L84.8454 13.1514L85.5625 13.1667L86.2576 11.5969L87.0053 12.1172L87.783 12.3751L88.5972 9.84737L89.3446 11.9766L90.0937 10.5551L91.1201 10.6854L91.6209 10.2054L92.4526 9.82093L93.1445 9.56508L94.0495 12.2528L94.7579 12.6063L95.4946 13.1489L96.2613 13.5822L97.2025 12.5717L97.8239 12.9717L98.5154 13.349L99.3433 12.7029L100.124 9.95263L100.995 10.5139L101.694 9.4916L102.424 9.79818L103.204 10.1218L103.945 10.2085L104.802 8.83952L105.507 7.88915L106.377 10.1843L107.057 11.5782L107.827 11.971L108.58 4.40351L109.502 10.64L110.266 7.6706L111.073 6.21423L111.791 6.58006L112.513 6.07437L113.189 8.28759L113.968 9.36789L114.848 10.2498L115.489 9.91854L116.277 9.77575L117.369 11.1278L117.85 11.3683L118.63 10.0511L119.375 9.91183L120.107 9.8019L120.891 10.5667L121.732 11.3034L122.401 10.1253L123.21 11.645L124.002 12.1507L124.839 12.2276L125.64 11.8429L126.449 13.7387L127.07 13.4172L127.823 13.7229L128.599 13.8385L129.375 11.9416L130.16 11.7235L131.079 11.0399L131.722 9.97903L132.463 10.5708L133.331 9.83041L133.984 9.31162L134.78 9.23428L135.498 9.08427L136.277 9.71383L137.085 9.19842L137.86 8.77163L138.616 10.3634L139.428 10.2022L140.175 9.89055L140.907 8.18835L141.758 6.01458L142.537 3.72967L143.34 4.57229L143.978 4.93441L145.499 4.65093L146.341 5.54782L147.091 7.21376L147.872 6.91876L148.721 6.4114L149.426 6.71091L150.513 5.83321L151.133 6.40552L151.846 6.47319L152.496 5.79326L153.372 6.10422L154.127 5.48718L154.819 6.13202L155.625 6.35112L156.447 6.60269L157.226 8.15686L157.939 11.3819L158.813 12.7618L159.734 14.279L160.221 13.8329L160.936 14.7072L161.821 10.4948L162.458 11.281L163.293 10.7183L164.134 10.0935L164.763 10.946L165.562 8.48871L166.45 10.907L167.091 10.4452L167.908 10.2473L168.596 10.4653L169.51 8.74943L170.155 10.7248L170.934 9.9204L171.682 9.99494L172.73 9.0594L173.345 6.13983L174.039 8.70659L174.822 9.78734L175.555 10.4803L176.321 10.611L177.295 10.7227L177.868 10.8432L178.78 10.7531L179.475 10.6391L180.38 10.1981L181.01 11.498L181.872 6.85257L182.541 9.2238L183.292 9.19234L184.105 7.83468L184.739 7.81513L185.59 8.03746L186.456 7.45424L187.078 5.26561L187.968 7.74852L188.643 9.39417L189.435 10.0077L190.2 10.0566L190.987 9.37866L191.861 11.5002L192.607 12.818L193.389 12.6729L194.042 14.2568L194.814 12.0197L195.717 11.1303L196.385 11.877L197.203 11.8236L197.847 10.8691L198.663 10.1048L199.439 11.1537L200.403 11.2022L200.913 11.2689L201.751 12.4152L202.599 11.5119L203.404 11.9761L204.018 11.3751L204.876 11.7481L205.586 11.6589L206.577 11.5365L207.207 11.9231L207.872 11.9956L208.721 12.5493L209.439 12.2868L210.306 12.9408L210.993 11.3062L211.788 10.6769L212.555 12.9335L213.291 11.0889L214.127 6.81864L214.817 2.24426L215.604 15.8416L216.371 19.7618L217.159 22.6263L217.966 21.6973L218.867 24.4128L219.517 25.9907L220.392 35.6712L221 36" stroke="#FB7273" stroke-width="1.5"/>
</g>
<defs>
<clipPath id="clip0_19_2">
<rect width="221" height="36" fill="white"/>
</clipPath>
</defs>
</svg>
