<svg viewBox="0 0 400 400" xmlns="http://www.w3.org/2000/svg" fill="#000000">
<path d="M255.467 99.2988L37.4 316.466C21.7413 294.465 10.7001 269.522 4.94201 243.139C-0.816094 216.756 -1.17181 189.48 3.89632 162.956C8.96444 136.432 19.3514 111.209 34.431 88.8076C49.5106 66.4063 68.9705 47.2908 91.6374 32.6135C114.304 17.9362 139.709 8.00119 166.319 3.40739C192.929 -1.18642 220.194 -0.343829 246.47 5.88435C272.746 12.1125 297.489 23.5973 319.206 39.6462C340.923 55.6951 359.166 75.9758 372.833 99.2655H255.5L255.467 99.2988Z"></path>
<path d="M277.167 152.732L73.9 355.232C68.4849 350.812 63.3003 346.117 58.3667 341.165L268.867 131.365H387.9C390.467 138.365 392.633 145.499 394.367 152.699L277.167 152.732ZM312.233 238.499H396.3C391.14 264.801 380.748 289.798 365.74 312.005C350.732 334.213 331.416 353.179 308.936 367.776C286.457 382.374 261.273 392.306 234.881 396.982C208.489 401.659 181.426 400.984 155.3 394.999L312.233 238.499Z"></path>
<path d="M400 199.999C400 202.132 400 204.265 399.9 206.399H298.867L120.867 383.732C114.052 380.81 107.408 377.505 100.967 373.832L290.533 184.832H399.433C399.8 189.832 400 194.899 400 199.999Z"></path>
</svg>