<svg width="221" height="36" viewBox="0 0 221 36" fill="none" xmlns="http://www.w3.org/2000/svg">
<g clip-path="url(#clip0_19_8)">
<path d="M0 25.0248L0.613997 25.0555L1.43126 26.8386L2.29121 32.4031L2.94704 31.696L3.65618 28.1605L4.51178 31.696L5.3028 28.0683L6.01868 26.07L6.77949 26.6541L7.67333 22.1964L8.60045 23.2724L9.10668 22.6883L9.85515 23.3032L10.6657 22.1349L11.3797 23.2417L12.1521 20.0137L12.8793 19.7985L13.8259 20.3826L14.4757 20.7515L15.3522 20.9667L16.1393 20.5363L16.7633 21.2434L17.611 21.5201L18.4165 21.889L19.0152 21.2741L19.8566 21.5508L20.7638 20.7208L21.3661 20.936L22.1333 21.1204L22.8882 20.2596L23.6025 21.2434L24.5715 19.614L25.2147 20.1981L25.9708 21.3356L26.8564 23.6413L27.5991 23.4876L28.2788 23.7336L29.1062 21.2434L29.8277 21.4586L30.6082 20.7822L31.3674 22.1042L32.2486 23.2109L32.904 22.3194L33.7589 22.8728L34.5647 23.918L35.2287 23.9795L35.9632 23.1494L36.811 22.3194L37.5615 22.9342L38.2907 22.6883L39.0304 22.965L39.8256 16.3245L40.5603 16.509L41.3657 14.8796L42.2807 16.9086L42.8842 14.8796L43.8839 15.187L44.4414 14.7874L45.2019 15.0026L46.0426 24.7788L46.7195 25.3015L47.6129 24.9633L48.3845 26.8079L49.1866 24.6558L49.9577 24.7481L50.5596 24.7173L51.5178 24.4714L52.1106 24.7173L52.8977 24.3792L53.7502 24.5944H54.5552L55.2755 24.6558L55.9757 24.7173H56.7282L57.4666 24.4714L58.3219 24.8096L59.0611 24.2869L59.8025 24.6558L60.5364 29.4517L61.4847 29.0521L62.1094 25.3322L62.8934 25.6396L63.6234 27.6687L64.4044 31.2656L65.1687 30.9889L66.0649 34.0939L66.7671 34.2169L67.481 34.2477L68.2499 34.3399L69.0127 34.8318L70.7305 34.6781L71.2857 30.8659L72.2116 31.3271L73.1201 31.2041L73.6322 32.1571L74.6068 32.0956L75.2774 32.2801L76.0722 32.649L76.818 33.3254L77.5662 33.0179L78.2598 31.8804L79.0992 25.117L79.7414 28.345L80.5047 25.4552L81.356 28.1298L82.1925 24.3792L82.9866 29.1443L83.8176 29.7592L84.432 29.4517L85.2489 31.6652L85.9689 34.924H86.7913L87.4264 31.7882L88.2663 34.9855L89.0202 33.9402L89.9572 34.2477L90.6508 34.0325L91.4251 34.2784L92.0034 34.2477L92.8399 34.801L93.6856 34.5858L94.5345 34.801L95.2914 31.6652L96.1866 30.8967L96.7523 31.2348L97.4326 31.1119L98.2838 31.3578L99.1001 31.3886L99.7247 31.3578L100.675 34.1862L101.282 34.7703L102.011 35.1085L102.854 34.8933L103.651 34.801L104.301 35.3851L105.185 35.7541L105.894 36L106.569 33.5406L107.478 32.1264L108.218 33.7558L109.067 33.6328L109.96 33.725L110.516 34.2169L111.248 34.0632L112.074 25.5474L112.823 30.1281L113.534 25.6704L114.452 30.3126L115.118 30.4663L116.107 30.62L116.631 25.5167L117.405 30.4048L118.159 30.497L118.925 25.8241L119.766 31.3886L120.395 26.3775L121.236 30.9274L122.015 31.1426L122.86 23.5798L123.547 23.7336L124.405 26.6234L125.264 26.5619L125.967 22.1657H126.667L127.518 19.2143L128.19 19.3988L129.047 19.1221L129.861 19.1836L130.47 19.0914L131.184 19.3373L132.004 19.2758L132.741 19.737L133.562 19.3681L134.284 19.2451L135.219 19.1221L135.907 18.9069L136.63 19.1836L137.55 18.538L138.223 18.3228L138.915 18.661L139.82 17.9231L140.477 18.0154L141.35 17.9539L142.136 17.8309L142.813 17.6465L144.257 17.9846L144.764 17.8617L145.077 17.8002L145.854 17.6772L146.76 17.339L147.466 17.1853L148.278 17.462L149.063 17.1853L149.865 17.462L150.572 17.2468L151.216 17.3698H151.963L152.725 16.7857L153.683 17.1853L154.267 17.1238L155.21 17.2468L155.834 17.3698L156.654 16.2323L158.525 16.9701L158.937 16.386L159.734 10.0837L160.518 9.40734L161.214 8.88471L161.954 9.03843L162.884 8.76174L163.619 8.66951L164.293 8.36208L165.052 8.26985L165.912 8.20837L166.599 8.23911L167.338 8.70026L168.237 8.36208L168.909 7.40905L169.806 0.215201L170.465 0L171.422 0.461144L172.067 0.614859L172.694 0.52263L173.608 4.05807L174.365 4.33476L175.171 4.21178L176.028 0.491887L176.699 8.39283L177.457 8.23911L178.1 7.93168L179.06 8.0854L179.707 7.83945L180.566 7.77797L181.256 7.25534L182.003 6.76345L182.816 4.24253L183.483 11.9898L184.24 2.64389L185.041 2.79761L185.758 2.85909L186.578 5.77968L187.464 10.2374L188.151 13.8958L188.868 5.19556L189.619 7.40905L190.461 10.8523L191.189 11.8053L191.92 11.2519L192.729 11.836L193.486 9.34586L194.255 9.49957L194.973 2.18275L195.883 16.5705L196.604 1.53715L197.466 19.8599L198.208 20.3518L199.006 20.3211L199.723 19.7677L200.488 19.8599L201.183 20.7208L202.097 21.3971L202.645 16.0171L203.458 16.1401L204.323 11.4979L205.206 11.6823L205.892 11.5901L206.586 11.6208L207.32 11.7746L208.077 12.0512L208.85 12.3279L209.674 11.9283L210.491 11.4671L211.305 11.5286L212.055 10.4833L212.857 9.53032L213.587 6.24082L214.232 5.74893L215.138 12.1742L215.78 10.1759L216.617 11.836L217.416 6.30231L218.087 7.28608L219.137 11.836L219.629 12.9428L220.507 7.62425L221 17.9846" stroke="#67C570" stroke-width="1.5"/>
</g>
<defs>
<clipPath id="clip0_19_8">
<rect width="221" height="36" fill="white"/>
</clipPath>
</defs>
</svg>
