<svg width="221" height="36" viewBox="0 0 221 36" fill="none" xmlns="http://www.w3.org/2000/svg">
<g clip-path="url(#clip0_20_10)">
<path d="M0 4.02848L0.755822 3.70346L1.69535 2.21109L2.35989 0L3.15018 3.48372L3.96408 5.36979L4.78056 4.88911L5.47807 0.997965L6.20416 1.71211L7.06121 3.61648L7.85622 4.36267L8.50526 4.23906L9.34081 2.30722L10.0037 1.76246L10.9281 0.334181L11.6472 2.76043L12.464 3.80875L13.1325 6.60122L13.971 6.94914L14.7563 5.34232L15.463 4.55951L16.1538 5.31027L16.9623 4.76551L17.8198 2.49491L18.4844 1.52899L19.261 3.60275L20.154 5.79095L20.8962 5.31485L21.5347 3.26857L22.3322 4.5L23.1614 4.3352L23.8388 3.51577L24.7166 4.0468L25.3945 4.68769L26.2107 2.9939L26.8784 1.62513L27.7056 1.43286L28.4816 3.09461L29.1793 3.78586L30.1151 3.19532L30.8029 5.34232L31.6339 5.35605L32.3131 7.56256L33.1363 6.01984L33.9886 5.95117L34.6325 6.24873L35.4252 12.5341L36.1146 13.4451L36.9227 16.4893L37.7096 18.3204L38.5806 17.7986L39.3632 19.7899L40.2066 23.6216L40.7395 23.443L41.6356 23.7131L42.328 21.2045L43.0619 19.6389L43.9428 18.2792L44.5968 17.556L45.4456 18.2792L46.1309 19.1994L46.9765 18.4944L47.7409 18.8789L48.4606 20.7879L49.3501 20.4903L50.0271 21.0076L50.7303 21.4151L51.5327 22.6373L52.2411 23.3332L53.0913 22.9349L53.9329 23.4522L54.6024 23.8962L55.4223 24.0702L56.0861 24.4181L57.0162 25.0865L57.7901 25.59L58.5008 27.3204L59.1881 27.5448L59.9774 26.7253L60.7729 25.4298L61.5418 24.2304L62.2424 22.7564L63.0848 22.8983L63.8945 21.9781L64.5484 20.7192L65.3736 22.4268L66.5993 23.3561L67.6156 24.4364L68.4459 27.6775L69.3773 28.9593L70.0312 30.0488L70.9293 30.2411L71.442 27.3021L72.3906 28.7304L73.0508 28.7075L73.8806 27.5997L74.5304 26.2035L75.3946 26.3454L76.1261 25.7823L76.9395 27.792L77.592 27.6455L78.3984 27.9385L79.1847 27.8149L80.1483 27.032L80.6728 27.3067L81.4682 28.8449L82.1938 27.7416L82.945 27.5539L83.7671 26.675L84.6195 26.2859L85.3488 27.5905L86.2108 27.2289L86.8834 25.8647L87.644 25.027L88.4737 24.6882L89.242 25.4802L89.9599 25.5809L90.7705 26.7848L91.4443 27.2838L92.3836 27.9934L93.0097 28.1582L93.8097 27.7279L94.5816 26.4049L95.327 24.8805L96.1876 24.4639L96.8577 23.3515L97.7095 22.9761L98.4722 23.6536L99.1743 23.5254L99.9823 22.3444L100.795 22.1292L101.449 23.2416L102.241 25.0315L103.125 25.0132L103.819 22.413L104.531 24.1297L105.277 23.8779L106.342 22.1933L106.85 21.9461L107.557 21.3647L108.341 19.9135L109.108 20.559L109.878 21.9873L110.657 21.9552L111.415 21.4288L112.461 23.3469L112.962 22.793L113.725 21.4196L114.497 19.8357L115.261 19.5931L115.994 20.1287L116.803 20.7513L117.551 19.9959L118.336 20.3988L119.091 22.2116L119.84 23.0631L120.742 21.557L121.552 22.3993L122.156 21.8774L122.939 21.9919L123.727 22.9715L124.62 22.825L125.25 22.4496L126.25 21.1953L126.851 20.1928L127.579 20.1104L128.364 20.1012L129.104 20.1104L129.986 19.6938L130.655 19.8082L131.426 20.5178L132.203 19.529L132.935 19.2772L133.855 20.2157L134.483 20.6689L135.325 21.0488L136.063 19.7716L136.851 18.2701L137.565 17.913L138.323 17.4095L139.103 18.3983L140.59 17.5331L141.516 16.7274L142.151 16.6633L142.917 15.3357L143.696 14.53L144.543 13.9898L145.599 8.2767L146.216 5.56206L146.827 5.57121L147.617 5.84588L148.39 4.90743L149.278 6.13428L149.895 5.11801L150.63 3.30519L151.408 2.54069L152.179 3.54781L153.003 6.88047L153.907 10.8861L154.776 12.502L155.339 10.6617L155.963 11.0234L156.868 10.4466L157.482 12.4654L158.332 13.262L159.106 11.7787L159.818 10.8311L160.601 9.8881L161.488 11.2202L162.25 10.4878L162.885 10.1078L163.762 8.27213L164.477 9.81028L165.221 11.9023L165.96 10.7167L166.867 10.1399L167.753 10.6022L168.348 9.93388L169.071 11.5819L169.847 13.3718L170.6 15.1984L171.466 16.5763L172.3 16.8464L172.912 18.174L173.649 18.4761L174.481 20.234L175.353 18.38L175.954 17.9451L176.782 17.4003L177.526 17.4873L178.306 17.7208L179.061 16.5855L179.797 14.5941L180.561 15.1984L181.365 15.5646L182.136 16.7365L182.879 20.0966L183.629 21.557L184.407 23.5621L185.146 22.619L185.983 21.3739L186.839 24.528L187.594 25.9379L188.375 25.7091L189.149 28.0254L189.798 28.3825L190.597 26.2126L191.402 26.8032L192.122 27.8606L192.902 25.3154L193.647 24.9537L194.393 26.5605L195.263 28.3184L196.077 26.1439L196.857 26.3408L197.494 25.1139L198.275 25.5809L199.009 26.3728L199.837 26.3042L200.584 26.6246L201.479 26.2309L202.201 28.2223L202.841 29.3622L203.621 27.8881L204.508 28.6709L205.19 30.4563L205.945 30.3739L206.695 29.1104L207.479 32.1501L208.242 33.3037L209.07 33.8622L209.84 33.7065L210.566 33.1846L211.315 36L212.223 34.6358L212.86 32.443L213.727 30.6806L214.374 31.6328L215.336 28.3001L215.977 27.499L216.784 30.914L217.607 27.9339L218.342 27.1968L219.03 27.1328L219.853 28.6389L220.68 29.6277L221 29.234" stroke="#FB7273" stroke-width="1.5"/>
</g>
<defs>
<clipPath id="clip0_20_10">
<rect width="221" height="36" fill="white"/>
</clipPath>
</defs>
</svg>
