<svg width="221" height="36" viewBox="0 0 221 36" fill="none" xmlns="http://www.w3.org/2000/svg">
<g clip-path="url(#clip0_16_4)">
<path d="M0 35.5601L0.859603 35.5748L1.53585 35.7639L2.41881 35.6081L3.17029 35.5768L3.88781 35.2496L5.0345 34.7609L5.36286 34.2443L6.26554 34.2152L6.98866 34.3484L7.70182 34.4192L8.51947 34.3418L9.35154 32.9821L10.1073 32.0583L10.883 30.7913L11.6592 32.0467L12.4063 31.9442L13.0429 32.4208L13.888 33.102L14.6479 33.2144L15.3939 33.749L16.1447 33.7993L17.0322 33.0456L17.8517 33.6995L18.5007 33.1073L19.2434 33.1927L20.0005 33.4431L20.796 32.9657L21.552 33.3318L22.5379 33.4739L23.0533 33.2916L23.7833 33.2807L24.6501 33.4035L25.5334 33.8309L26.1259 34.0131L26.9039 34.2647L27.7248 34.4627L28.4937 34.5476L29.2448 34.6876L30.0333 34.6386L30.7751 35.4185L31.6415 34.8103L32.3236 36L33.2698 34.4224L33.8895 34.2046L34.5215 34.4054L35.4297 33.5303L36.035 33.0682L36.9583 33.3423L37.5999 33.1953L38.4168 34.6611L39.1753 34.6239L39.9564 35.1972L40.8056 34.974L41.5576 34.486L42.1704 34.7601L42.9637 34.5728L43.9158 34.7609L44.5796 22.6865L45.4232 10.619L46.0065 11.1131L46.9584 13.0426L47.8049 1.20164L48.4623 0L49.2702 1.08701L50.1602 3.29542L50.8961 6.64222L51.5581 4.59312L52.1887 4.92165L53.0538 3.48077L53.8482 3.63384L54.636 6.80005L55.38 4.86386L56.1827 6.63029L56.9976 7.13458L57.6814 8.08294L58.4886 6.64261L59.3215 6.67248L60.0938 8.54293L60.7502 10.3112L61.5701 8.89321L62.4008 6.84528L63.0574 4.3372L63.8641 3.41434L64.6188 3.31928L65.457 6.35355L66.1217 6.00047L66.7358 6.27323L67.7412 6.40525L68.4033 5.69324L69.1981 4.44754L70.0164 4.03707L70.8276 1.59519L71.5181 3.45831L72.3394 2.36631L73.2211 2.2782L73.8796 2.39899L74.711 4.75914L75.2188 4.08159L76.0412 6.13974L76.9172 5.45564L77.7209 5.0436L78.4867 5.50515L79.3898 6.19237L80.071 6.1328L80.7555 6.06901L81.5823 6.63466L82.2593 6.81284L82.8713 6.32899L83.8305 7.49452L84.6389 7.17481L85.3493 7.45304L86.1779 6.65455L86.8543 6.61634L87.4753 7.55542L88.357 7.04287L89.2484 5.8803L89.9358 6.40509L90.6306 3.85709L91.474 3.97679L92.3911 5.61456L93.2006 5.38047L93.72 5.6516L94.4215 6.53282L95.4152 5.83344L96.257 5.42741L96.7417 4.60155L97.6426 5.38281L98.3426 7.72479L99.1707 7.61749L99.8402 7.41647L100.701 7.9142L101.633 9.24161L102.279 10.0237L102.921 9.07318L103.685 8.21745L104.463 8.86366L106.026 7.60151L106.867 7.67566L107.522 8.70903L108.492 9.08971L109.089 11.2796L110.035 10.1358L110.779 11.5092L111.656 12.4156L112.279 12.7132L112.943 13.5453L113.756 12.4651L114.586 12.8564L115.346 12.4328L115.999 12.5483L116.842 13.2108L117.651 12.1025L118.453 12.8801L119.353 12.9852L119.934 12.726L120.764 13.3612L121.478 15.5641L122.354 15.4033L123.034 16.0466L124.002 16.4103L124.557 16.1511L125.572 14.9754L126.096 14.3957L126.923 12.7912L127.696 11.6399L128.362 13.3176L129.153 10.8898L130.009 8.0215L130.722 7.26176L131.679 7.41545L132.272 7.49413L133.087 6.75693L133.917 7.44836L134.464 8.48554L135.329 9.89047L136.146 4.63757L136.813 7.82507L137.509 10.826L138.466 8.96355L139.115 6.46038L139.962 5.51334L140.583 4.97459L141.434 5.00188L142.231 7.27915L142.865 5.29836L143.725 7.52525L144.448 7.20756L145.366 8.55174L146.034 8.91356L146.751 9.94568L147.632 10.5493L148.392 10.6116L149.033 10.2247L149.802 10.8464L150.751 10.8914L151.711 11.3525L152.222 10.4128L153.02 8.06579L153.79 7.88893L154.528 6.89807L155.171 5.767L155.912 8.26947L156.74 8.65436L157.48 8.29559L158.267 9.13174L159.147 9.18609L160.057 9.35882L160.619 8.53287L161.446 9.40318L162.051 9.41769L162.856 11.4463L163.796 11.1102L164.573 11.85L165.412 10.8298L166.054 10.4272L166.962 10.577L167.582 10.791L168.366 10.5582L169.135 10.6593L169.933 10.2559L170.636 10.7662L171.42 11.0601L172.219 8.03226L172.957 8.21878L173.746 6.94408L174.537 7.62779L175.196 7.28063L176.031 7.10728L176.819 7.45857L177.642 7.9928L178.403 8.20053L179.877 8.21215L180.358 7.81376L180.641 7.89845L181.421 6.96232L182.221 6.52549L183.009 6.65915L183.772 5.40784L184.457 6.00289L185.511 5.64832L186.114 5.89379L186.803 5.53517L187.67 5.30834L188.568 4.612H189.207L189.964 5.15074L190.729 4.71212L191.47 5.42951L192.343 6.97371L193.224 8.39251L194.158 8.80244L194.691 8.57896L195.415 9.17525L196.162 8.70583L196.88 8.64165L197.627 9.48763L198.494 10.2986L199.29 8.96058L199.894 9.03365L200.78 9.48116L201.535 9.59602L202.212 8.67456L203.012 7.46832L203.912 7.91467L204.651 8.76626L205.411 8.9768L206.128 9.13245L207.067 9.23709L207.687 9.36903L208.404 9.57723L209.173 11.1768L210.069 12.5441L210.8 11.8691L211.779 12.1131L212.224 12.4212L213.111 12.403L213.916 12.6623L214.774 13.9772L215.42 13.9998L216.187 14.2504L216.897 14.7829L217.677 14.5228L218.405 14.955L219.119 13.1297L219.891 13.4116L220.658 13.0557L221 13.0242" stroke="#67C570" stroke-width="1.5"/>
</g>
<defs>
<clipPath id="clip0_16_4">
<rect width="221" height="36" fill="white"/>
</clipPath>
</defs>
</svg>
