<svg width="221" height="36" viewBox="0 0 221 36" fill="none" xmlns="http://www.w3.org/2000/svg">
<g clip-path="url(#clip0_15_2)">
<path d="M0 35.0166L0.853129 35.0706L1.64133 35.6147L2.41885 35.622L3.3045 35.6542L3.98501 35.6251L4.67113 35.595L5.6644 35.5784L6.61437 35.6739L7.01917 35.65L7.79663 35.6407L8.65769 35.6355L9.32098 35.6667L10.0667 35.7497L10.972 35.7861L11.7045 35.7528L12.4583 35.7726L13.1421 35.7383L14.0097 35.6812L14.6787 35.7258L15.5332 35.7165L16.3241 35.7352L17.1757 35.7196L17.8164 35.7601L18.6991 35.7497L19.4872 35.7383L20.1137 35.8037L20.9914 35.7508L21.6246 35.7767L22.339 35.7944L23.2175 35.729L24.0979 35.7944L24.8627 35.8058L25.6102 35.7788L26.361 35.7996L27.2997 35.7674L27.9539 35.757L28.6546 35.7487L29.3954 35.8557L30.1566 35.8297L30.9185 35.8318L31.8239 35.7996L32.5414 35.8671L33.284 35.7861L34.0385 35.7944L34.9962 35.7528L35.6648 35.7975L36.3103 35.7944L37.2085 36L37.9558 35.9055L38.6055 35.9128L39.5086 35.9772L40.2216 35.9553L41.0056 35.8858L41.6527 35.8972L42.4759 35.8598L43.1677 35.92L44.0219 35.9595L44.8396 35.9221L45.6793 35.947L46.2515 35.9637L47.0433 35.9086L47.9245 35.9844L48.7121 35.9637L49.4483 35.9616L50.2752 35.9439L51.0498 35.9896L51.7108 35.6667L52.5911 35.6687L53.2215 35.6511L53.9417 35.6895L54.8422 35.6843L55.6545 35.5898L56.4201 35.6241L57.0793 35.6988L57.8671 35.6999L58.6934 35.6957L59.3328 35.6999L60.2307 35.6687L60.9155 35.6947L61.8401 35.7165L62.5592 35.6937L63.1286 35.7933L64.1499 35.7944L64.763 35.7456L65.5299 35.784L66.2091 35.7435L67.0894 35.677L67.887 35.6905L68.6188 35.8141L69.4979 35.8349L70.1925 35.7393L71.0437 35.7113L71.6052 35.6448L72.4814 35.5971L73.2315 35.6012L74.034 35.5348L74.9697 35.594L75.6413 35.6241L76.3934 35.6885L77.2092 35.5909L77.9041 35.6552L78.6378 35.6002L79.5872 35.486L80.2181 35.6334L81.1072 35.6324L81.7677 35.4932L82.5621 35.569L83.3637 35.4756L84.0121 35.5078L84.8851 35.567L85.6936 35.5545L86.3012 35.542L87.1728 35.596L87.9695 35.5015L88.7548 35.4237L89.2794 35.4849L90.1709 35.5659L90.9715 32.9065L91.7878 32.8109L92.5246 32.7715L93.1588 32.8618L93.9639 32.8556L94.9445 32.4558L95.6756 32.3717L96.3949 32.3467L97.1155 32.2979L97.929 32.3343L98.7993 31.5606L99.3587 31.5045L100.155 31.5139L101.109 31.5399L101.725 31.5243L102.528 31.5482L103.17 31.57L104.061 31.5492L104.897 31.516L105.579 31.5388L106.296 31.518L108.062 31.5752L108.678 31.6022L109.505 30.896L110.434 30.8649L110.941 31.0622L111.84 29.7392L112.552 29.681L113.505 28.8139L114.022 28.167L114.895 28.1836L115.674 26.5418L116.362 26.3466L117.153 26.3237L118.021 26.4514L118.737 26.1565L119.53 25.6747L120.238 25.3123L121.164 25.4026L121.873 24.8574L122.633 24.063L123.25 24.172L124.18 24.2385L124.925 23.6653L125.671 23.3018L126.488 23.2935L127.301 19.7171L127.999 18.1843L128.801 18.3505L129.512 16.6713L130.309 16.7554L131.014 16.8873L131.799 14.826L132.516 15.0098L133.531 15.2528L134.032 15.2839L134.847 21.3059L135.655 22.1959L136.512 17.3338L137.279 16.3193L137.863 15.53L138.808 15.5404L139.57 17.3733L140.229 15.4522L141.018 15.4397L141.828 15.556L142.521 14.7606L143.415 14.6847L144.246 14.7377L144.931 14.3057L145.738 10.1561L146.429 10.1519L147.452 9.88502L147.904 9.88814L148.778 10.2859L149.46 11.3316L150.254 11.2942L151.093 11.5185L151.898 11.4894L152.564 11.4988L153.458 12.4926L154.136 10.6317L154.832 9.39799L155.627 8.23181L156.352 11.749L157.184 11.4739L157.945 13.3379L158.816 10.4458L159.496 10.4157L160.368 10.9837L160.979 11.4022L161.895 11.1426L162.629 11.587L163.322 10.6254L164 10.5164L164.939 11.3877L165.702 10.6514L166.398 11.1727L167.291 10.8809L167.942 10.7303L168.738 10.1986L169.497 9.7926L170.365 4.34384L171.023 1.40606L171.872 2.0364L172.63 3.889L173.4 1.48187L174.176 3.84331L174.987 6.45086L175.773 6.10194L176.542 6.41659L177.222 8.0885L177.986 7.6077L178.806 7.6482L179.599 7.63989L180.393 7.67935L182.149 6.21409L182.657 4.82257L183.357 7.6752L184.035 6.94101L184.857 5.46122L185.611 4.17458L186.389 4.31477L187.217 2.7654L188.082 0.775723L188.819 1.30014L189.461 1.34272L190.337 1.17657L191.06 1.12984L191.777 2.16102L192.612 1.49537L193.344 1.52133L194.053 1.50368L194.983 1.36349L196.017 2.9627L196.462 2.92739L197.306 0L197.965 0.560764L198.793 1.92425L199.51 3.36043L200.233 3.24101L201.054 4.02815L201.79 4.24934L202.616 3.80177L203.434 4.43211L204.153 3.77789L205.01 5.61595L205.683 4.00219L206.431 3.83916L207.338 4.20988L207.954 3.94612L208.952 5.4176L209.59 6.30548L210.279 5.11022L211.01 4.12784L211.826 3.95131L212.676 3.90562L213.603 4.17873L214.136 4.17146L214.792 4.43523L215.666 4.37188L216.517 4.36669L217.19 4.36253L218.201 4.40303L218.853 4.38953L219.615 4.48715L220.321 4.01985L220.998 4.37811H221" stroke="#67C570" stroke-width="1.5"/>
</g>
<defs>
<clipPath id="clip0_15_2">
<rect width="221" height="36" fill="white"/>
</clipPath>
</defs>
</svg>
