<svg width="140" height="38" viewBox="0 0 140 38" fill="none" xmlns="http://www.w3.org/2000/svg">
<g clip-path="url(#clip0_22_2)">
<path d="M0 0.0509624L0.568072 0.420853L0.901084 0.312508L1.43816 0L1.91449 0.351845L2.38716 0.319177L2.88917 0.80779L3.3804 0.724997L3.75307 0.68591L4.30548 1.00805L4.83909 1.11004L5.3429 1.86162L5.92898 3.07826L6.26652 2.71959L6.67303 3.34138L7.2391 2.79966L7.74511 3.22332L8.1634 3.09574L8.66623 2.7182L9.11691 2.55508L9.65848 2.31921L10.1619 2.55142L10.5662 2.45503L11.1014 1.74799L11.559 2.23751L12.0915 1.9203L12.5701 2.91192L13.0553 2.42377L13.5696 2.25012L14.1215 2.01186L14.5426 1.65826L15.0408 2.05877L15.5341 2.5579L16.023 2.97925L16.4835 2.96073L17.091 3.5034L17.4802 3.44844L17.9789 3.15822L18.4891 3.21186L19.0238 2.92649L19.4286 2.81043L19.986 2.84685L20.4179 2.93388L20.8996 2.74406L21.3777 2.03907L21.7833 1.84717L22.3016 2.02691L22.836 2.16879L23.2767 1.94805L23.7805 3.13478L24.1681 4.08461L24.724 4.09381L25.2458 4.08158L25.6606 3.71055L26.1846 4.43123L26.6751 5.32834L27.1276 5.31002L27.6575 6.00671L28.1756 6.42843L28.5973 5.99557L29.1406 6.30447L29.559 6.36552L30.0294 6.17325L30.5653 6.34645L31.0832 6.67395L31.5486 6.26316L32.007 6.50066L32.563 5.76143L33.0461 5.53985L33.4863 5.31103L33.9856 5.1641L34.5234 5.00917L34.913 5.29152L35.5462 4.84316L35.926 5.15683L36.376 5.43163L36.8618 5.53378L37.429 5.78409L37.8738 6.24232L38.3071 6.62518L38.8548 5.72994L39.316 5.86964L39.8505 6.40356L40.3057 6.47092L40.7485 6.4263L41.2744 5.87744L41.8325 7.03361L42.3046 5.72704L42.7383 5.77018L43.2922 5.6649L43.6805 6.62045L44.3294 6.36025L44.6346 6.23847L45.2362 6.90772L45.6741 5.45677L46.1162 5.39351L46.6481 5.69325L47.1845 7.62162L47.6868 7.60228L48.0498 6.17629L48.6112 5.98904L49.082 7.12912L49.5084 7.46376L50.0284 8.81949L50.5768 10.0915L51.0881 9.18211L51.5989 8.8164L51.955 8.57144L52.4419 7.87709L53.0175 7.8165L53.5347 7.95685L54.0475 9.24674L54.4862 9.52275L55.0493 10.2088L55.5451 10.5866L56.0123 9.13139L56.4994 9.54748L56.9869 10.5017L57.4834 10.9725L57.9649 10.6428L58.449 12.6895L58.7739 11.2279L59.2466 11.3642L59.7947 11.8461L60.2255 11.3765L60.7696 11.2076L61.2948 11.5097L61.8398 10.7686L62.2279 9.85397L62.7512 9.30835L63.1389 8.97478L63.7766 9.22695L64.1198 9.70986L64.6334 10.7993L65.1013 12.1083L65.6386 11.0621L66.0956 12.3265L66.67 12.0197L67.3906 11.1864L67.5376 11.488L68.0946 11.8353L68.6178 11.1996L69.0346 10.8892L69.5873 10.2748L70.0378 9.92849L70.4568 10.8364L70.9828 10.9199L71.476 10.29L72.015 9.63734L72.6344 9.27771L72.8985 9.37738L73.416 9.45497L73.9519 8.98326L74.5333 7.88875L74.9215 8.72927L75.3251 9.55303L75.8074 9.48899L76.3871 8.2993L76.8248 7.90482L77.2451 8.28032L77.8442 8.13236L78.3514 8.11658L78.7731 8.98858L79.3047 7.83452L79.6963 7.30031L80.2172 8.38571L80.7826 8.05801L81.2875 7.87384L81.7556 8.41782L82.2328 8.42583L82.6364 8.28051L83.1697 8.22884L83.7024 9.19792L84.0954 8.49986L84.661 8.88668L85.0854 8.97552L85.6006 9.34781L86.1091 8.79443L86.6399 9.26277L87.0162 8.93701L87.5186 9.04566L88.0838 9.02299L88.5001 9.08648L89.0283 9.06549L89.529 9.58446L90.0489 9.87663L90.4964 9.22853L91.027 9.6838L91.4292 10.5576L91.9853 13.4467L92.4982 12.654L92.9057 13.7101L93.365 14.6388L93.8797 16.7836L94.3523 15.6253L94.7829 24.1111L95.3108 21.4467L95.8779 21.248L96.3774 22.124L96.7878 27.0177L97.3393 38L97.8261 30.6745L98.2618 30.8812L98.7714 31.6445L99.2758 31.7665L99.7225 29.0899L100.178 30.0759L100.696 27.5413L101.207 27.7355L101.719 27.3122L102.125 28.9435L102.646 28.7376L103.159 29.5554L103.672 28.174L104.169 26.8345L104.567 25.2597L105.129 26.7282L105.581 25.7302L106.003 26.593L106.475 25.7949L106.965 27.1305L107.561 28.0418L107.936 28.5057L108.457 27.9476L108.982 28.6042L109.501 29.5358L110.004 30.7097L110.407 29.8111L110.987 29.1147L111.505 28.3819L111.859 29.8506L112.375 29.4462L113.02 30.6558L113.703 30.2678L114.03 30.6052L114.307 30.8645L114.821 29.1545L115.337 30.5277L115.855 30.4192L116.258 30.9669L116.7 29.7741L117.192 31.7448L117.71 29.7229L118.228 29.4888L118.711 28.161L119.19 27.8698L119.688 28.4387L120.303 28.8312L120.622 28.6035L121.12 28.5037L121.629 28.7992L122.139 29.3284L122.609 29.1029L123.048 29.4853L123.551 28.6789L124.06 28.2957L124.532 28.7892L125.061 28.3417L125.516 28.1131L126.049 28.2285L126.536 27.815L126.962 27.1649L127.481 27.6211L128.002 27.7058L128.429 27.4316L129.007 27.1142L129.39 26.6286L129.9 26.9213L130.339 26.8828L131 26.3574L131.418 26.5455L131.896 27.0297L132.394 27.0833L132.772 26.5878L133.293 26.5413L133.814 26.5725L134.285 26.6748L134.727 27.0053L135.262 27.7091L135.836 27.9041L136.203 28.2893L136.849 28.7723L137.223 28.8105L137.82 28.7034L138.252 28.6505L138.622 28.1062L139.131 27.8622L139.652 28.2896L140 27.9602" stroke="#FB7273" stroke-width="1.5"/>
</g>
<defs>
<clipPath id="clip0_22_2">
<rect width="140" height="38" fill="white"/>
</clipPath>
</defs>
</svg>
