<svg width="221" height="36" viewBox="0 0 221 36" fill="none" xmlns="http://www.w3.org/2000/svg">
<g clip-path="url(#clip0_17_12)">
<path d="M0 3.63782L0.920692 3.34247L1.91659 3.05018L2.36257 2.56074L3.12498 2.16796L3.87652 2.44414L4.66424 2.28304L5.40405 2.67428L6.23806 2.59757L6.98638 2.29608L7.75579 1.7L8.51802 2.06517L9.26893 1.73299L10.0787 2.07207L10.7804 1.64247L11.5412 1.10316L12.3214 1.12617L13.0951 0.781725L13.9113 1.04025L14.8546 0.487907L15.4894 0L16.234 0.607582L16.9816 1.19599L17.7823 1.69693L18.5496 2.78552L19.5198 4.01296L20.1756 3.55113L20.9432 3.50434L21.6646 3.47979L22.5262 4.94274L23.1232 5.78123L23.8793 5.85565L24.7124 6.15714L25.4687 6.59902L26.2362 7.01481L27.0265 6.6205L27.7925 7.46283L28.5637 7.27794L29.3206 7.97221L30.2752 6.48011L30.8823 6.52L31.6939 6.28525L32.48 6.62893L33.1404 5.99987L33.895 5.98606L34.689 6.59441L35.4717 7.28638L36.241 6.46323L37.0041 6.49775L37.8773 6.53688L38.6036 5.89401L39.2389 6.47397L40.0592 7.21964L40.9985 8.2714L41.6824 9.29478L42.3475 8.0543L43.1475 8.22L43.9948 8.98868L44.8109 8.68643L45.458 7.43751L46.2649 7.21197L47.1119 7.00714L47.8361 7.70141L48.681 7.72826L49.4628 8.52226L50.0913 8.42176L50.8751 7.60168L51.6908 9.01016L52.4052 9.14595L53.0327 9.25258L53.835 8.42713L54.525 8.33814L55.3281 8.28137L56.2885 9.16283L57.0495 9.89085L57.7075 9.27867L58.5568 8.22537L59.3283 7.78733L60.1087 8.27754L60.7152 8.3159L61.6394 8.53837L62.2835 8.0029L63.1357 7.41143L63.9123 6.80845L64.7036 7.65845L65.4927 7.3232L66.1001 7.82262L66.9371 7.40989L67.786 8.47853L68.4296 8.44631L69.2733 8.21693L70.2719 8.6964L70.7833 8.29518L71.6015 10.3841L72.3164 11.0723L73.0186 12.0903L73.8679 12.2122L74.7044 11.3684L75.4491 12.2299L76.3709 13.4174L76.8695 13.587L77.7363 13.6522L78.5714 12.526L79.1982 12.3764L79.963 12.0841L80.8224 12.0542L81.6254 12.0665L82.3353 12.2261L83.0252 12.2345L83.8548 12.0105L84.674 12.1846L85.3673 13.0991L86.0892 12.7661L86.9221 13.5785L87.7802 13.0707L88.4169 13.6744L89.3257 13.4136L89.9717 13.4734L90.8146 13.5064L91.6615 13.7941L92.3526 13.6261L93.2212 13.653L93.8636 13.5087L94.7472 14.437L95.6134 14.4646L96.2563 14.3748L97.0742 14.5191L97.774 14.1363L98.5292 13.946L99.3204 14.0434L100.106 13.5049L100.879 13.5179L101.659 13.6944L103.222 14.0818L103.898 14.6004L104.715 14.9648L105.631 15.5095L106.255 16.5635L107.263 16.0465L107.792 15.6176L108.783 15.8447L109.438 15.9835L110.078 15.6636L110.874 14.9801L111.743 14.9786L112.506 15.043L113.161 15.6368L113.946 15.7296L114.721 15.9651L115.538 15.9667L116.473 16.1891L117.046 16.1815L117.882 16.4277L118.585 16.4929L119.298 16.3349L120.105 16.5535L120.859 16.8121L121.612 16.9072L122.498 17.0821L123.14 17.1581L123.911 16.5881L124.7 16.4738L125.586 17.0108L126.281 17.0844L127.106 17.4626L127.807 17.6429L128.808 17.9988L129.277 17.7948L130.053 17.636L130.85 17.2708L131.626 17.3199L132.473 17.1949L133.131 17.2931L134.017 17.0591L134.721 17.3567L135.503 17.468L136.323 17.2133L136.974 17.2808L137.784 17.4243L138.593 18.183L139.251 18.3847L140.03 17.8577L140.919 17.5854L141.634 17.9889L142.545 17.0476L143.248 16.8343L143.915 16.575L144.726 16.7499L145.485 17.2655L146.26 17.593L147.017 17.534L147.77 17.738L148.747 18.1377L149.264 18.1837L150.056 18.173L150.804 17.303L151.578 17.277L152.352 17.3943L153.095 17.6015L153.911 17.2271L154.678 17.4465L155.437 18.153L156.178 18.2428L157.075 17.8684L157.994 18.2627L158.606 18.0265L159.315 18.0035L160.069 18.2658L160.971 18.0349L161.731 18.3487L162.561 18.2535L163.182 18.0272L163.937 17.4787L164.718 17.5248L165.476 17.6782L166.216 18.0326L167.01 17.9359L167.812 18.0794L168.564 17.985L169.312 17.8876L170.217 18.4438L170.999 18.5113L171.656 18.4392L172.487 18.0963L173.236 17.8976L174.066 17.1627L174.848 16.6042L175.597 16.3518L177.085 16.7607L177.387 16.7208L177.847 16.8236L178.653 16.6824L179.436 16.2405L180.208 16.2873L180.834 16.3265L181.732 15.9145L182.58 15.7519L183.191 15.6099L183.876 15.5309L184.736 15.6245L185.64 15.8263L186.301 16.3993L187.063 16.7845L187.784 16.5965L188.697 16.7308L189.381 17.3652L190.259 18.239L191.22 19.975L191.607 19.6567L192.502 20.5082L193.246 20.0011L194.032 23.4326L194.861 26.5226L195.49 25.8476L196.242 25.4647L196.981 25.0129L197.851 27.1824L198.599 28.6461L199.28 28.4697L200.082 28.396L200.961 28.0585L201.716 28.587L202.497 28.9668L203.222 28.7673L204.146 28.6246L204.772 29.8329L205.52 30.7504L206.243 30.8018L207.102 31.2191L207.87 32.0967L208.716 31.6503L209.294 31.7745L210.187 31.9794L210.983 32.9552L211.798 32.6798L212.423 32.8416L213.4 33.1332L213.96 33.3671L214.778 33.6019L215.552 34.6997L216.348 34.8485L217.143 34.8531L217.746 34.6874L218.403 34.5301L219.28 35.4446L219.909 35.1347L220.697 35.5926L221 36" stroke="#FB7273" stroke-width="1.5"/>
</g>
<defs>
<clipPath id="clip0_17_12">
<rect width="221" height="36" fill="white"/>
</clipPath>
</defs>
</svg>
