<svg width="221" height="36" viewBox="0 0 221 36" fill="none" xmlns="http://www.w3.org/2000/svg">
<g clip-path="url(#clip0_16_6)">
<path d="M0 36L0.836518 35.5663L1.5595 35.3767L2.2817 34.6446L3.03113 34.0339L3.78214 33.1641L4.64236 32.6975L5.78006 31.0273L6.12819 30.8655L6.86416 30.4065L7.64727 29.8122L8.44853 29.4051L9.31771 29.3798L9.93943 29.486L10.6884 29.151L11.4627 28.6566L12.2468 28.2229L13.0391 27.6995L13.8818 27.5124L14.5826 28.0738L15.3552 27.5781L16.0991 27.3366L16.9902 27.1862L17.612 27.2545L18.5825 27.2013L19.2057 27.3025L19.9623 27.2279L20.7038 27.1154L21.4871 27.1128L22.2673 27.0597L23.2762 27.0231L23.7631 26.9169L24.5315 27.2051L25.2907 27.1976L26.2456 27.3556L26.8514 27.0635L27.6794 26.8031L28.4675 27.0876L29.2687 27.195L30.0579 26.951L30.7134 27.0863L31.495 27.238L32.4161 27.4176L33.1008 27.1179L34.0648 27.0711L34.6817 27.5453L35.3185 27.305L36.1145 27.7147L36.8356 27.6338L37.6566 27.9081L38.488 27.9739L39.2941 27.7248L39.9371 28.008L40.739 27.6502L41.4738 27.9663L42.2121 27.8436L43.0988 28.7401L43.9054 28.6351L44.6947 28.8096L45.389 27.6236L46.1088 28.0915L46.8498 28.7312L47.6363 28.869L48.4784 28.4606L49.1655 23.0935L50.0137 20.9972L50.7411 18.7453L51.6255 15.0345L52.292 13.3756L53.124 12.8117L53.776 12.7687L54.596 11.1681L55.3087 6.85913L56.1602 6.80982L56.9894 3.79307L57.6273 3.44031L58.4889 2.32894L59.1824 1.53493L59.9307 1.43884L60.6787 1.54631L61.5245 1.30482L62.2048 1.70056L63.0064 0L63.867 1.53619L64.6002 2.01665L65.296 1.46665L66.1372 2.11021L66.8166 2.664L67.6036 2.20377L68.4075 2.45032L69.1453 3.0471L69.8966 4.00042L70.7457 5.51386L71.4328 6.0019L72.1413 7.72774L72.9806 10.4322L73.9003 13.918L74.5765 15.4985L75.4042 18.1245L76.089 19.9073L76.8152 21.7419L77.6011 22.8583L78.5532 22.7167L79.1355 23.5044L80.0395 23.4614L80.7613 23.6295L81.4736 23.3754L82.2058 23.1061L82.985 23.3666L83.857 23.2932L84.5652 23.4563L85.2812 24.3717L86.1373 24.4741L86.8371 24.3376L87.5862 24.483L88.3617 24.4514L89.2754 24.3047L89.953 24.6726L90.6357 24.7725L91.4644 25.7461L92.2578 25.3604L92.9488 22.6825L93.8512 19.2005L94.535 17.352L95.2533 15.8765L96.0857 14.8663L96.7646 13.0899L97.5881 11.206L98.34 10.0112L99.1432 10.3665L99.9796 10.13L100.639 7.92751L101.396 9.76209L102.276 9.78611L102.954 10.6977L103.785 10.106L104.463 9.94795L105.285 10.9443L106.584 9.95554L107.597 9.04141L108.421 9.62807L109.234 8.61153L109.858 9.53703L110.845 8.93647L111.353 8.08429L112.314 8.16647L112.998 8.28153L113.686 6.99947L114.483 6.32051L115.25 5.95006L115.987 6.02592L116.873 5.61753L117.553 6.44442L118.395 6.81361L119.059 6.65304L119.979 5.78822L120.694 5.6365L121.383 5.56443L122.093 5.16995L123.017 4.9588L123.658 4.44674L124.518 4.74892L125.258 4.7249L126.101 4.71352L126.768 4.86271L127.566 4.7603L128.402 4.91329L129.157 4.93225L129.841 4.86018L130.644 5.37098L131.339 5.12696L132.322 4.99673L132.956 5.42535L133.826 5.54926L134.594 5.44179L135.337 5.08271L136.013 5.28248L136.886 4.82605L137.581 4.80202L138.355 5.12949L139.058 4.79317L139.881 4.89306L140.698 4.61616L141.376 4.85639L142.207 4.79697L142.969 4.68317L143.74 4.36835L144.493 5.04478L145.235 4.56685L146.159 4.84375L146.858 5.20029L147.563 5.2888L148.355 5.66684L149.001 5.96902L149.784 6.04362L150.545 6.59614L151.319 6.91476L152.34 6.91603L152.835 6.81741L153.646 6.61258L154.38 6.08661L155.163 6.23833L155.914 5.82362L156.758 5.3419L157.56 5.17122L158.301 5.44558L159.084 5.11938L159.858 5.49615L160.596 4.74386L161.541 5.04604L162.139 4.77547L162.904 5.09788L163.64 4.71225L164.411 4.45306L165.186 5.02076L166.186 5.01949L166.658 4.98409L167.461 4.57317L168.25 4.37467L169.001 4.51375L169.757 4.4303L170.606 4.60352L171.377 5.51259L172.124 5.30777L172.909 6.19534L173.689 6.49752L174.436 6.85154L175.096 7.06775L176.031 7.23591L176.783 7.68096L177.587 8.32452L178.23 8.29544L179.002 8.61911L180.507 8.96175L181.308 8.76072L182.101 9.20957L182.871 9.26646L183.59 9.40301L184.415 10.0997L185.459 10.3639L186.134 10.3728L186.776 10.4866L187.589 10.1578L188.326 10.2994L189.096 10.2906L189.767 10.2109L190.541 10.2742L191.297 10.0301L192.08 9.71404L192.935 10.106L193.73 10.3273L194.669 10.4992L195.243 10.3879L196.011 11.0682L196.612 10.7104L197.426 11.2338L198.227 10.7066L199.039 10.8861L199.784 10.8785L200.559 10.8899L201.301 10.8785L202.166 10.5169L202.821 10.9645L203.571 10.5877L204.309 11.1402L205.098 10.7508L205.995 10.7306L206.702 10.4221L207.712 10.436L208.29 10.5005L209.034 10.6282L209.777 10.7445L210.494 10.393L211.247 10.0402L212.211 10.1414L212.798 10.2021L213.532 10.5561L214.449 10.6446L215.334 10.6509L215.939 10.5536L216.792 10.5801L217.458 10.4815L218.227 10.785L218.968 10.6724L219.759 11.077L220.563 11.1807L221 11.2983" stroke="#67C570" stroke-width="1.5"/>
</g>
<defs>
<clipPath id="clip0_16_6">
<rect width="221" height="36" fill="white"/>
</clipPath>
</defs>
</svg>
