<svg width="221" height="36" viewBox="0 0 221 36" fill="none" xmlns="http://www.w3.org/2000/svg">
<g clip-path="url(#clip0_20_16)">
<path d="M0 23.626L0.661956 23.3901L1.45715 23.507L2.50454 23.9947L3.18808 23.7291L4.19155 23.1906L4.68647 23.1251L5.43344 23.1184L6.23295 23.3197L6.91709 23.5722L7.6257 23.596L8.49444 23.4788L9.22704 23.5428L10.065 23.9779L11.0335 23.9686L11.7437 24.0592L12.4391 24.0361L13.2903 24.0459L13.9819 24.1345L14.6306 24.0082L15.5697 24.6703L16.2274 24.3108L16.9507 24.374L17.689 24.169L18.494 24.1533L19.3492 24.3747L20.1832 23.5091L20.8708 22.3121L21.5718 22.7759L22.4234 22.7186L23.3005 22.7518L23.984 22.5735L24.8312 22.6573L25.5192 22.0967L26.3422 22.0771L27.0324 22.0327L27.8573 21.4465L28.5127 20.3786L29.1567 20.3589L30.0802 19.6363L30.7542 19.407L31.6458 19.6134L32.3422 19.4016L33.3722 15.6626L33.8973 14.5569L34.6927 13.6073L35.3769 11.5146L36.1335 7.56517L36.984 5.09231L37.8192 5.42638L38.4378 4.74171L39.4585 0.606191L40.2068 0.0805997L40.9278 5.86199L41.6367 5.52192L42.3871 4.70781L43.343 5.3108L44.0455 5.67459L44.7152 4.9779L45.4482 4.55982L46.1592 4.62782L46.9798 3.95789L47.8205 2.80075L48.6077 1.66718L49.3314 0L50.0383 0.944925L50.7573 1.6106L51.5807 1.27015L52.5088 1.0013L52.9981 0.819393L53.8478 0.883229L54.5232 1.55166L55.4094 2.45502L56.3437 3.08372L57.0132 3.29696L57.9262 3.81561L58.4727 5.02133L59.3111 5.674L60.1053 6.00345L60.8561 6.38403L61.678 6.84943L62.3607 7.46635L63.2023 8.25598L64.0111 8.84808L64.6654 9.11567L66.2716 8.60937L66.9704 8.39941L67.8399 8.85556L68.6957 9.15074L69.3186 9.68724L70.1719 12.0113L70.93 11.8781L71.7641 12.1283L72.4343 11.8511L73.1419 12.521L73.9917 12.7754L74.67 12.6762L75.4797 12.1989L76.3155 12.4974L77.0132 12.739L77.8736 12.5839L78.5414 12.7121L79.408 13.1459L80.0212 13.1664L80.8852 13.3209L81.6022 13.2784L82.3504 13.1067L83.1558 13.2644L83.989 13.4105L84.8295 13.6054L85.5409 13.7031L86.2358 13.7329L87.0658 13.5832L87.8535 13.9543L88.5872 13.8213L89.3785 14.3633L90.2197 14.9404L90.9054 15.3527L91.9603 16.2263L92.4401 16.5949L93.3076 17.1536L94.1205 16.3213L94.8785 16.064L95.5624 16.1977L96.2489 16.2089L97.1289 16.4074L97.8573 16.632L98.6333 16.7357L99.3263 16.7174L100.213 16.8944L100.862 17.2694L101.713 17.515L102.372 17.8417L103.01 17.5674L103.945 17.9865L104.85 17.575L105.659 17.8405L106.424 18.0623L107.076 18.0934L107.928 18.2342L108.708 18.4543L109.348 18.2939L110.198 18.0533L110.988 17.7937L111.939 17.9257L112.453 17.9797L113.276 17.9534L114.005 18.1814L114.791 18.3767L115.51 18.3269L116.412 18.4557L117.043 18.7104L117.836 18.893L118.655 19.1172L119.391 18.8682L120.134 19.0861L120.871 18.9976L121.551 19.3084L122.294 19.337L123.066 19.6002L123.838 19.952L124.624 20.5554L125.561 21.2947L126.253 21.5788L126.992 22.1156L127.773 22.2811L128.51 22.4324L129.256 22.6364L130.043 22.7227L130.893 22.9196L131.623 22.7214L132.361 22.8341L133.258 22.675L134.007 23.0938L134.649 22.9007L135.524 23.1327L136.323 23.1101L137.067 23.1937L137.732 23.1848L138.529 23.1545L140.457 23.3121L140.8 23.4287L141.58 23.5012L142.361 23.4538L143.12 23.2344L143.898 23.1481L144.624 23.053L145.586 23.1631L146.256 23.1587L147.178 23.168L147.859 23.2287L148.793 23.5968L149.458 23.771L150.231 23.8322L150.834 23.9176L151.612 23.9515L152.491 24.0584L153.323 24.3804L154.24 24.3871L154.672 23.9509L155.553 24.427L156.342 24.3368L156.981 24.5509L157.738 24.7203L158.604 25.0749L159.38 25.0972L160.198 25.4033L160.963 25.5814L161.713 25.7595L162.464 25.8582L163.275 26.0299L164.02 26.3087L164.784 26.6378L165.557 26.5514L166.17 26.4358L167.154 26.4682L167.863 26.3129L168.479 26.428L169.265 26.5691L170.179 26.7869L170.793 27.0568L171.71 27.5837L172.341 27.4693L173.262 27.813L173.886 27.9516L174.871 27.9958L175.521 28.2434L176.158 28.1846L176.913 28.8893L177.747 28.9975L178.534 29.0734L179.295 29.3464L180.077 29.4223L180.863 29.5487L181.568 29.4557L182.468 29.5801L183.097 29.4306L183.894 29.7759L184.789 29.769L185.562 30.2409L186.3 30.4412L187.101 30.5303L187.907 31.1703L188.671 31.8476L189.455 32.9623L190.067 33.1409L190.794 33.3812L191.55 33.8779L192.392 33.4218L193.15 33.5065L194.075 33.4407L194.882 33.2003L195.578 33.5682L196.375 33.4939L197.206 33.3895L197.902 33.5352L198.704 33.6455L199.452 33.8179L200.197 33.7915L201.188 33.7083L201.785 33.76L202.51 33.4158L203.401 33.3823L204.074 33.3182L204.968 33.2583L205.625 33.2081L206.376 33.004L207.124 33.199L207.888 33.0637L208.766 33.1656L209.259 33.1311L210.032 33.0598L210.866 33.3089L211.656 33.2553L212.459 33.2215L213.102 33.2105L213.858 33.3476L214.963 33.2251L215.593 33.5232L216.428 34.8039L217.082 34.9402L217.753 35.2063L218.613 35.5732L219.476 35.9556L220.209 36L221 35.5865" stroke="#FB7273" stroke-width="1.5"/>
</g>
<defs>
<clipPath id="clip0_20_16">
<rect width="221" height="36" fill="white"/>
</clipPath>
</defs>
</svg>
