<svg width="221" height="36" viewBox="0 0 221 36" fill="none" xmlns="http://www.w3.org/2000/svg">
<path d="M0 25.4981L0.745588 22.9013L1.51277 23.4688L2.28095 18.2178L3.02618 6.68981L3.79776 18.5274L4.61686 17.2204L5.3591 17.9885L6.12056 22.2936L6.90444 36L7.84533 19.307L8.43236 0L9.22528 14.4745L9.96964 19.5478L10.7628 24.0019L11.5327 14.2739L12.2782 18.6363L13.0428 18.8255L13.9024 18.0917L14.6325 23.7439L15.3661 22.6548L16.1273 31.4197L16.9006 19.1121L17.6567 22.8268L18.4423 17.3752L19.1973 19.3529L20.0149 11.3503L20.7568 19.5592L21.5037 15.7414L22.2704 16.2631L23.0888 20.7L23.8429 17.7076L24.6064 10.1121L25.3468 23.7611L26.1129 17.0771L26.8836 16.3376L27.655 16.2688L28.4207 15.7471L29.1694 18.751L29.9362 17.4841L30.7257 19.3873L31.4982 18.2293L32.3158 18.9917L33.0401 15.5465L33.7889 21.5197L34.5747 15.6497L35.3393 16.8478L36.1028 16.6987L37.0571 13.7006L37.6537 21.0669L38.4409 27.235L39.1854 29.035L39.9554 21.0669L40.7255 18.6363L41.5669 11.3732L42.2966 14.7783L43.2329 17.8624L43.8254 17.0943L44.616 13.1962L45.3579 14.1134L46.1285 13.6318L46.881 18.5274L47.6655 17.1745L48.4364 18.6936L49.208 19.9204L49.9254 17.6389L50.7694 18.3783L51.4936 26.6675L52.3027 11.872L53.0108 19.6624L53.8204 14.3771L54.5437 25.9796L55.3286 18.9344L56.0754 19.8115L56.8828 22.2707L57.647 20.2185L58.4282 19.2783L59.171 19.9892L59.9931 17.914L60.7425 16.0796L61.4868 20.9752L62.2539 17.0312L62.9976 15.5809L63.8118 17.9943L64.5556 18.8083L65.3039 17.4955L66.0969 18.2408L66.8361 17.9197L67.6268 16.8019L68.3994 21.4166L69.623 21.1529L70.7047 19.542L71.4736 25.3261L72.3678 17.6446L72.985 18.579L73.9383 19.9089L74.5531 17.2605L75.4828 16.9968L76.0666 22.1102L76.8296 19.8745L77.6217 16.6299L78.4418 16.0338L79.137 18.0287L79.9092 19.542L80.677 19.3127L81.4723 22.7121L82.2373 19.8975L83.1593 18.9344L83.7497 18.7108L84.5176 26.0312L85.3119 12.5599L86.0557 24.0592L86.799 16.3548L87.6973 21.9038L88.3709 18.1318L89.2887 16.6185L89.9029 18.6879L90.6742 19.0376L91.4352 18.1204L92.2295 19.4389L92.9739 20.7516L93.7664 20.6541L94.5455 17.2777L95.4319 19.9204L96.0484 19.949L96.8521 21.3306L97.6482 18.2924L98.4066 16.5038L99.1522 19.5592L99.9463 14.8873L100.689 17.3752L101.455 21.2904L102.224 18.5045L102.993 18.6879L103.766 17.7592L104.546 21.7318L105.298 19.7484L106.115 18.7338L106.847 11.058L107.631 22.6261L108.382 14.5892L109.3 17.1172L109.914 19.6223L110.635 17.4325L111.403 16.6873L112.2 22.8325L112.965 18.3096L113.738 16.5783L114.474 17.7363L115.475 18.6248L116.037 19.6051L116.797 12.0497L117.557 16.6701L118.322 19.2554L119.087 19.1408L119.866 19.1694L120.638 18.5446L121.397 19.307L122.163 24.0076L122.956 19.0089L123.734 18.5102L124.601 30.1013L125.263 19.5248L126.037 22.5L126.811 19.0834L127.574 19.9204L128.352 17.3981L129.263 19.2898L129.863 17.5471L130.624 20.5796L131.413 18.665L132.184 19.0147L132.951 18.8943L133.746 19.2038L134.508 20.0006L135.265 18.4758L136.037 19.9089L136.847 17.9885L137.591 18.8828L138.335 21.7376L139.104 16.4924L139.899 16.9739L140.668 18.493L141.442 20.0408L142.185 20.2471L143.64 19.0318L144.52 18.3554L145.294 19.0662L146.059 17.5815L146.795 19.0032L147.586 18.7854L148.609 18.5675L149.305 19.7943L149.9 20.3904L150.66 17.5185L151.429 20.2529L152.246 24.0994L152.971 18.5732L153.715 18.8885L154.479 18.9L155.274 20.1841L156.029 19.6624L157.8 22.007L158.333 18.9688L159.098 20.5682L159.866 17.335L160.607 20.1726L161.471 18.1261L162.164 18.6019L162.944 18.5446L163.703 17.742L164.498 18.9688L165.25 17.4726L166.011 21.1873L166.78 15.3L167.554 21.6L168.32 22.7293L169.085 17.7306L169.855 17.8624L170.827 17.1631L171.392 18.2866L172.171 20.8548L172.935 21.9497L173.695 19.135L174.447 23.3255L175.414 19.6682L175.986 20.2758L176.781 18.7739L177.617 18.1892L178.462 18.7223L179.077 19.2439L179.954 20.614L180.618 17.5299L181.385 19.3873L182.126 15.4834L182.928 18.5217L183.692 21.0841L184.439 21.3191L185.22 21.8809L185.997 23.1134L186.77 21.4395L187.535 20.2701L188.279 19.0433L189.122 18.8541L189.852 22.4427L190.61 22.4656L191.378 20.035L192.152 21.1815L192.92 20.3045L193.691 14.7783L194.459 20.7459L195.223 17.5127L195.992 20.9236L196.735 18.642L197.537 21.6057L198.442 19.5535L199.092 12.193L199.862 17.2662L200.606 14.9389L201.398 19.8229L202.143 17.914L202.942 18.5389L203.685 20.4363L204.6 17.2376L205.215 19.6968L205.963 20.0809L206.754 19.4102L207.563 22.6318L208.304 23.5032L209.068 14.7153L209.839 19.0892L210.597 26.3752L211.365 18.8599L212.164 19.1752L212.881 15.128L213.674 18.1032L214.441 22.0701L215.237 15.5293L215.979 12.9153L216.824 23.7669L217.538 27.5274L218.469 11.9866L219.079 18.728L219.86 20.7229L220.622 13.2191L221 14.9045" stroke="#FB7273" stroke-width="1.5"/>
</svg>
