<svg viewBox="0 0 596 586" xmlns="http://www.w3.org/2000/svg" fill="#0070E0">
<g clip-path="url(#clip0_111_40)">
<path fill-rule="evenodd" clip-rule="evenodd" d="M591 293C591 454.819 459.819 586 298 586C136.181 586 5 454.819 5 293C5 131.181 136.181 0 298 0C459.819 0 591 131.181 591 293ZM172.347 223.691H201.224L196.695 256.531H161.589C153.662 256.531 148 263.213 148 271.819C148 280.426 154.228 287.673 161.589 287.673H191.599C184.238 331.838 171.291 423.573 169.516 436.588C167.818 449.045 179.708 457.424 186.503 457.538C203.159 457.818 232.647 457.683 251.961 457.594H251.963L251.987 457.594C258.705 457.564 264.19 457.538 267.472 457.538C278.23 457.538 285.591 447.346 286.723 441.684L301.445 351.09H348.441C372.788 351.09 447.529 319.268 447.529 239.545C447.529 159.821 374.487 128 343.911 128H233.499C221.268 128 214.247 138.192 213.681 145.553L206.887 191.416H172.347C164.987 191.416 157.626 198.664 157.626 207.27C157.626 215.877 164.987 223.691 172.347 223.691ZM244.257 161.407L240.293 191.983H334.852C351.838 191.983 382.187 208.856 381.281 242.376C380.376 275.896 351.838 289.372 334.852 289.372H225.006L204.056 426.396H256.147C260.3 400.728 269.17 346.56 271.435 335.236C273.7 323.911 284.458 319.948 290.687 319.948H343.911C367.126 319.948 413.896 295.374 415.254 240.111C416.613 184.848 362.596 160.841 343.911 161.407H244.257ZM230.102 257.098L234.631 224.823H334.852C341.08 224.823 350.14 228.447 350.14 240.677C350.14 252.908 340.514 257.098 334.852 257.098H230.102Z"></path>
</g>
</svg>