<svg xmlns="http://www.w3.org/2000/svg" fill="none" viewBox="0 0 464 464" height="464" width="464">
<path fill="#2B1463" d="M8 272C12.4183 272 16 268.418 16 264C16 259.582 12.4183 256 8 256C3.58172 256 0 259.582 0 264C0 268.418 3.58172 272 8 272Z"></path>
<path fill="#2B1463" d="M8 288C12.4183 288 16 284.418 16 280C16 275.582 12.4183 272 8 272C3.58172 272 0 275.582 0 280C0 284.418 3.58172 288 8 288Z"></path>
<path fill="#2B1463" d="M8 336C12.4183 336 16 332.418 16 328C16 323.582 12.4183 320 8 320C3.58172 320 0 323.582 0 328C0 332.418 3.58172 336 8 336Z"></path>
<path fill="#2B1463" d="M24 208C28.4183 208 32 204.418 32 200C32 195.582 28.4183 192 24 192C19.5817 192 16 195.582 16 200C16 204.418 19.5817 208 24 208Z"></path>
<path fill="#2B1463" d="M24 240C28.4183 240 32 236.418 32 232C32 227.582 28.4183 224 24 224C19.5817 224 16 227.582 16 232C16 236.418 19.5817 240 24 240Z"></path>
<path fill="#2B1463" d="M24 256C28.4183 256 32 252.418 32 248C32 243.582 28.4183 240 24 240C19.5817 240 16 243.582 16 248C16 252.418 19.5817 256 24 256Z"></path>
<path fill="#2B1463" d="M24 272C28.4183 272 32 268.418 32 264C32 259.582 28.4183 256 24 256C19.5817 256 16 259.582 16 264C16 268.418 19.5817 272 24 272Z"></path>
<path fill="#2B1463" d="M24 336C28.4183 336 32 332.418 32 328C32 323.582 28.4183 320 24 320C19.5817 320 16 323.582 16 328C16 332.418 19.5817 336 24 336Z"></path>
<path fill="#2B1463" d="M40 160C44.4183 160 48 156.418 48 152C48 147.582 44.4183 144 40 144C35.5817 144 32 147.582 32 152C32 156.418 35.5817 160 40 160Z"></path>
<path fill="#2B1463" d="M40 176C44.4183 176 48 172.418 48 168C48 163.582 44.4183 160 40 160C35.5817 160 32 163.582 32 168C32 172.418 35.5817 176 40 176Z"></path>
<path fill="#2B1463" d="M40 192C44.4183 192 48 188.418 48 184C48 179.582 44.4183 176 40 176C35.5817 176 32 179.582 32 184C32 188.418 35.5817 192 40 192Z"></path>
<path fill="#2B1463" d="M40 256C44.4183 256 48 252.418 48 248C48 243.582 44.4183 240 40 240C35.5817 240 32 243.582 32 248C32 252.418 35.5817 256 40 256Z"></path>
<path fill="#2B1463" d="M40 288C44.4183 288 48 284.418 48 280C48 275.582 44.4183 272 40 272C35.5817 272 32 275.582 32 280C32 284.418 35.5817 288 40 288Z"></path>
<path fill="#2B1463" d="M40 320C44.4183 320 48 316.418 48 312C48 307.582 44.4183 304 40 304C35.5817 304 32 307.582 32 312C32 316.418 35.5817 320 40 320Z"></path>
<path fill="#2B1463" d="M40 336C44.4183 336 48 332.418 48 328C48 323.582 44.4183 320 40 320C35.5817 320 32 323.582 32 328C32 332.418 35.5817 336 40 336Z"></path>
<path fill="#2B1463" d="M56 144C60.4183 144 64 140.418 64 136C64 131.582 60.4183 128 56 128C51.5817 128 48 131.582 48 136C48 140.418 51.5817 144 56 144Z"></path>
<path fill="#2B1463" d="M56 176C60.4183 176 64 172.418 64 168C64 163.582 60.4183 160 56 160C51.5817 160 48 163.582 48 168C48 172.418 51.5817 176 56 176Z"></path>
<path fill="#2B1463" d="M56 224C60.4183 224 64 220.418 64 216C64 211.582 60.4183 208 56 208C51.5817 208 48 211.582 48 216C48 220.418 51.5817 224 56 224Z"></path>
<path fill="#2B1463" d="M56 240C60.4183 240 64 236.418 64 232C64 227.582 60.4183 224 56 224C51.5817 224 48 227.582 48 232C48 236.418 51.5817 240 56 240Z"></path>
<path fill="#2B1463" d="M56 272C60.4183 272 64 268.418 64 264C64 259.582 60.4183 256 56 256C51.5817 256 48 259.582 48 264C48 268.418 51.5817 272 56 272Z"></path>
<path fill="#2B1463" d="M56 288C60.4183 288 64 284.418 64 280C64 275.582 60.4183 272 56 272C51.5817 272 48 275.582 48 280C48 284.418 51.5817 288 56 288Z"></path>
<path fill="#2B1463" d="M56 304C60.4183 304 64 300.418 64 296C64 291.582 60.4183 288 56 288C51.5817 288 48 291.582 48 296C48 300.418 51.5817 304 56 304Z"></path>
<path fill="#2B1463" d="M56 320C60.4183 320 64 316.418 64 312C64 307.582 60.4183 304 56 304C51.5817 304 48 307.582 48 312C48 316.418 51.5817 320 56 320Z"></path>
<path fill="#2B1463" d="M72 176C76.4183 176 80 172.418 80 168C80 163.582 76.4183 160 72 160C67.5817 160 64 163.582 64 168C64 172.418 67.5817 176 72 176Z"></path>
<path fill="#2B1463" d="M72 240C76.4183 240 80 236.418 80 232C80 227.582 76.4183 224 72 224C67.5817 224 64 227.582 64 232C64 236.418 67.5817 240 72 240Z"></path>
<path fill="#2B1463" d="M72 256C76.4183 256 80 252.418 80 248C80 243.582 76.4183 240 72 240C67.5817 240 64 243.582 64 248C64 252.418 67.5817 256 72 256Z"></path>
<path fill="#2B1463" d="M72 272C76.4183 272 80 268.418 80 264C80 259.582 76.4183 256 72 256C67.5817 256 64 259.582 64 264C64 268.418 67.5817 272 72 272Z"></path>
<path fill="#2B1463" d="M72 288C76.4183 288 80 284.418 80 280C80 275.582 76.4183 272 72 272C67.5817 272 64 275.582 64 280C64 284.418 67.5817 288 72 288Z"></path>
<path fill="#2B1463" d="M72 304C76.4183 304 80 300.418 80 296C80 291.582 76.4183 288 72 288C67.5817 288 64 291.582 64 296C64 300.418 67.5817 304 72 304Z"></path>
<path fill="#2B1463" d="M88 144C92.4183 144 96 140.418 96 136C96 131.582 92.4183 128 88 128C83.5817 128 80 131.582 80 136C80 140.418 83.5817 144 88 144Z"></path>
<path fill="#2B1463" d="M88 160C92.4183 160 96 156.418 96 152C96 147.582 92.4183 144 88 144C83.5817 144 80 147.582 80 152C80 156.418 83.5817 160 88 160Z"></path>
<path fill="#2B1463" d="M88 176C92.4183 176 96 172.418 96 168C96 163.582 92.4183 160 88 160C83.5817 160 80 163.582 80 168C80 172.418 83.5817 176 88 176Z"></path>
<path fill="#2B1463" d="M88 192C92.4183 192 96 188.418 96 184C96 179.582 92.4183 176 88 176C83.5817 176 80 179.582 80 184C80 188.418 83.5817 192 88 192Z"></path>
<path fill="#2B1463" d="M88 240C92.4183 240 96 236.418 96 232C96 227.582 92.4183 224 88 224C83.5817 224 80 227.582 80 232C80 236.418 83.5817 240 88 240Z"></path>
<path fill="#2B1463" d="M88 272C92.4183 272 96 268.418 96 264C96 259.582 92.4183 256 88 256C83.5817 256 80 259.582 80 264C80 268.418 83.5817 272 88 272Z"></path>
<path fill="#2B1463" d="M88 304C92.4183 304 96 300.418 96 296C96 291.582 92.4183 288 88 288C83.5817 288 80 291.582 80 296C80 300.418 83.5817 304 88 304Z"></path>
<path fill="#2B1463" d="M104 144C108.418 144 112 140.418 112 136C112 131.582 108.418 128 104 128C99.5817 128 96 131.582 96 136C96 140.418 99.5817 144 104 144Z"></path>
<path fill="#2B1463" d="M104 176C108.418 176 112 172.418 112 168C112 163.582 108.418 160 104 160C99.5817 160 96 163.582 96 168C96 172.418 99.5817 176 104 176Z"></path>
<path fill="#2B1463" d="M104 208C108.418 208 112 204.418 112 200C112 195.582 108.418 192 104 192C99.5817 192 96 195.582 96 200C96 204.418 99.5817 208 104 208Z"></path>
<path fill="#2B1463" d="M104 240C108.418 240 112 236.418 112 232C112 227.582 108.418 224 104 224C99.5817 224 96 227.582 96 232C96 236.418 99.5817 240 104 240Z"></path>
<path fill="#2B1463" d="M104 272C108.418 272 112 268.418 112 264C112 259.582 108.418 256 104 256C99.5817 256 96 259.582 96 264C96 268.418 99.5817 272 104 272Z"></path>
<path fill="#2B1463" d="M104 304C108.418 304 112 300.418 112 296C112 291.582 108.418 288 104 288C99.5817 288 96 291.582 96 296C96 300.418 99.5817 304 104 304Z"></path>
<path fill="#2B1463" d="M104 336C108.418 336 112 332.418 112 328C112 323.582 108.418 320 104 320C99.5817 320 96 323.582 96 328C96 332.418 99.5817 336 104 336Z"></path>
<path fill="#2B1463" d="M120 144C124.418 144 128 140.418 128 136C128 131.582 124.418 128 120 128C115.582 128 112 131.582 112 136C112 140.418 115.582 144 120 144Z"></path>
<path fill="#2B1463" d="M120 176C124.418 176 128 172.418 128 168C128 163.582 124.418 160 120 160C115.582 160 112 163.582 112 168C112 172.418 115.582 176 120 176Z"></path>
<path fill="#2B1463" d="M120 224C124.418 224 128 220.418 128 216C128 211.582 124.418 208 120 208C115.582 208 112 211.582 112 216C112 220.418 115.582 224 120 224Z"></path>
<path fill="#2B1463" d="M120 240C124.418 240 128 236.418 128 232C128 227.582 124.418 224 120 224C115.582 224 112 227.582 112 232C112 236.418 115.582 240 120 240Z"></path>
<path fill="#2B1463" d="M120 272C124.418 272 128 268.418 128 264C128 259.582 124.418 256 120 256C115.582 256 112 259.582 112 264C112 268.418 115.582 272 120 272Z"></path>
<path fill="#2B1463" d="M120 320C124.418 320 128 316.418 128 312C128 307.582 124.418 304 120 304C115.582 304 112 307.582 112 312C112 316.418 115.582 320 120 320Z"></path>
<path fill="#2B1463" d="M136 32C140.418 32 144 28.4183 144 24C144 19.5817 140.418 16 136 16C131.582 16 128 19.5817 128 24C128 28.4183 131.582 32 136 32Z"></path>
<path fill="#2B1463" d="M136 48C140.418 48 144 44.4183 144 40C144 35.5817 140.418 32 136 32C131.582 32 128 35.5817 128 40C128 44.4183 131.582 48 136 48Z"></path>
<path fill="#2B1463" d="M136 112C140.418 112 144 108.418 144 104C144 99.5817 140.418 96 136 96C131.582 96 128 99.5817 128 104C128 108.418 131.582 112 136 112Z"></path>
<path fill="#2B1463" d="M136 176C140.418 176 144 172.418 144 168C144 163.582 140.418 160 136 160C131.582 160 128 163.582 128 168C128 172.418 131.582 176 136 176Z"></path>
<path fill="#2B1463" d="M136 192C140.418 192 144 188.418 144 184C144 179.582 140.418 176 136 176C131.582 176 128 179.582 128 184C128 188.418 131.582 192 136 192Z"></path>
<path fill="#2B1463" d="M136 240C140.418 240 144 236.418 144 232C144 227.582 140.418 224 136 224C131.582 224 128 227.582 128 232C128 236.418 131.582 240 136 240Z"></path>
<path fill="#2B1463" d="M136 256C140.418 256 144 252.418 144 248C144 243.582 140.418 240 136 240C131.582 240 128 243.582 128 248C128 252.418 131.582 256 136 256Z"></path>
<path fill="#2B1463" d="M136 272C140.418 272 144 268.418 144 264C144 259.582 140.418 256 136 256C131.582 256 128 259.582 128 264C128 268.418 131.582 272 136 272Z"></path>
<path fill="#2B1463" d="M136 320C140.418 320 144 316.418 144 312C144 307.582 140.418 304 136 304C131.582 304 128 307.582 128 312C128 316.418 131.582 320 136 320Z"></path>
<path fill="#2B1463" d="M136 368C140.418 368 144 364.418 144 360C144 355.582 140.418 352 136 352C131.582 352 128 355.582 128 360C128 364.418 131.582 368 136 368Z"></path>
<path fill="#2B1463" d="M136 384C140.418 384 144 380.418 144 376C144 371.582 140.418 368 136 368C131.582 368 128 371.582 128 376C128 380.418 131.582 384 136 384Z"></path>
<path fill="#2B1463" d="M136 416C140.418 416 144 412.418 144 408C144 403.582 140.418 400 136 400C131.582 400 128 403.582 128 408C128 412.418 131.582 416 136 416Z"></path>
<path fill="#2B1463" d="M152 48C156.418 48 160 44.4183 160 40C160 35.5817 156.418 32 152 32C147.582 32 144 35.5817 144 40C144 44.4183 147.582 48 152 48Z"></path>
<path fill="#2B1463" d="M152 64C156.418 64 160 60.4183 160 56C160 51.5817 156.418 48 152 48C147.582 48 144 51.5817 144 56C144 60.4183 147.582 64 152 64Z"></path>
<path fill="#2B1463" d="M152 128C156.418 128 160 124.418 160 120C160 115.582 156.418 112 152 112C147.582 112 144 115.582 144 120C144 124.418 147.582 128 152 128Z"></path>
<path fill="#2B1463" d="M152 144C156.418 144 160 140.418 160 136C160 131.582 156.418 128 152 128C147.582 128 144 131.582 144 136C144 140.418 147.582 144 152 144Z"></path>
<path fill="#2B1463" d="M152 176C156.418 176 160 172.418 160 168C160 163.582 156.418 160 152 160C147.582 160 144 163.582 144 168C144 172.418 147.582 176 152 176Z"></path>
<path fill="#2B1463" d="M152 192C156.418 192 160 188.418 160 184C160 179.582 156.418 176 152 176C147.582 176 144 179.582 144 184C144 188.418 147.582 192 152 192Z"></path>
<path fill="#2B1463" d="M152 208C156.418 208 160 204.418 160 200C160 195.582 156.418 192 152 192C147.582 192 144 195.582 144 200C144 204.418 147.582 208 152 208Z"></path>
<path fill="#2B1463" d="M152 224C156.418 224 160 220.418 160 216C160 211.582 156.418 208 152 208C147.582 208 144 211.582 144 216C144 220.418 147.582 224 152 224Z"></path>
<path fill="#2B1463" d="M152 240C156.418 240 160 236.418 160 232C160 227.582 156.418 224 152 224C147.582 224 144 227.582 144 232C144 236.418 147.582 240 152 240Z"></path>
<path fill="#2B1463" d="M152 256C156.418 256 160 252.418 160 248C160 243.582 156.418 240 152 240C147.582 240 144 243.582 144 248C144 252.418 147.582 256 152 256Z"></path>
<path fill="#2B1463" d="M152 288C156.418 288 160 284.418 160 280C160 275.582 156.418 272 152 272C147.582 272 144 275.582 144 280C144 284.418 147.582 288 152 288Z"></path>
<path fill="#2B1463" d="M152 320C156.418 320 160 316.418 160 312C160 307.582 156.418 304 152 304C147.582 304 144 307.582 144 312C144 316.418 147.582 320 152 320Z"></path>
<path fill="#2B1463" d="M152 336C156.418 336 160 332.418 160 328C160 323.582 156.418 320 152 320C147.582 320 144 323.582 144 328C144 332.418 147.582 336 152 336Z"></path>
<path fill="#2B1463" d="M152 352C156.418 352 160 348.418 160 344C160 339.582 156.418 336 152 336C147.582 336 144 339.582 144 344C144 348.418 147.582 352 152 352Z"></path>
<path fill="#2B1463" d="M152 384C156.418 384 160 380.418 160 376C160 371.582 156.418 368 152 368C147.582 368 144 371.582 144 376C144 380.418 147.582 384 152 384Z"></path>
<path fill="#2B1463" d="M152 416C156.418 416 160 412.418 160 408C160 403.582 156.418 400 152 400C147.582 400 144 403.582 144 408C144 412.418 147.582 416 152 416Z"></path>
<path fill="#2B1463" d="M152 432C156.418 432 160 428.418 160 424C160 419.582 156.418 416 152 416C147.582 416 144 419.582 144 424C144 428.418 147.582 432 152 432Z"></path>
<path fill="#2B1463" d="M152 448C156.418 448 160 444.418 160 440C160 435.582 156.418 432 152 432C147.582 432 144 435.582 144 440C144 444.418 147.582 448 152 448Z"></path>
<path fill="#2B1463" d="M152 464C156.418 464 160 460.418 160 456C160 451.582 156.418 448 152 448C147.582 448 144 451.582 144 456C144 460.418 147.582 464 152 464Z"></path>
<path fill="#2B1463" d="M168 16C172.418 16 176 12.4183 176 8C176 3.58172 172.418 0 168 0C163.582 0 160 3.58172 160 8C160 12.4183 163.582 16 168 16Z"></path>
<path fill="#2B1463" d="M168 112C172.418 112 176 108.418 176 104C176 99.5817 172.418 96 168 96C163.582 96 160 99.5817 160 104C160 108.418 163.582 112 168 112Z"></path>
<path fill="#2B1463" d="M168 144C172.418 144 176 140.418 176 136C176 131.582 172.418 128 168 128C163.582 128 160 131.582 160 136C160 140.418 163.582 144 168 144Z"></path>
<path fill="#2B1463" d="M168 160C172.418 160 176 156.418 176 152C176 147.582 172.418 144 168 144C163.582 144 160 147.582 160 152C160 156.418 163.582 160 168 160Z"></path>
<path fill="#2B1463" d="M168 320C172.418 320 176 316.418 176 312C176 307.582 172.418 304 168 304C163.582 304 160 307.582 160 312C160 316.418 163.582 320 168 320Z"></path>
<path fill="#2B1463" d="M168 352C172.418 352 176 348.418 176 344C176 339.582 172.418 336 168 336C163.582 336 160 339.582 160 344C160 348.418 163.582 352 168 352Z"></path>
<path fill="#2B1463" d="M168 384C172.418 384 176 380.418 176 376C176 371.582 172.418 368 168 368C163.582 368 160 371.582 160 376C160 380.418 163.582 384 168 384Z"></path>
<path fill="#2B1463" d="M168 416C172.418 416 176 412.418 176 408C176 403.582 172.418 400 168 400C163.582 400 160 403.582 160 408C160 412.418 163.582 416 168 416Z"></path>
<path fill="#2B1463" d="M168 432C172.418 432 176 428.418 176 424C176 419.582 172.418 416 168 416C163.582 416 160 419.582 160 424C160 428.418 163.582 432 168 432Z"></path>
<path fill="#2B1463" d="M168 464C172.418 464 176 460.418 176 456C176 451.582 172.418 448 168 448C163.582 448 160 451.582 160 456C160 460.418 163.582 464 168 464Z"></path>
<path fill="#2B1463" d="M184 80C188.418 80 192 76.4183 192 72C192 67.5817 188.418 64 184 64C179.582 64 176 67.5817 176 72C176 76.4183 179.582 80 184 80Z"></path>
<path fill="#2B1463" d="M184 144C188.418 144 192 140.418 192 136C192 131.582 188.418 128 184 128C179.582 128 176 131.582 176 136C176 140.418 179.582 144 184 144Z"></path>
<path fill="#2B1463" d="M184 176C188.418 176 192 172.418 192 168C192 163.582 188.418 160 184 160C179.582 160 176 163.582 176 168C176 172.418 179.582 176 184 176Z"></path>
<path fill="#2B1463" d="M184 336C188.418 336 192 332.418 192 328C192 323.582 188.418 320 184 320C179.582 320 176 323.582 176 328C176 332.418 179.582 336 184 336Z"></path>
<path fill="#2B1463" d="M184 368C188.418 368 192 364.418 192 360C192 355.582 188.418 352 184 352C179.582 352 176 355.582 176 360C176 364.418 179.582 368 184 368Z"></path>
<path fill="#2B1463" d="M184 384C188.418 384 192 380.418 192 376C192 371.582 188.418 368 184 368C179.582 368 176 371.582 176 376C176 380.418 179.582 384 184 384Z"></path>
<path fill="#2B1463" d="M184 400C188.418 400 192 396.418 192 392C192 387.582 188.418 384 184 384C179.582 384 176 387.582 176 392C176 396.418 179.582 400 184 400Z"></path>
<path fill="#2B1463" d="M200 16C204.418 16 208 12.4183 208 8C208 3.58172 204.418 0 200 0C195.582 0 192 3.58172 192 8C192 12.4183 195.582 16 200 16Z"></path>
<path fill="#2B1463" d="M200 32C204.418 32 208 28.4183 208 24C208 19.5817 204.418 16 200 16C195.582 16 192 19.5817 192 24C192 28.4183 195.582 32 200 32Z"></path>
<path fill="#2B1463" d="M200 48C204.418 48 208 44.4183 208 40C208 35.5817 204.418 32 200 32C195.582 32 192 35.5817 192 40C192 44.4183 195.582 48 200 48Z"></path>
<path fill="#2B1463" d="M200 80C204.418 80 208 76.4183 208 72C208 67.5817 204.418 64 200 64C195.582 64 192 67.5817 192 72C192 76.4183 195.582 80 200 80Z"></path>
<path fill="#2B1463" d="M200 112C204.418 112 208 108.418 208 104C208 99.5817 204.418 96 200 96C195.582 96 192 99.5817 192 104C192 108.418 195.582 112 200 112Z"></path>
<path fill="#2B1463" d="M200 128C204.418 128 208 124.418 208 120C208 115.582 204.418 112 200 112C195.582 112 192 115.582 192 120C192 124.418 195.582 128 200 128Z"></path>
<path fill="#2B1463" d="M200 144C204.418 144 208 140.418 208 136C208 131.582 204.418 128 200 128C195.582 128 192 131.582 192 136C192 140.418 195.582 144 200 144Z"></path>
<path fill="#2B1463" d="M200 160C204.418 160 208 156.418 208 152C208 147.582 204.418 144 200 144C195.582 144 192 147.582 192 152C192 156.418 195.582 160 200 160Z"></path>
<path fill="#2B1463" d="M200 176C204.418 176 208 172.418 208 168C208 163.582 204.418 160 200 160C195.582 160 192 163.582 192 168C192 172.418 195.582 176 200 176Z"></path>
<path fill="#2B1463" d="M200 320C204.418 320 208 316.418 208 312C208 307.582 204.418 304 200 304C195.582 304 192 307.582 192 312C192 316.418 195.582 320 200 320Z"></path>
<path fill="#2B1463" d="M200 352C204.418 352 208 348.418 208 344C208 339.582 204.418 336 200 336C195.582 336 192 339.582 192 344C192 348.418 195.582 352 200 352Z"></path>
<path fill="#2B1463" d="M200 368C204.418 368 208 364.418 208 360C208 355.582 204.418 352 200 352C195.582 352 192 355.582 192 360C192 364.418 195.582 368 200 368Z"></path>
<path fill="#2B1463" d="M200 416C204.418 416 208 412.418 208 408C208 403.582 204.418 400 200 400C195.582 400 192 403.582 192 408C192 412.418 195.582 416 200 416Z"></path>
<path fill="#2B1463" d="M200 448C204.418 448 208 444.418 208 440C208 435.582 204.418 432 200 432C195.582 432 192 435.582 192 440C192 444.418 195.582 448 200 448Z"></path>
<path fill="#2B1463" d="M216 16C220.418 16 224 12.4183 224 8C224 3.58172 220.418 0 216 0C211.582 0 208 3.58172 208 8C208 12.4183 211.582 16 216 16Z"></path>
<path fill="#2B1463" d="M216 48C220.418 48 224 44.4183 224 40C224 35.5817 220.418 32 216 32C211.582 32 208 35.5817 208 40C208 44.4183 211.582 48 216 48Z"></path>
<path fill="#2B1463" d="M216 64C220.418 64 224 60.4183 224 56C224 51.5817 220.418 48 216 48C211.582 48 208 51.5817 208 56C208 60.4183 211.582 64 216 64Z"></path>
<path fill="#2B1463" d="M216 96C220.418 96 224 92.4183 224 88C224 83.5817 220.418 80 216 80C211.582 80 208 83.5817 208 88C208 92.4183 211.582 96 216 96Z"></path>
<path fill="#2B1463" d="M216 144C220.418 144 224 140.418 224 136C224 131.582 220.418 128 216 128C211.582 128 208 131.582 208 136C208 140.418 211.582 144 216 144Z"></path>
<path fill="#2B1463" d="M216 336C220.418 336 224 332.418 224 328C224 323.582 220.418 320 216 320C211.582 320 208 323.582 208 328C208 332.418 211.582 336 216 336Z"></path>
<path fill="#2B1463" d="M216 368C220.418 368 224 364.418 224 360C224 355.582 220.418 352 216 352C211.582 352 208 355.582 208 360C208 364.418 211.582 368 216 368Z"></path>
<path fill="#2B1463" d="M216 416C220.418 416 224 412.418 224 408C224 403.582 220.418 400 216 400C211.582 400 208 403.582 208 408C208 412.418 211.582 416 216 416Z"></path>
<path fill="#2B1463" d="M216 464C220.418 464 224 460.418 224 456C224 451.582 220.418 448 216 448C211.582 448 208 451.582 208 456C208 460.418 211.582 464 216 464Z"></path>
<path fill="#2B1463" d="M232 32C236.418 32 240 28.4183 240 24C240 19.5817 236.418 16 232 16C227.582 16 224 19.5817 224 24C224 28.4183 227.582 32 232 32Z"></path>
<path fill="#2B1463" d="M232 64C236.418 64 240 60.4183 240 56C240 51.5817 236.418 48 232 48C227.582 48 224 51.5817 224 56C224 60.4183 227.582 64 232 64Z"></path>
<path fill="#2B1463" d="M232 112C236.418 112 240 108.418 240 104C240 99.5817 236.418 96 232 96C227.582 96 224 99.5817 224 104C224 108.418 227.582 112 232 112Z"></path>
<path fill="#2B1463" d="M232 160C236.418 160 240 156.418 240 152C240 147.582 236.418 144 232 144C227.582 144 224 147.582 224 152C224 156.418 227.582 160 232 160Z"></path>
<path fill="#2B1463" d="M232 320C236.418 320 240 316.418 240 312C240 307.582 236.418 304 232 304C227.582 304 224 307.582 224 312C224 316.418 227.582 320 232 320Z"></path>
<path fill="#2B1463" d="M232 368C236.418 368 240 364.418 240 360C240 355.582 236.418 352 232 352C227.582 352 224 355.582 224 360C224 364.418 227.582 368 232 368Z"></path>
<path fill="#2B1463" d="M232 416C236.418 416 240 412.418 240 408C240 403.582 236.418 400 232 400C227.582 400 224 403.582 224 408C224 412.418 227.582 416 232 416Z"></path>
<path fill="#2B1463" d="M232 432C236.418 432 240 428.418 240 424C240 419.582 236.418 416 232 416C227.582 416 224 419.582 224 424C224 428.418 227.582 432 232 432Z"></path>
<path fill="#2B1463" d="M232 464C236.418 464 240 460.418 240 456C240 451.582 236.418 448 232 448C227.582 448 224 451.582 224 456C224 460.418 227.582 464 232 464Z"></path>
<path fill="#2B1463" d="M248 16C252.418 16 256 12.4183 256 8C256 3.58172 252.418 0 248 0C243.582 0 240 3.58172 240 8C240 12.4183 243.582 16 248 16Z"></path>
<path fill="#2B1463" d="M248 32C252.418 32 256 28.4183 256 24C256 19.5817 252.418 16 248 16C243.582 16 240 19.5817 240 24C240 28.4183 243.582 32 248 32Z"></path>
<path fill="#2B1463" d="M248 48C252.418 48 256 44.4183 256 40C256 35.5817 252.418 32 248 32C243.582 32 240 35.5817 240 40C240 44.4183 243.582 48 248 48Z"></path>
<path fill="#2B1463" d="M248 96C252.418 96 256 92.4183 256 88C256 83.5817 252.418 80 248 80C243.582 80 240 83.5817 240 88C240 92.4183 243.582 96 248 96Z"></path>
<path fill="#2B1463" d="M248 144C252.418 144 256 140.418 256 136C256 131.582 252.418 128 248 128C243.582 128 240 131.582 240 136C240 140.418 243.582 144 248 144Z"></path>
<path fill="#2B1463" d="M248 176C252.418 176 256 172.418 256 168C256 163.582 252.418 160 248 160C243.582 160 240 163.582 240 168C240 172.418 243.582 176 248 176Z"></path>
<path fill="#2B1463" d="M248 320C252.418 320 256 316.418 256 312C256 307.582 252.418 304 248 304C243.582 304 240 307.582 240 312C240 316.418 243.582 320 248 320Z"></path>
<path fill="#2B1463" d="M248 352C252.418 352 256 348.418 256 344C256 339.582 252.418 336 248 336C243.582 336 240 339.582 240 344C240 348.418 243.582 352 248 352Z"></path>
<path fill="#2B1463" d="M248 368C252.418 368 256 364.418 256 360C256 355.582 252.418 352 248 352C243.582 352 240 355.582 240 360C240 364.418 243.582 368 248 368Z"></path>
<path fill="#2B1463" d="M248 416C252.418 416 256 412.418 256 408C256 403.582 252.418 400 248 400C243.582 400 240 403.582 240 408C240 412.418 243.582 416 248 416Z"></path>
<path fill="#2B1463" d="M248 464C252.418 464 256 460.418 256 456C256 451.582 252.418 448 248 448C243.582 448 240 451.582 240 456C240 460.418 243.582 464 248 464Z"></path>
<path fill="#2B1463" d="M264 16C268.418 16 272 12.4183 272 8C272 3.58172 268.418 0 264 0C259.582 0 256 3.58172 256 8C256 12.4183 259.582 16 264 16Z"></path>
<path fill="#2B1463" d="M264 32C268.418 32 272 28.4183 272 24C272 19.5817 268.418 16 264 16C259.582 16 256 19.5817 256 24C256 28.4183 259.582 32 264 32Z"></path>
<path fill="#2B1463" d="M264 48C268.418 48 272 44.4183 272 40C272 35.5817 268.418 32 264 32C259.582 32 256 35.5817 256 40C256 44.4183 259.582 48 264 48Z"></path>
<path fill="#2B1463" d="M264 64C268.418 64 272 60.4183 272 56C272 51.5817 268.418 48 264 48C259.582 48 256 51.5817 256 56C256 60.4183 259.582 64 264 64Z"></path>
<path fill="#2B1463" d="M264 80C268.418 80 272 76.4183 272 72C272 67.5817 268.418 64 264 64C259.582 64 256 67.5817 256 72C256 76.4183 259.582 80 264 80Z"></path>
<path fill="#2B1463" d="M264 96C268.418 96 272 92.4183 272 88C272 83.5817 268.418 80 264 80C259.582 80 256 83.5817 256 88C256 92.4183 259.582 96 264 96Z"></path>
<path fill="#2B1463" d="M264 112C268.418 112 272 108.418 272 104C272 99.5817 268.418 96 264 96C259.582 96 256 99.5817 256 104C256 108.418 259.582 112 264 112Z"></path>
<path fill="#2B1463" d="M264 176C268.418 176 272 172.418 272 168C272 163.582 268.418 160 264 160C259.582 160 256 163.582 256 168C256 172.418 259.582 176 264 176Z"></path>
<path fill="#2B1463" d="M264 352C268.418 352 272 348.418 272 344C272 339.582 268.418 336 264 336C259.582 336 256 339.582 256 344C256 348.418 259.582 352 264 352Z"></path>
<path fill="#2B1463" d="M264 368C268.418 368 272 364.418 272 360C272 355.582 268.418 352 264 352C259.582 352 256 355.582 256 360C256 364.418 259.582 368 264 368Z"></path>
<path fill="#2B1463" d="M264 384C268.418 384 272 380.418 272 376C272 371.582 268.418 368 264 368C259.582 368 256 371.582 256 376C256 380.418 259.582 384 264 384Z"></path>
<path fill="#2B1463" d="M264 400C268.418 400 272 396.418 272 392C272 387.582 268.418 384 264 384C259.582 384 256 387.582 256 392C256 396.418 259.582 400 264 400Z"></path>
<path fill="#2B1463" d="M280 32C284.418 32 288 28.4183 288 24C288 19.5817 284.418 16 280 16C275.582 16 272 19.5817 272 24C272 28.4183 275.582 32 280 32Z"></path>
<path fill="#2B1463" d="M280 64C284.418 64 288 60.4183 288 56C288 51.5817 284.418 48 280 48C275.582 48 272 51.5817 272 56C272 60.4183 275.582 64 280 64Z"></path>
<path fill="#2B1463" d="M280 128C284.418 128 288 124.418 288 120C288 115.582 284.418 112 280 112C275.582 112 272 115.582 272 120C272 124.418 275.582 128 280 128Z"></path>
<path fill="#2B1463" d="M280 160C284.418 160 288 156.418 288 152C288 147.582 284.418 144 280 144C275.582 144 272 147.582 272 152C272 156.418 275.582 160 280 160Z"></path>
<path fill="#2B1463" d="M280 320C284.418 320 288 316.418 288 312C288 307.582 284.418 304 280 304C275.582 304 272 307.582 272 312C272 316.418 275.582 320 280 320Z"></path>
<path fill="#2B1463" d="M280 368C284.418 368 288 364.418 288 360C288 355.582 284.418 352 280 352C275.582 352 272 355.582 272 360C272 364.418 275.582 368 280 368Z"></path>
<path fill="#2B1463" d="M280 384C284.418 384 288 380.418 288 376C288 371.582 284.418 368 280 368C275.582 368 272 371.582 272 376C272 380.418 275.582 384 280 384Z"></path>
<path fill="#2B1463" d="M280 416C284.418 416 288 412.418 288 408C288 403.582 284.418 400 280 400C275.582 400 272 403.582 272 408C272 412.418 275.582 416 280 416Z"></path>
<path fill="#2B1463" d="M280 432C284.418 432 288 428.418 288 424C288 419.582 284.418 416 280 416C275.582 416 272 419.582 272 424C272 428.418 275.582 432 280 432Z"></path>
<path fill="#2B1463" d="M280 464C284.418 464 288 460.418 288 456C288 451.582 284.418 448 280 448C275.582 448 272 451.582 272 456C272 460.418 275.582 464 280 464Z"></path>
<path fill="#2B1463" d="M296 16C300.418 16 304 12.4183 304 8C304 3.58172 300.418 0 296 0C291.582 0 288 3.58172 288 8C288 12.4183 291.582 16 296 16Z"></path>
<path fill="#2B1463" d="M296 32C300.418 32 304 28.4183 304 24C304 19.5817 300.418 16 296 16C291.582 16 288 19.5817 288 24C288 28.4183 291.582 32 296 32Z"></path>
<path fill="#2B1463" d="M296 64C300.418 64 304 60.4183 304 56C304 51.5817 300.418 48 296 48C291.582 48 288 51.5817 288 56C288 60.4183 291.582 64 296 64Z"></path>
<path fill="#2B1463" d="M296 80C300.418 80 304 76.4183 304 72C304 67.5817 300.418 64 296 64C291.582 64 288 67.5817 288 72C288 76.4183 291.582 80 296 80Z"></path>
<path fill="#2B1463" d="M296 112C300.418 112 304 108.418 304 104C304 99.5817 300.418 96 296 96C291.582 96 288 99.5817 288 104C288 108.418 291.582 112 296 112Z"></path>
<path fill="#2B1463" d="M296 128C300.418 128 304 124.418 304 120C304 115.582 300.418 112 296 112C291.582 112 288 115.582 288 120C288 124.418 291.582 128 296 128Z"></path>
<path fill="#2B1463" d="M296 176C300.418 176 304 172.418 304 168C304 163.582 300.418 160 296 160C291.582 160 288 163.582 288 168C288 172.418 291.582 176 296 176Z"></path>
<path fill="#2B1463" d="M296 208C300.418 208 304 204.418 304 200C304 195.582 300.418 192 296 192C291.582 192 288 195.582 288 200C288 204.418 291.582 208 296 208Z"></path>
<path fill="#2B1463" d="M296 320C300.418 320 304 316.418 304 312C304 307.582 300.418 304 296 304C291.582 304 288 307.582 288 312C288 316.418 291.582 320 296 320Z"></path>
<path fill="#2B1463" d="M296 384C300.418 384 304 380.418 304 376C304 371.582 300.418 368 296 368C291.582 368 288 371.582 288 376C288 380.418 291.582 384 296 384Z"></path>
<path fill="#2B1463" d="M296 400C300.418 400 304 396.418 304 392C304 387.582 300.418 384 296 384C291.582 384 288 387.582 288 392C288 396.418 291.582 400 296 400Z"></path>
<path fill="#2B1463" d="M296 464C300.418 464 304 460.418 304 456C304 451.582 300.418 448 296 448C291.582 448 288 451.582 288 456C288 460.418 291.582 464 296 464Z"></path>
<path fill="#2B1463" d="M312 80C316.418 80 320 76.4183 320 72C320 67.5817 316.418 64 312 64C307.582 64 304 67.5817 304 72C304 76.4183 307.582 80 312 80Z"></path>
<path fill="#2B1463" d="M312 96C316.418 96 320 92.4183 320 88C320 83.5817 316.418 80 312 80C307.582 80 304 83.5817 304 88C304 92.4183 307.582 96 312 96Z"></path>
<path fill="#2B1463" d="M312 128C316.418 128 320 124.418 320 120C320 115.582 316.418 112 312 112C307.582 112 304 115.582 304 120C304 124.418 307.582 128 312 128Z"></path>
<path fill="#2B1463" d="M312 144C316.418 144 320 140.418 320 136C320 131.582 316.418 128 312 128C307.582 128 304 131.582 304 136C304 140.418 307.582 144 312 144Z"></path>
<path fill="#2B1463" d="M312 160C316.418 160 320 156.418 320 152C320 147.582 316.418 144 312 144C307.582 144 304 147.582 304 152C304 156.418 307.582 160 312 160Z"></path>
<path fill="#2B1463" d="M312 304C316.418 304 320 300.418 320 296C320 291.582 316.418 288 312 288C307.582 288 304 291.582 304 296C304 300.418 307.582 304 312 304Z"></path>
<path fill="#2B1463" d="M312 352C316.418 352 320 348.418 320 344C320 339.582 316.418 336 312 336C307.582 336 304 339.582 304 344C304 348.418 307.582 352 312 352Z"></path>
<path fill="#2B1463" d="M312 368C316.418 368 320 364.418 320 360C320 355.582 316.418 352 312 352C307.582 352 304 355.582 304 360C304 364.418 307.582 368 312 368Z"></path>
<path fill="#2B1463" d="M312 384C316.418 384 320 380.418 320 376C320 371.582 316.418 368 312 368C307.582 368 304 371.582 304 376C304 380.418 307.582 384 312 384Z"></path>
<path fill="#2B1463" d="M312 416C316.418 416 320 412.418 320 408C320 403.582 316.418 400 312 400C307.582 400 304 403.582 304 408C304 412.418 307.582 416 312 416Z"></path>
<path fill="#2B1463" d="M328 16C332.418 16 336 12.4183 336 8C336 3.58172 332.418 0 328 0C323.582 0 320 3.58172 320 8C320 12.4183 323.582 16 328 16Z"></path>
<path fill="#2B1463" d="M328 32C332.418 32 336 28.4183 336 24C336 19.5817 332.418 16 328 16C323.582 16 320 19.5817 320 24C320 28.4183 323.582 32 328 32Z"></path>
<path fill="#2B1463" d="M328 48C332.418 48 336 44.4183 336 40C336 35.5817 332.418 32 328 32C323.582 32 320 35.5817 320 40C320 44.4183 323.582 48 328 48Z"></path>
<path fill="#2B1463" d="M328 64C332.418 64 336 60.4183 336 56C336 51.5817 332.418 48 328 48C323.582 48 320 51.5817 320 56C320 60.4183 323.582 64 328 64Z"></path>
<path fill="#2B1463" d="M328 96C332.418 96 336 92.4183 336 88C336 83.5817 332.418 80 328 80C323.582 80 320 83.5817 320 88C320 92.4183 323.582 96 328 96Z"></path>
<path fill="#2B1463" d="M328 112C332.418 112 336 108.418 336 104C336 99.5817 332.418 96 328 96C323.582 96 320 99.5817 320 104C320 108.418 323.582 112 328 112Z"></path>
<path fill="#2B1463" d="M328 144C332.418 144 336 140.418 336 136C336 131.582 332.418 128 328 128C323.582 128 320 131.582 320 136C320 140.418 323.582 144 328 144Z"></path>
<path fill="#2B1463" d="M328 160C332.418 160 336 156.418 336 152C336 147.582 332.418 144 328 144C323.582 144 320 147.582 320 152C320 156.418 323.582 160 328 160Z"></path>
<path fill="#2B1463" d="M328 192C332.418 192 336 188.418 336 184C336 179.582 332.418 176 328 176C323.582 176 320 179.582 320 184C320 188.418 323.582 192 328 192Z"></path>
<path fill="#2B1463" d="M328 224C332.418 224 336 220.418 336 216C336 211.582 332.418 208 328 208C323.582 208 320 211.582 320 216C320 220.418 323.582 224 328 224Z"></path>
<path fill="#2B1463" d="M328 256C332.418 256 336 252.418 336 248C336 243.582 332.418 240 328 240C323.582 240 320 243.582 320 248C320 252.418 323.582 256 328 256Z"></path>
<path fill="#2B1463" d="M328 272C332.418 272 336 268.418 336 264C336 259.582 332.418 256 328 256C323.582 256 320 259.582 320 264C320 268.418 323.582 272 328 272Z"></path>
<path fill="#2B1463" d="M328 336C332.418 336 336 332.418 336 328C336 323.582 332.418 320 328 320C323.582 320 320 323.582 320 328C320 332.418 323.582 336 328 336Z"></path>
<path fill="#2B1463" d="M328 352C332.418 352 336 348.418 336 344C336 339.582 332.418 336 328 336C323.582 336 320 339.582 320 344C320 348.418 323.582 352 328 352Z"></path>
<path fill="#2B1463" d="M328 368C332.418 368 336 364.418 336 360C336 355.582 332.418 352 328 352C323.582 352 320 355.582 320 360C320 364.418 323.582 368 328 368Z"></path>
<path fill="#2B1463" d="M328 384C332.418 384 336 380.418 336 376C336 371.582 332.418 368 328 368C323.582 368 320 371.582 320 376C320 380.418 323.582 384 328 384Z"></path>
<path fill="#2B1463" d="M328 400C332.418 400 336 396.418 336 392C336 387.582 332.418 384 328 384C323.582 384 320 387.582 320 392C320 396.418 323.582 400 328 400Z"></path>
<path fill="#2B1463" d="M328 416C332.418 416 336 412.418 336 408C336 403.582 332.418 400 328 400C323.582 400 320 403.582 320 408C320 412.418 323.582 416 328 416Z"></path>
<path fill="#2B1463" d="M328 432C332.418 432 336 428.418 336 424C336 419.582 332.418 416 328 416C323.582 416 320 419.582 320 424C320 428.418 323.582 432 328 432Z"></path>
<path fill="#2B1463" d="M328 448C332.418 448 336 444.418 336 440C336 435.582 332.418 432 328 432C323.582 432 320 435.582 320 440C320 444.418 323.582 448 328 448Z"></path>
<path fill="#2B1463" d="M328 464C332.418 464 336 460.418 336 456C336 451.582 332.418 448 328 448C323.582 448 320 451.582 320 456C320 460.418 323.582 464 328 464Z"></path>
<path fill="#2B1463" d="M344 144C348.418 144 352 140.418 352 136C352 131.582 348.418 128 344 128C339.582 128 336 131.582 336 136C336 140.418 339.582 144 344 144Z"></path>
<path fill="#2B1463" d="M344 208C348.418 208 352 204.418 352 200C352 195.582 348.418 192 344 192C339.582 192 336 195.582 336 200C336 204.418 339.582 208 344 208Z"></path>
<path fill="#2B1463" d="M344 240C348.418 240 352 236.418 352 232C352 227.582 348.418 224 344 224C339.582 224 336 227.582 336 232C336 236.418 339.582 240 344 240Z"></path>
<path fill="#2B1463" d="M344 272C348.418 272 352 268.418 352 264C352 259.582 348.418 256 344 256C339.582 256 336 259.582 336 264C336 268.418 339.582 272 344 272Z"></path>
<path fill="#2B1463" d="M344 288C348.418 288 352 284.418 352 280C352 275.582 348.418 272 344 272C339.582 272 336 275.582 336 280C336 284.418 339.582 288 344 288Z"></path>
<path fill="#2B1463" d="M344 336C348.418 336 352 332.418 352 328C352 323.582 348.418 320 344 320C339.582 320 336 323.582 336 328C336 332.418 339.582 336 344 336Z"></path>
<path fill="#2B1463" d="M344 400C348.418 400 352 396.418 352 392C352 387.582 348.418 384 344 384C339.582 384 336 387.582 336 392C336 396.418 339.582 400 344 400Z"></path>
<path fill="#2B1463" d="M344 416C348.418 416 352 412.418 352 408C352 403.582 348.418 400 344 400C339.582 400 336 403.582 336 408C336 412.418 339.582 416 344 416Z"></path>
<path fill="#2B1463" d="M344 464C348.418 464 352 460.418 352 456C352 451.582 348.418 448 344 448C339.582 448 336 451.582 336 456C336 460.418 339.582 464 344 464Z"></path>
<path fill="#2B1463" d="M360 176C364.418 176 368 172.418 368 168C368 163.582 364.418 160 360 160C355.582 160 352 163.582 352 168C352 172.418 355.582 176 360 176Z"></path>
<path fill="#2B1463" d="M360 240C364.418 240 368 236.418 368 232C368 227.582 364.418 224 360 224C355.582 224 352 227.582 352 232C352 236.418 355.582 240 360 240Z"></path>
<path fill="#2B1463" d="M360 288C364.418 288 368 284.418 368 280C368 275.582 364.418 272 360 272C355.582 272 352 275.582 352 280C352 284.418 355.582 288 360 288Z"></path>
<path fill="#2B1463" d="M360 336C364.418 336 368 332.418 368 328C368 323.582 364.418 320 360 320C355.582 320 352 323.582 352 328C352 332.418 355.582 336 360 336Z"></path>
<path fill="#2B1463" d="M360 368C364.418 368 368 364.418 368 360C368 355.582 364.418 352 360 352C355.582 352 352 355.582 352 360C352 364.418 355.582 368 360 368Z"></path>
<path fill="#2B1463" d="M360 400C364.418 400 368 396.418 368 392C368 387.582 364.418 384 360 384C355.582 384 352 387.582 352 392C352 396.418 355.582 400 360 400Z"></path>
<path fill="#2B1463" d="M360 416C364.418 416 368 412.418 368 408C368 403.582 364.418 400 360 400C355.582 400 352 403.582 352 408C352 412.418 355.582 416 360 416Z"></path>
<path fill="#2B1463" d="M360 432C364.418 432 368 428.418 368 424C368 419.582 364.418 416 360 416C355.582 416 352 419.582 352 424C352 428.418 355.582 432 360 432Z"></path>
<path fill="#2B1463" d="M360 464C364.418 464 368 460.418 368 456C368 451.582 364.418 448 360 448C355.582 448 352 451.582 352 456C352 460.418 355.582 464 360 464Z"></path>
<path fill="#2B1463" d="M376 208C380.418 208 384 204.418 384 200C384 195.582 380.418 192 376 192C371.582 192 368 195.582 368 200C368 204.418 371.582 208 376 208Z"></path>
<path fill="#2B1463" d="M376 256C380.418 256 384 252.418 384 248C384 243.582 380.418 240 376 240C371.582 240 368 243.582 368 248C368 252.418 371.582 256 376 256Z"></path>
<path fill="#2B1463" d="M376 272C380.418 272 384 268.418 384 264C384 259.582 380.418 256 376 256C371.582 256 368 259.582 368 264C368 268.418 371.582 272 376 272Z"></path>
<path fill="#2B1463" d="M376 304C380.418 304 384 300.418 384 296C384 291.582 380.418 288 376 288C371.582 288 368 291.582 368 296C368 300.418 371.582 304 376 304Z"></path>
<path fill="#2B1463" d="M376 320C380.418 320 384 316.418 384 312C384 307.582 380.418 304 376 304C371.582 304 368 307.582 368 312C368 316.418 371.582 320 376 320Z"></path>
<path fill="#2B1463" d="M376 336C380.418 336 384 332.418 384 328C384 323.582 380.418 320 376 320C371.582 320 368 323.582 368 328C368 332.418 371.582 336 376 336Z"></path>
<path fill="#2B1463" d="M376 400C380.418 400 384 396.418 384 392C384 387.582 380.418 384 376 384C371.582 384 368 387.582 368 392C368 396.418 371.582 400 376 400Z"></path>
<path fill="#2B1463" d="M376 416C380.418 416 384 412.418 384 408C384 403.582 380.418 400 376 400C371.582 400 368 403.582 368 408C368 412.418 371.582 416 376 416Z"></path>
<path fill="#2B1463" d="M376 448C380.418 448 384 444.418 384 440C384 435.582 380.418 432 376 432C371.582 432 368 435.582 368 440C368 444.418 371.582 448 376 448Z"></path>
<path fill="#2B1463" d="M376 464C380.418 464 384 460.418 384 456C384 451.582 380.418 448 376 448C371.582 448 368 451.582 368 456C368 460.418 371.582 464 376 464Z"></path>
<path fill="#2B1463" d="M392 160C396.418 160 400 156.418 400 152C400 147.582 396.418 144 392 144C387.582 144 384 147.582 384 152C384 156.418 387.582 160 392 160Z"></path>
<path fill="#2B1463" d="M392 176C396.418 176 400 172.418 400 168C400 163.582 396.418 160 392 160C387.582 160 384 163.582 384 168C384 172.418 387.582 176 392 176Z"></path>
<path fill="#2B1463" d="M392 224C396.418 224 400 220.418 400 216C400 211.582 396.418 208 392 208C387.582 208 384 211.582 384 216C384 220.418 387.582 224 392 224Z"></path>
<path fill="#2B1463" d="M392 320C396.418 320 400 316.418 400 312C400 307.582 396.418 304 392 304C387.582 304 384 307.582 384 312C384 316.418 387.582 320 392 320Z"></path>
<path fill="#2B1463" d="M392 336C396.418 336 400 332.418 400 328C400 323.582 396.418 320 392 320C387.582 320 384 323.582 384 328C384 332.418 387.582 336 392 336Z"></path>
<path fill="#2B1463" d="M392 352C396.418 352 400 348.418 400 344C400 339.582 396.418 336 392 336C387.582 336 384 339.582 384 344C384 348.418 387.582 352 392 352Z"></path>
<path fill="#2B1463" d="M392 368C396.418 368 400 364.418 400 360C400 355.582 396.418 352 392 352C387.582 352 384 355.582 384 360C384 364.418 387.582 368 392 368Z"></path>
<path fill="#2B1463" d="M392 384C396.418 384 400 380.418 400 376C400 371.582 396.418 368 392 368C387.582 368 384 371.582 384 376C384 380.418 387.582 384 392 384Z"></path>
<path fill="#2B1463" d="M392 400C396.418 400 400 396.418 400 392C400 387.582 396.418 384 392 384C387.582 384 384 387.582 384 392C384 396.418 387.582 400 392 400Z"></path>
<path fill="#2B1463" d="M408 176C412.418 176 416 172.418 416 168C416 163.582 412.418 160 408 160C403.582 160 400 163.582 400 168C400 172.418 403.582 176 408 176Z"></path>
<path fill="#2B1463" d="M408 192C412.418 192 416 188.418 416 184C416 179.582 412.418 176 408 176C403.582 176 400 179.582 400 184C400 188.418 403.582 192 408 192Z"></path>
<path fill="#2B1463" d="M408 256C412.418 256 416 252.418 416 248C416 243.582 412.418 240 408 240C403.582 240 400 243.582 400 248C400 252.418 403.582 256 408 256Z"></path>
<path fill="#2B1463" d="M408 272C412.418 272 416 268.418 416 264C416 259.582 412.418 256 408 256C403.582 256 400 259.582 400 264C400 268.418 403.582 272 408 272Z"></path>
<path fill="#2B1463" d="M408 288C412.418 288 416 284.418 416 280C416 275.582 412.418 272 408 272C403.582 272 400 275.582 400 280C400 284.418 403.582 288 408 288Z"></path>
<path fill="#2B1463" d="M408 304C412.418 304 416 300.418 416 296C416 291.582 412.418 288 408 288C403.582 288 400 291.582 400 296C400 300.418 403.582 304 408 304Z"></path>
<path fill="#2B1463" d="M408 320C412.418 320 416 316.418 416 312C416 307.582 412.418 304 408 304C403.582 304 400 307.582 400 312C400 316.418 403.582 320 408 320Z"></path>
<path fill="#2B1463" d="M408 336C412.418 336 416 332.418 416 328C416 323.582 412.418 320 408 320C403.582 320 400 323.582 400 328C400 332.418 403.582 336 408 336Z"></path>
<path fill="#2B1463" d="M408 384C412.418 384 416 380.418 416 376C416 371.582 412.418 368 408 368C403.582 368 400 371.582 400 376C400 380.418 403.582 384 408 384Z"></path>
<path fill="#2B1463" d="M408 400C412.418 400 416 396.418 416 392C416 387.582 412.418 384 408 384C403.582 384 400 387.582 400 392C400 396.418 403.582 400 408 400Z"></path>
<path fill="#2B1463" d="M408 432C412.418 432 416 428.418 416 424C416 419.582 412.418 416 408 416C403.582 416 400 419.582 400 424C400 428.418 403.582 432 408 432Z"></path>
<path fill="#2B1463" d="M408 464C412.418 464 416 460.418 416 456C416 451.582 412.418 448 408 448C403.582 448 400 451.582 400 456C400 460.418 403.582 464 408 464Z"></path>
<path fill="#2B1463" d="M424 144C428.418 144 432 140.418 432 136C432 131.582 428.418 128 424 128C419.582 128 416 131.582 416 136C416 140.418 419.582 144 424 144Z"></path>
<path fill="#2B1463" d="M424 192C428.418 192 432 188.418 432 184C432 179.582 428.418 176 424 176C419.582 176 416 179.582 416 184C416 188.418 419.582 192 424 192Z"></path>
<path fill="#2B1463" d="M424 256C428.418 256 432 252.418 432 248C432 243.582 428.418 240 424 240C419.582 240 416 243.582 416 248C416 252.418 419.582 256 424 256Z"></path>
<path fill="#2B1463" d="M424 272C428.418 272 432 268.418 432 264C432 259.582 428.418 256 424 256C419.582 256 416 259.582 416 264C416 268.418 419.582 272 424 272Z"></path>
<path fill="#2B1463" d="M424 352C428.418 352 432 348.418 432 344C432 339.582 428.418 336 424 336C419.582 336 416 339.582 416 344C416 348.418 419.582 352 424 352Z"></path>
<path fill="#2B1463" d="M424 400C428.418 400 432 396.418 432 392C432 387.582 428.418 384 424 384C419.582 384 416 387.582 416 392C416 396.418 419.582 400 424 400Z"></path>
<path fill="#2B1463" d="M424 416C428.418 416 432 412.418 432 408C432 403.582 428.418 400 424 400C419.582 400 416 403.582 416 408C416 412.418 419.582 416 424 416Z"></path>
<path fill="#2B1463" d="M424 448C428.418 448 432 444.418 432 440C432 435.582 428.418 432 424 432C419.582 432 416 435.582 416 440C416 444.418 419.582 448 424 448Z"></path>
<path fill="#2B1463" d="M424 464C428.418 464 432 460.418 432 456C432 451.582 428.418 448 424 448C419.582 448 416 451.582 416 456C416 460.418 419.582 464 424 464Z"></path>
<path fill="#2B1463" d="M440 144C444.418 144 448 140.418 448 136C448 131.582 444.418 128 440 128C435.582 128 432 131.582 432 136C432 140.418 435.582 144 440 144Z"></path>
<path fill="#2B1463" d="M440 192C444.418 192 448 188.418 448 184C448 179.582 444.418 176 440 176C435.582 176 432 179.582 432 184C432 188.418 435.582 192 440 192Z"></path>
<path fill="#2B1463" d="M440 208C444.418 208 448 204.418 448 200C448 195.582 444.418 192 440 192C435.582 192 432 195.582 432 200C432 204.418 435.582 208 440 208Z"></path>
<path fill="#2B1463" d="M440 240C444.418 240 448 236.418 448 232C448 227.582 444.418 224 440 224C435.582 224 432 227.582 432 232C432 236.418 435.582 240 440 240Z"></path>
<path fill="#2B1463" d="M440 256C444.418 256 448 252.418 448 248C448 243.582 444.418 240 440 240C435.582 240 432 243.582 432 248C432 252.418 435.582 256 440 256Z"></path>
<path fill="#2B1463" d="M440 272C444.418 272 448 268.418 448 264C448 259.582 444.418 256 440 256C435.582 256 432 259.582 432 264C432 268.418 435.582 272 440 272Z"></path>
<path fill="#2B1463" d="M440 336C444.418 336 448 332.418 448 328C448 323.582 444.418 320 440 320C435.582 320 432 323.582 432 328C432 332.418 435.582 336 440 336Z"></path>
<path fill="#2B1463" d="M440 352C444.418 352 448 348.418 448 344C448 339.582 444.418 336 440 336C435.582 336 432 339.582 432 344C432 348.418 435.582 352 440 352Z"></path>
<path fill="#2B1463" d="M440 368C444.418 368 448 364.418 448 360C448 355.582 444.418 352 440 352C435.582 352 432 355.582 432 360C432 364.418 435.582 368 440 368Z"></path>
<path fill="#2B1463" d="M440 416C444.418 416 448 412.418 448 408C448 403.582 444.418 400 440 400C435.582 400 432 403.582 432 408C432 412.418 435.582 416 440 416Z"></path>
<path fill="#2B1463" d="M456 160C460.418 160 464 156.418 464 152C464 147.582 460.418 144 456 144C451.582 144 448 147.582 448 152C448 156.418 451.582 160 456 160Z"></path>
<path fill="#2B1463" d="M456 176C460.418 176 464 172.418 464 168C464 163.582 460.418 160 456 160C451.582 160 448 163.582 448 168C448 172.418 451.582 176 456 176Z"></path>
<path fill="#2B1463" d="M456 192C460.418 192 464 188.418 464 184C464 179.582 460.418 176 456 176C451.582 176 448 179.582 448 184C448 188.418 451.582 192 456 192Z"></path>
<path fill="#2B1463" d="M456 208C460.418 208 464 204.418 464 200C464 195.582 460.418 192 456 192C451.582 192 448 195.582 448 200C448 204.418 451.582 208 456 208Z"></path>
<path fill="#2B1463" d="M456 224C460.418 224 464 220.418 464 216C464 211.582 460.418 208 456 208C451.582 208 448 211.582 448 216C448 220.418 451.582 224 456 224Z"></path>
<path fill="#2B1463" d="M456 256C460.418 256 464 252.418 464 248C464 243.582 460.418 240 456 240C451.582 240 448 243.582 448 248C448 252.418 451.582 256 456 256Z"></path>
<path fill="#2B1463" d="M456 272C460.418 272 464 268.418 464 264C464 259.582 460.418 256 456 256C451.582 256 448 259.582 448 264C448 268.418 451.582 272 456 272Z"></path>
<path fill="#2B1463" d="M456 304C460.418 304 464 300.418 464 296C464 291.582 460.418 288 456 288C451.582 288 448 291.582 448 296C448 300.418 451.582 304 456 304Z"></path>
<path fill="#2B1463" d="M456 336C460.418 336 464 332.418 464 328C464 323.582 460.418 320 456 320C451.582 320 448 323.582 448 328C448 332.418 451.582 336 456 336Z"></path>
<path fill="#2B1463" d="M456 384C460.418 384 464 380.418 464 376C464 371.582 460.418 368 456 368C451.582 368 448 371.582 448 376C448 380.418 451.582 384 456 384Z"></path>
<path fill="#2B1463" d="M456 400C460.418 400 464 396.418 464 392C464 387.582 460.418 384 456 384C451.582 384 448 387.582 448 392C448 396.418 451.582 400 456 400Z"></path>
<path fill="#2B1463" d="M456 416C460.418 416 464 412.418 464 408C464 403.582 460.418 400 456 400C451.582 400 448 403.582 448 408C448 412.418 451.582 416 456 416Z"></path>
<path fill="#2B1463" d="M456 432C460.418 432 464 428.418 464 424C464 419.582 460.418 416 456 416C451.582 416 448 419.582 448 424C448 428.418 451.582 432 456 432Z"></path>
<path fill="#2B1463" d="M456 464C460.418 464 464 460.418 464 456C464 451.582 460.418 448 456 448C451.582 448 448 451.582 448 456C448 460.418 451.582 464 456 464Z"></path>
<path fill="#2B1463" d="M0 40V72C0 82.6087 4.21427 92.7828 11.7157 100.284C15.4301 103.999 19.8396 106.945 24.6927 108.955C29.5457 110.965 34.7471 112 40 112H72C82.6087 112 92.7828 107.786 100.284 100.284C107.786 92.7828 112 82.6087 112 72V40C112 34.7471 110.965 29.5457 108.955 24.6927C106.945 19.8396 103.999 15.4301 100.284 11.7157C96.5699 8.00139 92.1604 5.05501 87.3073 3.04482C82.4543 1.03463 77.2529 0 72 0H40C34.7471 0 29.5457 1.03463 24.6927 3.04482C19.8396 5.05501 15.4301 8.00139 11.7157 11.7157C4.21427 19.2172 0 29.3913 0 40ZM40 16H72C78.3652 16 84.4697 18.5286 88.9706 23.0294C93.4714 27.5303 96 33.6348 96 40V72C96 78.3652 93.4714 84.4697 88.9706 88.9706C84.4697 93.4714 78.3652 96 72 96H40C33.6348 96 27.5303 93.4714 23.0294 88.9706C18.5286 84.4697 16 78.3652 16 72V40C16 33.6348 18.5286 27.5303 23.0294 23.0294C27.5303 18.5286 33.6348 16 40 16Z" clip-rule="evenodd" fill-rule="evenodd"></path>
<path fill="#2B1463" d="M56 80C69.2548 80 80 69.2548 80 56C80 42.7452 69.2548 32 56 32C42.7452 32 32 42.7452 32 56C32 69.2548 42.7452 80 56 80Z"></path>
<path fill="#2B1463" d="M424 0L392 0C381.391 0 371.217 4.21427 363.716 11.7157C356.214 19.2172 352 29.3913 352 40V72C352 82.6087 356.214 92.7828 363.716 100.284C371.217 107.786 381.391 112 392 112H424C429.253 112 434.454 110.965 439.307 108.955C444.16 106.945 448.57 103.999 452.284 100.284C455.999 96.5699 458.945 92.1604 460.955 87.3073C462.965 82.4543 464 77.2529 464 72V40C464 29.3913 459.786 19.2172 452.284 11.7157C444.783 4.21427 434.609 0 424 0ZM448 40V72C448 78.3652 445.471 84.4697 440.971 88.9706C436.47 93.4714 430.365 96 424 96H392C385.635 96 379.53 93.4714 375.029 88.9706C370.529 84.4697 368 78.3652 368 72V40C368 33.6348 370.529 27.5303 375.029 23.0294C379.53 18.5286 385.635 16 392 16H424C430.365 16 436.47 18.5286 440.971 23.0294C445.471 27.5303 448 33.6348 448 40Z" clip-rule="evenodd" fill-rule="evenodd"></path>
<path fill="#2B1463" d="M384 56C384 69.2548 394.745 80 408 80C421.255 80 432 69.2548 432 56C432 42.7452 421.255 32 408 32C394.745 32 384 42.7452 384 56Z"></path>
<path fill="#2B1463" d="M40 464H72C82.6087 464 92.7828 459.786 100.284 452.284C103.999 448.57 106.945 444.16 108.955 439.307C110.965 434.454 112 429.253 112 424V392C112 381.391 107.786 371.217 100.284 363.716C92.7828 356.214 82.6087 352 72 352H40C29.3913 352 19.2172 356.214 11.7157 363.716C4.21427 371.217 0 381.391 0 392L0 424C0 429.253 1.03464 434.454 3.04483 439.307C5.05502 444.16 8.00139 448.57 11.7157 452.284C19.2172 459.786 29.3913 464 40 464ZM16 424V392C16 385.635 18.5286 379.53 23.0294 375.029C27.5303 370.529 33.6348 368 40 368H72C78.3652 368 84.4697 370.529 88.9706 375.029C93.4714 379.53 96 385.635 96 392V424C96 430.365 93.4714 436.47 88.9706 440.971C84.4697 445.471 78.3652 448 72 448H40C33.6348 448 27.5303 445.471 23.0294 440.971C18.5286 436.47 16 430.365 16 424Z" clip-rule="evenodd" fill-rule="evenodd"></path>
<path fill="#2B1463" d="M80 408C80 394.745 69.2548 384 56 384C42.7452 384 32 394.745 32 408C32 421.255 42.7452 432 56 432C69.2548 432 80 421.255 80 408Z"></path>
<path fill="#5841D8" d="M232.487 189.62C201.841 189.62 177 214.424 177 245.022V268.764C177 273.131 180.545 276.669 184.921 276.669C189.297 276.669 192.868 273.131 192.868 268.764V245.022C192.868 240.642 196.4 237.104 200.789 237.104C205.166 237.104 208.711 240.642 208.711 245.022V268.764C208.711 273.131 212.256 276.669 216.632 276.669C221.021 276.669 224.566 273.131 224.566 268.764V245.022C224.566 240.642 228.111 237.104 232.487 237.104C236.876 237.104 240.434 240.642 240.434 245.022V268.764C240.434 273.131 243.979 276.669 248.355 276.669C252.731 276.669 256.276 273.131 256.276 268.764V245.022C256.276 240.642 259.821 237.104 264.224 237.104C268.6 237.104 272.145 240.642 272.145 245.022V268.764C272.145 273.131 275.69 276.669 280.079 276.669C284.455 276.669 288 273.131 288 268.764V245.022C288 214.424 263.146 189.62 232.487 189.62Z"></path>
</svg>
