<svg width="221" height="36" viewBox="0 0 221 36" fill="none" xmlns="http://www.w3.org/2000/svg">
<g clip-path="url(#clip0_17_10)">
<path d="M0 1.47812L0.867738 0.962692L1.62109 1.08733L2.39551 1.10226L3.13507 1.24118L3.84563 1.0341L4.89119 0.965938L5.37903 0.768596L6.15372 0.886741L6.89728 0.806895L7.63493 0.192149L8.44174 0.0155796L9.11725 0.0363525L9.89281 0.166183L10.6481 0L11.3688 0.68096L12.1179 1.05812L13.0782 1.10875L13.7868 1.0737L14.5579 1.07564L15.3307 0.823773L15.9387 0.744577L16.6932 0.310944L17.644 0.196693L18.3258 0.303154L19.1223 0.253169L19.8714 0.134374L20.5688 0.407667L21.3609 0.385596L22.3718 0.930234L22.8764 1.56446L23.622 2.94974L24.3986 2.87639L25.3113 3.85401L26.0946 3.96632L26.6995 6.35455L27.5679 12.7357L28.2393 10.2735L29.0461 18.5417L29.863 19.655L30.5364 20.0971L31.3583 19.7024L32.1024 20.3236L33.0719 19.3876L33.6979 18.9299L34.465 18.2392L35.2495 18.5631L36.0699 17.7063L36.8177 16.8241L37.4427 17.7887L38.234 18.3476L39.0063 18.0334L39.7913 17.9581L40.6333 18.1321L41.2519 17.8828L42.0913 18.0172L42.9101 18.53L43.8837 18.7196L44.3602 19.124L45.189 19.1032L45.9568 19.5128L46.779 19.9893L47.5873 20.0211L48.291 19.4655L49.117 19.1902L49.7923 18.3651L50.6058 19.2292L51.269 19.5596L52.1025 20.0354L52.7971 20.1373L53.5908 19.6277L54.3639 19.5505L55.1126 19.1733L56.029 19.5752L56.6773 19.4343L57.5387 19.3785L58.1671 19.2318L59.0175 19.4622L59.862 21.1656L60.7466 21.1916L61.3993 21.0059L62.2422 21.461L62.9335 22.1387L63.5952 23.1176L64.5119 23.4396L65.2077 21.7816L66.057 20.4269L66.7083 20.1503L67.5529 20.8417L68.4321 20.9475L69.1902 21.1727L69.8237 22.1575L70.4672 22.0679L71.1495 22.029L71.9795 22.6476L72.806 22.0997L73.5261 21.927L74.3341 22.5619L75.0162 22.8962L75.8402 24.4211L76.5282 25.3416L77.3858 24.9742L78.1286 25.067L79.047 28.2446L79.5623 27.9544L80.4537 28.0375L81.1752 27.7012L82.0127 27.3364L82.7825 25.5071L83.4495 25.3565L84.3142 24.6334L85.0156 24.0439L86.0482 23.5532L86.79 23.7947L87.5544 24.8424L88.2381 25.4935L89.1004 25.3487L89.7973 25.7765L90.4832 25.4123L91.3795 25.4805L92.0892 25.2332L92.9177 25.8473L93.6045 25.7583L94.4916 25.5506L95.1647 25.8258L96.0109 26.1718L96.6755 25.9726L97.4105 26.1277L98.2717 25.7103L98.9605 25.6292L99.7784 25.3533L100.515 25.5941L101.293 25.6772L102.129 25.979L102.951 26.0855L103.66 26.2199L104.486 26.3939L106.082 27.1975L106.629 27.2812L107.466 27.6428L108.428 28.6899L108.918 28.5646L109.851 28.3556L110.544 28.231L111.434 28.7821L111.975 28.7879L112.793 29.2066L113.639 28.3783L114.32 28.9762L115.091 28.7211L115.955 29.1988L116.686 29.3196L117.339 29.5578L118.173 29.4345L119.133 29.4163L119.686 29.2079L120.509 29.3378L121.216 29.6961L121.901 30.5017L122.734 30.4842L123.532 30.5049L124.303 30.466L125.223 30.3952L125.918 30.5504L126.576 31.5325L127.228 30.3251L128.068 30.786L128.848 30.899L129.536 31.3962L130.231 31.6909L131.29 31.8565L131.774 31.6494L132.588 31.5572L133.406 31.6786L134.134 31.4605L134.836 31.4813L135.685 31.7675L136.411 30.7776L137.28 30.9834L138.064 31.3352L138.757 31.0509L139.458 31.0249L140.32 31.811L141.036 32.6718L141.86 32.8166L142.666 32.1953L143.376 32.144L144.135 32.2752L145.139 32.9217L145.694 32.7581L146.541 32.4595L147.275 31.9551L148.03 29.1885L148.875 30.8691L149.556 30.0291L150.382 30.59L151.408 30.7458L151.896 30.9541L152.701 31.1911L153.441 30.899L154.181 31.008L154.918 31.5286L155.782 32.1629L156.582 32.1557L157.305 32.1752L158.084 32.5108L158.816 33.9591L159.579 34.209L160.384 33.4813L161.181 32.8237L161.919 31.4572L162.692 31.4618L163.452 31.787L164.203 31.8454L164.99 32.4861L165.682 32.4784L166.54 32.146L167.165 31.8941L168.015 31.6039L168.816 31.5092L169.612 31.8344L170.284 31.8474L171.178 31.8058L171.93 31.6247L172.529 31.7695L173.414 31.7922L174.079 32.2408L174.827 32.3219L175.39 32.2304L176.46 32.1661L177.284 32.5582L178.048 32.9477L179.553 33.0503L179.859 32.6406L180.325 32.4154L181.112 31.4293L181.882 31.7662L182.646 32.4264L183.402 32.3278L184.125 31.9512L185.029 31.8162L185.645 31.6137L186.266 30.3874L187.188 30.3446L188.014 30.44L188.787 30.5348L189.567 30.1778L190.323 29.5955L191.093 29.874L191.863 30.12L192.783 30.3965L193.717 31.615L194.254 31.7072L195.003 31.7253L195.744 31.3806L196.458 31.6371L197.32 31.5215L197.999 31.4358L198.897 31.2359L199.502 31.0054L200.427 30.6367L201.066 30.6426L201.806 30.3517L202.618 30.1888L203.376 30.2719L204.12 30.8879L204.867 30.8691L205.624 30.8289L206.604 31.0314L207.24 31.0113L207.974 31.084L208.699 31.2592L209.457 31.6585L210.198 31.5592L211.234 31.7948L211.667 34.8822L212.588 35.6566L213.393 36L214.288 35.73L214.928 35.5527L215.677 34.6381L216.457 33.876L217.149 33.7052L217.92 33.5202L218.698 33.4748L219.468 33.2177L220.215 32.688L221 32.814" stroke="#FB7273" stroke-width="1.5"/>
</g>
<defs>
<clipPath id="clip0_17_10">
<rect width="221" height="36" fill="white"/>
</clipPath>
</defs>
</svg>
