<svg width="221" height="36" viewBox="0 0 221 36" fill="none" xmlns="http://www.w3.org/2000/svg">
<path d="M0 25.1303L0.658694 24.386L1.42265 24.4593L2.18581 24.4344L3.02197 24.5638L3.78009 24.769L4.55003 24.9653L5.3923 24.5542L6.40374 25.7109L6.89837 25.9378L7.66019 25.8868L8.40292 26.4757L9.1666 27.0333L9.94865 27.5151L10.6857 27.5387L11.533 26.491L12.2575 26.2316L13.0462 26.078L13.7216 28.3907L14.5965 29.6016L15.3526 29.5748L16.1142 29.8992L16.8154 28.9331L17.5879 28.6495L18.3453 29.2498L19.3853 30.6155L19.8853 26.8064L20.703 27.0594L21.5343 26.3578L22.2846 28.2888L23.0088 27.4227L23.8759 26.352L24.6015 28.6775L25.2972 27.7687L26.1061 28.2365L26.9754 28.7973L27.5988 30.4211L28.3044 29.8826L29.1389 30.5435L29.9777 30.7889L30.8267 29.5952L31.5183 29.8775L32.3111 30.4333L33.079 29.7055L33.8226 28.5851L34.7319 29.1899L35.3015 28.696L36.1129 29.0739L36.9377 29.968L37.7073 29.8393L38.5137 30.0247L39.265 30.2695L39.9996 29.9757L40.7611 29.3543L41.4675 28.7285L42.2994 30.6091L43.0026 30.293L43.8528 29.2141L44.597 29.8788L45.6356 30.1643L46.158 29.6742L46.9481 29.1721L47.7032 30.309L48.4209 29.0739L49.1753 29.3377L49.8819 28.5596L50.6396 28.5443L51.6436 28.1932L52.3492 28.2454L53.0363 29.4499L53.9483 29.9731L54.6127 28.3965L55.3336 36L56.007 30.6952L56.8226 24.5619L57.7092 25.7613L58.4441 25.637L59.104 27.1614L60.0074 24.9226L60.7185 24.6135L61.5321 26.5942L62.1983 25.9372L63.018 24.7167L63.8593 26.9734L64.6073 26.7752L65.259 26.5751L66.0755 25.7536L66.9462 22.8724L67.7054 23.4434L68.5101 24.3637L69.2019 22.3282L70.1051 23.8959L70.6674 25.5771L71.5577 18.5076L72.3204 17.0412L73.1088 0L73.8344 1.14904L74.8765 11.2769L75.3927 12.6012L76.139 12.3475L76.871 12.9358L77.7556 17.1725L78.504 16.0075L79.4204 15.5391L80.0946 15.6774L80.9468 14.9267L81.5098 14.5507L82.3034 15.3734L83.1318 14.8158L83.9448 15.694L84.6561 14.7208L85.3505 14.0861L86.1348 15.2109L86.9592 15.6564L87.6838 14.5685L88.5173 14.5009L89.2847 15.6302L90.069 14.6711L90.8416 15.534L91.6376 15.2472L92.364 15.4263L93.1453 12.8688L93.9222 13.4239L94.6292 13.0842L95.4083 13.2875L96.1582 13.5922L96.9536 12.635L97.722 12.9574L98.5483 10.516L99.34 16.8583L100.022 21.2486L100.793 24.8805L101.62 26.4113L102.453 25.2259L103.133 25.6325L103.938 26.8262L104.619 28.1161L105.463 26.4368L106.097 26.9536L107.772 27.2066L108.48 27.1748L109.141 26.0901L110.078 25.5707L110.811 25.3209L111.773 25.363L112.349 26.0022L113.332 26.5713L113.864 26.6649L114.698 25.289L115.467 26.9046L116.165 26.0041L116.836 25.4853L117.763 26.3546L118.548 26.6739L119.292 26.0831L120.089 26.9109L120.925 26.5566L121.497 27.4813L122.373 26.6637L123.169 27.5591L123.941 27.2079L124.673 26.8345L125.359 26.5942L126.217 28.2218L127.031 26.5674L127.749 27.5699L128.505 22.7278L129.241 22.9463L130.029 21.9757L130.817 22.2938L131.579 21.9496L132.264 21.9789L133.38 22.0758L133.86 22.4582L134.713 22.7258L135.411 22.2517L136.192 22.1249L136.97 22.548L137.824 23.2656L138.534 22.7488L139.369 21.1549L140.124 18.7663L140.823 13.264L141.662 9.95705L142.367 10.008L143.112 12.3533L144.021 11.477L144.789 9.80219L145.518 11.108L146.32 11.2476L147.088 10.7671L147.812 12.3539L148.546 12.4023L149.211 12.2889L150.06 12.5273L150.88 10.2094L151.626 11.1507L152.413 10.421L153.338 12.3233L153.891 12.4094L154.728 12.273L155.44 11.7606L156.184 11.5267L156.995 12.7815L157.809 12.4667L158.562 12.4935L159.286 12.0359L160.089 12.5049L160.827 13.1881L161.61 14.0306L162.434 15.6666L163.11 15.0975L163.892 15.5429L164.695 14.7068L165.473 14.9222L166.191 14.8279L167.224 14.9878L167.776 14.7947L168.597 15.0414L169.297 14.6341L170.093 14.5908L170.898 14.984L171.598 14.3818L172.417 14.5252L173.187 15.0994L173.951 15.6806L174.712 15.4212L175.498 14.4908L176.249 14.8241L177.012 15.6277L177.841 14.8355L178.525 14.6749L179.301 13.7744L180.111 13.2952L181.613 14.2282L182.409 13.6253L183.294 13.2946L183.933 14.3773L184.74 14.1976L185.583 14.0956L186.339 11.3572L187.254 9.90607L187.779 9.63012L188.631 8.07449L189.277 8.69267L190.131 7.54681L190.981 7.79536L191.645 7.40534L192.525 7.60799L193.165 7.39068L194.052 7.37984L194.9 8.02415L195.763 7.43146L196.337 8.00375L196.981 7.95914L197.915 7.7208L198.51 8.28926L199.378 5.52978L200.169 0.00318646L200.975 1.10252L201.684 5.66999L202.42 6.02942L203.269 7.22434L203.996 8.049L204.698 8.19813L205.488 6.65206L206.276 8.78444L207.064 7.59843L207.828 8.18984L208.857 7.99802L209.351 8.49765L210.159 8.56011L210.915 9.02788L211.676 7.74884L212.529 8.27588L213.394 8.35299L214.046 6.98409L214.837 4.14431L215.55 5.11746L216.478 5.78661L217.024 5.48008L218.039 5.9931L218.636 5.23982L219.325 5.92937L220.225 6.62274L221 4.24309" stroke="#67C570" stroke-width="1.5"/>
</svg>
