<svg width="221" height="36" viewBox="0 0 221 36" fill="none" xmlns="http://www.w3.org/2000/svg">
<g clip-path="url(#clip0_19_6)">
<path d="M0 6.01909L0.799217 6.79199L1.56315 7.62746L2.32613 6.94192L3.07539 7.09146L3.95678 5.90614L4.63779 3.49339L5.39609 6.34296L6.16844 7.38347L7.11124 10.2673L7.80796 7.01787L8.54637 7.10839L9.24167 10.1067L10.1541 11.9827L10.7879 11.2133L11.6111 8.31535L12.3034 5.90457L13.1996 3.30528L13.9021 3.54376L14.7453 5.50749L15.3713 8.11504L16.1736 7.46689L16.9598 5.68458L17.806 4.71925L18.453 6.02853L19.242 4.41072L20.072 1.82521L20.776 1.44702L21.5502 3.20572L22.4346 6.21428L23.177 6.89352L23.8384 5.19109L24.6636 5.53858L25.4914 5.2879L26.1175 4.76529L26.9975 5.38314L27.6833 5.41029L28.4665 2.71498L29.306 1.13259L29.9717 1.40216L30.7897 2.29666L31.4859 3.36864L32.2801 3.1337L33.1202 3.66222L33.9361 4.33988L34.6275 5.82075L35.4176 5.17889L36.2967 5.59407L36.9502 6.04703L37.7821 10.1634L38.4493 11.2881L39.275 16.5638L40.0807 18.2709L40.9593 16.9054L41.5149 19.2099L42.5558 21.2964L43.0739 20.156L43.8955 22.4357L44.6021 18.4772L45.5196 14.6748L46.1946 12.8481L47.018 13.4033L47.7162 13.3553L48.578 15.044L49.2298 14.2235L49.9682 14.0322L50.8953 16.7598L51.5811 16.7787L52.4152 16.6024L53.113 17.2289L53.7992 17.369L54.7131 18.7219L55.3865 18.0399L56.1478 18.9219L57.0339 20.0895L57.6994 19.3244L58.5258 19.2737L59.2906 19.4685L60.0404 19.7766L60.7713 21.0131L61.5784 20.9104L62.2847 20.0257L63.097 18.5653L63.8438 17.6012L64.5775 17.2104L65.3742 16.0924L66.1751 15.0633L66.9649 14.225L67.7737 15.5068L68.8639 17.3552L70.0502 19.999L70.7241 22.0874L71.675 22.5837L72.3186 24.3227L73.3356 24.0051L73.8471 21.4263L74.8351 22.6305L75.3147 21.6207L76.1359 21.3763L76.9065 18.1344L77.7725 19.1249L78.4884 19.5763L79.1867 21.8159L79.9878 21.2382L80.7749 22.0386L81.6354 22.2661L82.4036 22.9752L83.1273 22.1055L83.7895 23.7828L84.6499 23.4971L85.363 23.6454L86.1501 22.5168L86.9704 22.5459L87.7007 22.2704L88.5704 21.6105L89.286 21.3897L90.0685 19.9549L90.7292 19.5519L91.6161 20.5082L92.2851 20.7282L93.1197 22.1528L93.799 22.8599L94.7406 24.2086L95.3276 24.1204L96.1563 24.8115L97.0073 24.0846L97.728 22.6466L98.4363 21.3256L99.2295 20.5176L99.9368 18.8262L100.843 18.9455L101.572 18.6582L102.389 15.8188L103.049 16.0656L103.868 17.8538L104.568 19.3236L105.477 19.592L106.182 15.9664L106.921 17.158L107.641 17.1608L108.724 15.1447L109.211 14.6382L109.92 13.8614L110.713 10.81L111.52 12.305L112.291 13.5013L113.089 13.8087L113.862 12.7638L114.845 15.0322L115.32 13.6949L116.102 12.3255L116.847 10.7053L117.737 11.5954L118.442 12.1287L119.223 12.2074L119.959 12.3668L120.698 14.0416L121.479 16.3021L122.237 17.6747L123.118 17.4386L123.932 18.753L124.541 19.5456L125.32 19.2434L126.099 19.5358L126.879 18.8668L127.644 18.9541L128.601 17.2214L129.214 15.9786L129.976 15.3777L130.733 16.2655L131.476 15.7567L132.365 14.9283L133.051 14.8421L133.818 15.2699L134.592 14.6977L135.336 15.3187L136.231 15.3403L137.002 15.7177L137.664 16.3198L138.515 15.7838L139.254 14.1491L139.954 13.8716L140.858 12.6072L141.591 13.305L143.035 13.961L143.798 13.0814L144.697 12.7308L145.441 9.74584L146.215 8.98593L146.885 8.21067L147.928 5.50198L148.566 5.93408L149.177 5.08405L149.947 3.95107L150.758 3.34464L151.641 1.98104L152.295 1.53596L153.062 0.9067L153.799 0L154.592 0.312859L155.439 2.96448L156.25 6.7727L157.174 8.29016L157.611 7.53616L158.386 8.84032L159.275 9.27439L159.894 10.8001L160.733 11.7174L161.485 11.2661L162.232 9.48218L162.995 10.5904L163.863 13.8122L164.566 13.7977L165.324 12.9276L166.076 12.6958L166.818 12.5785L167.732 16.8652L168.501 16.3415L169.23 16.7995L170.206 16.5508L170.793 15.7905L171.543 18.535L172.266 19.4685L173.143 20.6624L173.773 21.4893L174.732 21.5739L175.309 22.5054L176.212 22.4896L176.889 23.0362L177.889 22.4487L178.353 22.5034L179.372 21.1729L180.054 21.5428L180.711 22.1972L181.452 20.9828L182.22 19.5543L182.977 20.3185L183.785 20.3531L184.518 20.3028L185.426 23.2192L186.052 25.2947L186.837 27.4879L187.57 27.9389L188.395 28.1384L189.194 28.5906L189.928 31.171L190.688 30.097L191.461 31.474L192.224 32.2532L193.04 31.0313L193.826 32.86L194.551 33.982L195.341 33.3141L196.071 33.4078L196.84 33.8395L197.842 34.2043L198.48 33.2685L199.236 32.0666L200.018 30.522L200.671 31.2386L201.439 30.8593L202.254 30.134L203.007 30.6499L203.953 30.8805L204.553 30.8853L205.331 31.4464L206.081 31.7601L206.973 31.923L207.641 32.6502L208.396 33.2708L209.143 32.2882L209.923 33.6664L210.665 34.2917L211.473 34.9079L212.254 34.1764L212.988 33.7958L213.74 36L214.525 33.5534L215.294 32.5704L216.14 30.2753L216.917 33.4412L217.847 30.7007L218.503 30.8679L219.291 32.006L219.904 30.3599L220.811 30.5948L221 30.6629" stroke="#FB7273" stroke-width="1.5"/>
</g>
<defs>
<clipPath id="clip0_19_6">
<rect width="221" height="36" fill="white"/>
</clipPath>
</defs>
</svg>
