<svg width="221" height="36" viewBox="0 0 221 36" fill="none" xmlns="http://www.w3.org/2000/svg">
<g clip-path="url(#clip0_17_16)">
<path d="M0 13.2118L0.512792 12.875L1.29171 12.8825L2.02549 12.8316L2.82473 12.8466L3.57198 11.9539L4.45055 12.2921L5.1508 12.5016L5.88902 12.7396L6.67599 11.7406L7.47843 8.91338L8.08181 9.95207L8.8571 10.2087L9.60672 5.24206L10.3561 0L11.2617 2.4882L12.0183 4.85368L12.9941 6.96173L13.6244 8.57588L14.376 7.65693L15.0282 6.19095L15.7778 7.90463L16.5542 8.1179L17.5627 8.5916L18.1017 9.31449L18.8512 14.579L19.6204 13.7783L20.5379 14.8379L21.2909 15.2488L22.0634 15.144L22.7899 15.4358L23.4674 16.4132L24.2577 18.6297L25.0362 18.5908L25.7704 19.2883L26.5638 18.7263L27.3549 19.28L28.3228 17.2932L28.7917 16.6923L29.6338 15.6409L30.4246 15.81L31.4275 16.7529L32.1144 16.69L32.7978 16.9265L33.6227 17.716L34.4183 17.7347L35.1687 19.3399L36.0636 18.7046L36.6575 18.5788L37.4853 18.9395L38.3225 19.3691L39.1429 20.0403L39.8065 19.7208L40.4896 19.2419L41.2983 18.8976L42.1399 18.1426L42.7935 17.6487L43.6449 16.6646L44.3549 16.2717L45.2103 16.8958L45.9753 18.0064L46.6429 19.1962L47.5049 21.3694L48.1899 21.7705L49.0163 21.3783L49.6574 21.3245L50.4384 21.2653L51.2446 21.3724L52.0825 20.9952L52.7628 21.2399L53.6148 21.2728L54.4609 21.4195L55.0702 21.9478L55.9404 23.5066L56.7359 23.1886L57.51 22.9566L58.2952 22.9573L58.946 21.5939L59.6738 21.4262L60.5071 20.853L61.3417 20.8448L62.1203 21.0633L62.9087 22.5592L63.5333 22.4178L64.3614 22.9409L65.0729 22.8481L65.8786 24.1666L66.7613 26.0681L67.4423 25.7217L68.2638 25.8107L68.9956 26.012L69.7754 27.136L70.4594 27.2445L71.2042 27.6366L72.0639 27.8828L72.9295 27.1697L73.5265 27.9128L74.6335 28.4927L75.1694 28.1096L76.0001 28.4014L76.6923 27.8836L77.3711 27.4346L78.1511 26.9946L79.0378 26.4857L79.8348 26.36L80.5779 26.6444L81.2253 26.5074L82.1865 26.4251L82.9012 26.5523L83.6119 26.916L84.4234 26.7461L85.1127 27.5349L85.9856 27.7481L86.6402 28.0228L87.4273 28.0976L88.3239 27.9771L88.9865 28.1605L89.8322 27.832L90.5462 27.8424L91.4034 28.1829L92.0592 28.1994L92.835 29.054L93.5594 30.0208L94.4315 29.3481L95.208 29.4805L95.8917 29.3264L96.6901 29.2688L97.495 29.0824L98.1207 28.2533L98.8934 28.1141L99.6822 28.3588L101.268 29.4566L101.936 29.5838L102.801 30.1787L103.774 30.8148L104.411 32.2741L105.229 32.2277L105.814 32.2217L106.884 32.0967L107.382 31.754L108.154 31.3484L109.009 30.9607L109.834 31.0371L110.443 30.9166L111.268 31.2488L112.106 32.3399L112.757 32.2696L113.596 32.3511L114.45 32.4679L115.07 32.5479L115.912 32.28L116.613 32.5824L117.344 31.8408L118.14 31.7368L119.061 31.5459L119.683 31.5691L120.545 31.5152L121.211 31.2107L121.981 30.7302L122.778 30.6674L123.662 30.7355L124.271 31.0221L125.071 31.2032L125.908 31.4045L126.773 31.7008L127.423 31.5833L128.202 31.9066L128.984 31.2152L129.75 30.8866L130.438 30.8612L131.288 31.0468L131.979 30.7931L132.851 30.8492L133.659 30.9952L134.333 30.6285L135.177 30.9315L135.841 30.7856L136.664 31.1942L137.519 31.2429L138.124 30.6794L138.836 30.4152L139.63 30.7235L140.75 30.5147L141.26 30.3613L142.146 30.2251L142.861 29.9542L143.685 30.0193L144.46 30.2648L145.226 29.9662L145.993 29.8502L146.971 30.2304L147.495 29.943L148.283 29.9206L149.069 29.607L149.816 29.4184L150.562 29.5494L151.358 29.6407L152.145 29.5007L152.89 29.5479L153.669 29.8906L154.429 30.0949L155.185 30.4594L156.139 31.7727L156.783 32.0757L157.534 32.1304L158.321 32.2404L159.088 32.0757L159.841 32.096L160.595 32.1004L161.291 31.846L162.038 31.3738L162.917 31.3626L163.707 31.3529L164.454 30.9173L165.231 31.1082L165.918 31.1239L166.745 31.1538L167.546 31.1403L168.294 31.3805L169.074 31.4689L169.88 31.522L170.606 31.4629L171.329 31.4067L172.159 31.4733L172.934 31.2346L173.697 31.0558L175.144 30.5447L175.442 30.4983L175.91 30.3561L176.695 30.3576L177.544 30.1974L178.329 29.9879L179.066 28.9103L179.757 28.9013L180.789 29.0143L181.378 28.9792L182.065 29.0121L182.945 28.822L183.624 28.6723L184.501 28.5167L185.249 28.4763L186.002 28.4418L186.782 28.5713L187.538 28.5316L188.417 28.7883L189.252 28.92L189.825 28.9372L190.63 29.595L191.384 29.5673L192.154 29.7799L192.762 29.8959L193.702 30.2842L194.459 30.1967L195.241 30.1226L195.826 30.2745L196.596 30.3306L197.378 30.4945L198.175 30.707L198.894 30.4915L199.67 31.061L200.471 31.1007L201.188 31.1171L202.269 31.0288L202.776 31.51L203.532 31.4733L204.281 31.8303L205.188 32.1206L205.81 32.1805L206.747 32.7006L207.306 33.4774L208.114 34.3941L208.887 34.4554L210.009 34.2354L210.625 34.0805L211.37 33.3973L212.207 33.5298L213.007 33.4212L213.732 33.4138L214.456 33.5776L215.271 33.4706L216.017 33.3816L216.681 33.3292L217.546 33.8164L218.166 34.9658L219.082 35.795L219.69 35.8047L220.616 35.7583L221 36" stroke="#FB7273" stroke-width="1.5"/>
</g>
<defs>
<clipPath id="clip0_17_16">
<rect width="221" height="36" fill="white"/>
</clipPath>
</defs>
</svg>
