<svg viewBox="0 0 596 586" xmlns="http://www.w3.org/2000/svg" fill="#000000">
<path fill-rule="evenodd" clip-rule="evenodd" d="M591 293C591 454.819 459.819 586 298 586C136.181 586 5 454.819 5 293C5 131.181 136.181 0 298 0C459.819 0 591 131.181 591 293ZM284.564 127.483C286.819 127.318 289.219 127.138 289.895 127.082C292.952 126.834 308.943 127.189 313.135 127.599C331.723 129.418 348.726 133.81 365.044 141.01C405.961 159.064 438.551 193.81 453.887 235.733C462.687 259.79 465.855 286.295 462.953 311.584C460.345 334.314 453.573 355.277 442.597 374.604C423.964 407.409 394.48 433.254 359.889 447.103C318.892 463.517 272.505 462.923 232.069 445.466C193.978 429.022 162.692 397.996 145.951 360.066C138.715 343.671 134.395 326.913 132.502 307.893C131.9 301.849 131.821 285.416 132.365 279.463C134.749 253.37 141.701 231.36 154.684 208.798C163.476 193.518 177.184 177.443 191.877 165.182C217.986 143.394 251.078 129.934 284.564 127.483ZM213.523 166.228C237.501 150.29 264.449 141.721 293.586 140.769C301.976 140.495 318.605 141.643 323.032 142.802C324.261 143.124 325.165 144.2 325.165 145.341C325.165 146.042 324.849 146.467 323.32 147.822C315.491 154.755 309.003 162.85 303.431 172.641C301.513 176.011 300.636 176.973 298.691 177.837C296.973 178.6 295.034 178.386 288.802 176.743C271.979 172.31 257.075 170.205 240.545 169.928C228.892 169.732 221.955 170.168 213.111 171.65C210.177 172.142 209.456 172.041 209.019 171.081C208.447 169.825 208.987 169.243 213.523 166.228ZM316.479 177.634C325.425 162.654 335.901 153.53 346.125 151.814C351.126 150.975 356.662 152.199 361.888 155.3C379.575 165.795 394.777 198.415 401.165 239.584C405.039 264.556 405.96 292.254 403.749 317.354L403.577 319.298L399.71 322.298C377.755 339.33 354.265 353.982 326.396 368.028C287.296 387.735 250.098 400.185 220.859 403.35C216.581 403.813 204.88 403.81 201.994 403.344C194.355 402.112 189.349 399.546 187.583 395.959C187.057 394.889 186.958 394.253 186.96 391.953C186.961 390.223 187.134 388.593 187.432 387.513C189.679 379.337 195.891 369.94 206.874 358.104C208.943 355.875 210.751 353.745 210.894 353.371C211.324 352.24 211.195 350.052 210.634 348.956C210.103 347.92 207.336 345.515 205.702 344.67C204.618 344.11 202.913 344.04 201.518 344.501C199.679 345.108 190.383 355.372 185.087 362.642C182.243 366.546 180.154 369.891 178.152 373.746C176.371 377.176 175.858 377.787 174.447 378.167C173.552 378.408 173.206 378.365 172.242 377.893C171.015 377.292 170.861 377.09 167.67 371.861C156.236 353.126 149.167 332.401 146.644 310.215C145.272 298.154 145.425 284.006 147.053 272.219C147.79 266.891 148.856 261.301 149.257 260.669C149.692 259.985 151.022 259.821 151.483 260.396C151.634 260.584 152.215 262.091 152.774 263.745C158.436 280.496 168.571 297.226 183.247 314.044C187.198 318.572 198.147 329.462 203.046 333.737C217.474 346.326 234.338 358.061 251.754 367.632C257.763 370.933 272.027 378.09 274.858 379.224C277.789 380.398 281.215 380.67 283.773 379.932C286.316 379.198 294.044 375.981 294.996 375.26C296.17 374.37 296.967 373.003 297.323 371.265C297.595 369.942 297.521 369.367 296.503 364.89C285.492 316.482 287.845 255.361 302.48 209.618C303.727 205.72 303.848 205.137 303.586 204.256C303.015 202.333 302.475 201.957 298.288 200.573C292.041 198.508 291.547 198.796 289.253 205.848C282.611 226.271 278.114 251.311 276.622 276.183C276.13 284.374 275.787 286.344 274.475 288.484C273.226 290.521 271.896 291.522 264.304 296.139C251.044 304.202 237.442 313.558 226.248 322.313C221.984 325.649 220.74 326.277 218.398 326.277C215.374 326.277 214.266 325.516 206.011 317.769C191.767 304.4 178.931 287.714 171.534 272.948C161.759 253.439 159.41 234.822 164.869 220.143C168.063 211.556 173.762 204.114 181.562 198.347C207.933 178.848 258.373 178.608 309.738 197.738C336.274 207.621 362.418 222.369 383.988 239.622C386.071 241.288 387.729 242.698 387.672 242.755C387.615 242.812 384.754 243.582 381.315 244.465C364.594 248.761 347.246 254.796 328.446 262.857C315.148 268.559 298.957 276.395 297.722 277.727C296.788 278.734 296.521 280.205 296.331 285.38C296.214 288.577 296.262 289.996 296.503 290.526C296.838 291.261 297.992 292.038 298.747 292.038C298.969 292.038 302.758 290.221 307.168 288C333.444 274.766 359.853 264.357 381.606 258.662C388.721 256.799 390.112 256.34 391.471 255.405C393.718 253.859 395.27 251.276 395.591 248.55C395.762 247.091 394.821 239.693 393.916 235.391C393.109 231.555 391.035 227.888 388.384 225.612C384.575 222.341 370.417 212.67 362.471 207.911C349.158 199.939 334.295 192.594 319.769 186.81C315.242 185.007 314.374 184.21 314.563 182.033C314.659 180.928 315.054 180.022 316.479 177.634ZM400.08 183.562C400.08 183.333 400.284 182.92 400.533 182.645C401.53 181.543 402.207 181.938 406.126 185.904C415.692 195.585 423.207 205.381 429.876 216.862C432.315 221.062 436.15 228.711 438.064 233.197C439.39 236.304 439.47 236.616 439.176 237.507C438.666 239.052 437.643 239.421 434.953 239.032C431.126 238.478 427.399 238.199 423.711 238.192C419.596 238.184 418.234 237.842 416.536 236.389C414.634 234.761 414.364 234.053 412.922 226.917C409.938 212.15 406.295 199.479 401.839 188.366C400.872 185.953 400.08 183.792 400.08 183.562ZM420.748 253.936C420.978 253.179 421.679 252.39 422.363 252.117C423.71 251.58 432.818 252.457 436.887 253.516C442.045 254.858 445.803 257.624 446.712 260.748C447.747 264.31 446.593 269.986 443.691 275.604C442.417 278.07 441.518 278.917 440.174 278.917C438.741 278.917 438.027 278.269 435.819 274.961C432.109 269.405 427.162 262.906 422.837 257.906C420.946 255.721 420.477 254.829 420.748 253.936ZM418.658 290.991C418.802 279.403 418.832 278.855 419.34 278.484C420.63 277.542 421.28 278.06 424.099 282.276C427.847 287.882 429.932 291.477 430.082 292.59C430.166 293.218 430.049 293.954 429.774 294.529C429.531 295.038 427.394 297.457 425.027 299.904C421.512 303.538 420.586 304.352 419.977 304.347C418.504 304.333 418.493 304.22 418.658 290.991ZM448.099 297.241C447.49 295.717 447.537 295.113 448.351 294.046C448.735 293.543 449.293 293.132 449.592 293.132C450.1 293.132 450.13 293.293 450.057 295.66C449.979 298.162 449.97 298.19 449.261 298.272C448.649 298.343 448.48 298.193 448.099 297.241ZM244.372 325.92C251.795 320.513 263.306 312.863 272.67 307.112L275.815 305.181L276.001 310.706C276.602 328.467 278.646 346.485 281.85 362.257C282.381 364.867 282.746 367.072 282.662 367.157C282.246 367.572 265.174 359.298 256.682 354.565C248.335 349.913 237.256 342.929 231.399 338.626L229.635 337.331L230.715 336.397C232.619 334.75 239.583 329.408 244.372 325.92ZM429.442 314.903C431.682 312.777 433.774 310.887 434.09 310.705C434.929 310.222 436.648 310.281 437.57 310.826C438.65 311.464 439.278 312.876 440.241 316.825C441.784 323.161 442.049 325.481 442.044 332.633C442.041 337.794 441.936 339.719 441.555 341.654C438.504 357.129 429.633 368.587 414.646 376.41C411.661 377.968 410.637 378.166 409.387 377.428C408.526 376.92 407.736 375.724 407.736 374.932C407.736 374.637 408.465 371.519 409.355 368.003C412.018 357.495 414.615 343.808 415.807 334C416.341 329.61 417.007 327.271 418.203 325.589C418.71 324.877 420.53 323.051 422.248 321.532C423.965 320.012 427.203 317.03 429.442 314.903ZM339.109 377.048C358.89 366.725 377.873 355.198 394.186 343.602C398.479 340.549 399.298 340.228 400.211 341.237C400.828 341.919 400.757 342.507 398.986 351.359C396.65 363.036 392.179 379.498 390.614 382.187C389.568 383.983 388.339 384.641 385.168 385.104C379.923 385.869 374.722 386.168 366.724 386.163C356.352 386.158 349.049 385.565 338.563 383.877C334.357 383.2 333.424 382.966 333.026 382.489C332.462 381.813 332.416 381.155 332.889 380.551C333.077 380.311 335.876 378.735 339.109 377.048ZM306.027 394.849C306.027 393.614 306.823 392.468 308.054 391.932C309.22 391.425 309.241 391.427 313.109 392.491C320.054 394.4 331.021 396.714 338.289 397.803C349.976 399.553 359.371 400.161 370.552 399.888C375.138 399.777 379.291 399.677 379.779 399.667C380.84 399.645 381.93 400.555 382.174 401.667C382.428 402.822 379.828 407.788 375.572 414.277C368.256 425.431 360.461 432.381 351.96 435.327C349.456 436.195 349.209 436.227 345.125 436.227C341.041 436.227 340.792 436.194 338.293 435.328C327.973 431.751 318.409 421.496 310.333 405.348C307.758 400.198 306.027 395.978 306.027 394.849ZM400.39 396.583C400.596 396.378 402.179 395.791 403.908 395.278C407.875 394.103 408.672 394.056 409.266 394.962C409.647 395.543 409.662 395.773 409.37 396.48C408.943 397.511 399.365 406.815 398.51 407.03C397.653 407.245 396.526 406.457 396.526 405.642C396.526 404.891 399.831 397.142 400.39 396.583ZM218.183 417.4C238.55 415.682 262.28 409.851 286.665 400.57C289.713 399.41 290.874 399.256 292.038 399.858C292.187 399.935 292.31 399.999 292.423 400.077C292.963 400.45 293.272 401.157 295.07 405.264C300.85 418.464 307.313 428.366 315.523 436.596C320.173 441.259 320.412 441.719 318.945 443.181C318.266 443.859 317.89 443.963 315.049 444.261C306.409 445.166 294.791 445.407 287.025 444.842C263.32 443.118 240.236 435.899 220.164 423.933C215.651 421.242 214.575 420.286 214.833 419.192C215.116 417.997 215.866 417.595 218.183 417.4Z"></path>
</svg>