<svg viewBox="0 0 400 400" xmlns="http://www.w3.org/2000/svg" fill="#F7EEED">
<path fill-rule="evenodd" clip-rule="evenodd" d="M400 200C400 310.457 310.457 400 200 400C89.5431 400 0 310.457 0 200C0 89.5431 89.5431 0 200 0C310.457 0 400 89.5431 400 200ZM90.246 209.874C91.947 216.402 95.2895 222.159 100.274 227.144C105.258 232.129 111.013 235.472 117.54 237.173C124.106 238.835 130.672 238.835 137.239 237.173C143.884 235.512 149.679 232.208 154.624 227.262L167.025 214.859L185.241 233.078L172.84 245.482C167.895 250.427 164.553 256.184 162.812 262.752C161.151 269.319 161.151 275.887 162.812 282.454C164.513 288.983 167.875 294.759 172.899 299.784C177.883 304.769 183.619 308.092 190.106 309.754C196.672 311.415 203.239 311.415 209.805 309.754C216.411 308.053 222.187 304.729 227.131 299.784C232.154 294.759 235.497 288.963 237.158 282.395C238.82 275.828 238.82 269.26 237.158 262.692C235.536 256.164 232.234 250.408 227.249 245.423L214.967 233.138L233.242 214.859L245.525 227.144C250.508 232.129 256.244 235.452 262.732 237.114C269.298 238.776 275.844 238.795 282.371 237.173C288.937 235.512 294.732 232.168 299.756 227.144C304.74 222.159 308.063 216.382 309.724 209.815C311.425 203.286 311.425 196.758 309.724 190.23C308.063 183.663 304.74 177.886 299.756 172.901C294.732 167.877 288.937 164.533 282.371 162.872C275.844 161.17 269.298 161.151 262.732 162.812C256.205 164.513 250.449 167.857 245.465 172.842L233.183 185.127L214.967 166.907L227.249 154.623C232.234 149.638 235.536 143.841 237.158 137.234C238.82 130.666 238.8 124.118 237.099 117.59C235.438 111.023 232.115 105.246 227.131 100.261C222.147 95.2761 216.371 91.9526 209.805 90.2909C203.278 88.5897 196.732 88.5699 190.166 90.2316C183.599 91.8933 177.824 95.2167 172.84 100.202C167.816 105.226 164.474 111.023 162.812 117.59C161.19 124.118 161.21 130.666 162.871 137.234C164.572 143.762 167.915 149.519 172.899 154.504L185.241 166.848L166.966 185.127L154.624 172.782C149.64 167.797 143.865 164.474 137.298 162.812C130.732 161.151 124.166 161.151 117.599 162.812C111.033 164.474 105.238 167.817 100.214 172.842C95.2696 177.787 91.947 183.564 90.246 190.171C88.5847 196.738 88.5847 203.306 90.246 209.874ZM122.939 216.818C119.973 216.066 117.362 214.562 115.107 212.307C112.852 210.052 111.33 207.421 110.538 204.414C109.787 201.447 109.787 198.479 110.538 195.512C111.33 192.584 112.852 189.993 115.107 187.738C117.401 185.443 120.032 183.92 122.999 183.168C125.965 182.416 128.932 182.416 131.899 183.168C134.905 183.88 137.535 185.364 139.791 187.619L152.132 199.963L139.731 212.366C137.476 214.622 134.866 216.125 131.899 216.877C128.932 217.629 125.946 217.609 122.939 216.818ZM200.074 152.011L187.733 139.667C185.478 137.412 183.935 134.801 183.104 131.833C182.353 128.866 182.353 125.899 183.104 122.931C183.935 119.964 185.478 117.353 187.733 115.098C190.027 112.803 192.638 111.3 195.565 110.587C198.532 109.836 201.498 109.836 204.465 110.587C207.432 111.339 210.042 112.843 212.297 115.098C214.552 117.353 216.055 119.964 216.807 122.931C217.598 125.938 217.618 128.926 216.866 131.893C216.154 134.821 214.651 137.432 212.356 139.726L200.074 152.011ZM256.883 212.307L244.601 200.022L256.883 187.738C259.177 185.443 261.769 183.92 264.656 183.168C267.623 182.416 274.064 182.416 277.031 183.168C279.998 183.92 282.628 185.443 284.922 187.738C287.177 189.993 288.681 192.604 289.432 195.571C290.184 198.539 290.164 201.486 289.373 204.414C288.661 207.342 287.158 209.953 284.863 212.248C282.569 214.543 279.939 216.066 276.972 216.818C274.045 217.609 267.623 217.629 264.656 216.877C261.729 216.085 259.138 214.562 256.883 212.307ZM195.565 289.457C192.598 288.706 189.987 287.202 187.733 284.947C185.438 282.653 183.916 280.021 183.164 277.054C182.412 274.086 182.412 271.119 183.164 268.152C183.955 265.224 185.478 262.633 187.733 260.378L200.133 247.974L212.416 260.259C214.67 262.514 216.154 265.145 216.866 268.152C217.618 271.119 217.598 274.067 216.807 276.995C216.055 279.962 214.532 282.593 212.238 284.888C209.983 287.143 207.372 288.646 204.406 289.398C201.478 290.189 198.532 290.209 195.565 289.457ZM200.074 218.242L181.859 200.022L200.133 181.744L218.349 199.963L200.074 218.242Z"></path>
</svg>