<svg width="140" height="38" viewBox="0 0 140 38" fill="none" xmlns="http://www.w3.org/2000/svg">
<g clip-path="url(#clip0_23_6)">
<path d="M0 6.74976L0.469668 6.87017L0.956829 6.92369L1.38091 6.9471L1.85527 7.01232L2.34111 6.86515L2.9572 7.41871L3.51652 9.52425L3.8491 6.76146L4.28723 8.18467L4.85713 6.49723L5.36147 7.39028L5.89767 6.36845L6.30885 6.38518L6.7247 6.38016L7.26934 6.42699L7.76464 6.36344L8.22266 6.70126L8.76077 5.89851L9.16377 6.74809L9.73574 6.84174L10.2101 7.61104L10.6795 6.19954L11.1946 6.6076L11.7347 6.53067L12.1566 6.33333L12.5615 7.28659L13.0551 7.80336L13.5377 8.15791L14.025 6.74474L14.6625 7.19963L15.0194 6.70628L15.5271 6.53904L16.0246 6.70962L16.579 6.16944L16.9819 6.65443L17.5434 6.79491L17.9605 6.81498L18.4437 6.65276L18.965 5.85503L19.4224 6.50559L19.8978 6.97219L20.3826 6.73471L20.8497 6.4203L21.4413 7.81172L21.8093 8.41044L22.2999 7.59264L22.8714 6.7414L23.4259 7.10096L23.8103 7.54581L24.3777 7.78497L24.8662 7.12605L25.3052 7.83681L25.7326 7.52742L26.2134 6.55576L26.7648 8.15624L27.2057 6.67785L27.6789 7.38694L28.1927 6.99393L28.673 7.36687L29.3373 7.37523L29.6473 6.98389L30.196 6.99058L30.7363 5.89517L31.2365 7.17287L31.6689 6.53235L32.1757 6.626L32.5685 7.15949L33.1895 6.14937L33.5823 6.99727L34.0232 7.60268L34.5081 6.99894L35.0903 7.18458L35.5443 7.47056L36.0849 6.22463L36.519 6.91532L37.0083 8.69809L37.5141 7.19294L38.0626 7.2799L38.5333 5.86172L39.0282 7.08089L39.4317 8.42716L39.9696 5.73629L40.3746 6.01223L40.8599 6.9287L41.4643 8.99912L42.0139 6.62098L42.3702 7.37523L42.9072 8.36696L43.2993 4.88672L43.8715 6.51061L44.3065 6.18115L44.7889 9.16301L45.3507 8.38535L45.7797 4.32145L46.2455 5.94367L46.8024 7.52742L47.1727 7.9405L47.6617 9.64466L48.2395 8.96066L48.7189 6.52231L49.1763 6.26644L49.6526 6.67952L50.1588 6.529L50.741 5.1359L51.2167 6.44873L51.7171 8.06091L52.2089 7.75988L52.7093 7.95555L53.2157 7.4923L53.7032 5.46536L54.1874 7.43376L54.6759 8.07596L55.1665 8.39539L55.6509 7.16284L56.1449 9.93733L56.532 6.24302L56.9721 5.95203L57.4859 7.72142L57.9813 6.36176L58.4794 6.9471L58.9965 7.17956L59.5974 6.52733L59.9228 5.33492L60.4295 6.23132L60.8547 5.93698L61.4574 6.62433L61.8174 7.77995L62.403 8.30006L62.887 7.58428L63.3213 5.94868L63.821 9.29179L64.3171 7.06918L65.03 6.52733L65.2873 6.75979L65.7771 7.43711L66.3217 6.43535L66.8024 6.3835L67.2588 6.75645L67.6515 6.31661L68.1982 8.4489L68.7004 7.28994L69.1737 6.42866L69.662 6.70962L70.3148 6.3835L70.7168 6.75478L71.1931 7.04243L71.6806 5.86841L72.2777 6.66279L72.6534 8.22982L73.1502 7.99234L73.6427 6.28818L74.1324 5.55735L74.6088 6.59757L74.9907 6.91031L75.5459 6.91867L76.0663 7.28325L76.4714 8.66966L76.9551 4.46026L77.431 6.15773L77.9389 7.96224L78.4902 6.68621L79.0106 6.90863L79.4571 7.63947L79.9566 7.19963L80.4245 6.81331L80.9101 7.15113L81.4451 7.61606L81.8239 4.62583L82.3897 7.46888L82.7763 6.73303L83.3285 7.53912L83.8019 6.40023L84.3694 6.47716L84.746 6.15773L85.2036 6.89526L85.817 6.77986L86.2254 6.80662L86.7602 6.89526L87.2011 7.8435L87.7304 7.93046L88.1582 6.61931L88.763 6.6076L89.2456 9.22656L89.7356 8.53754L90.0981 6.55242L90.5814 9.18141L91.1513 7.29663L91.6672 7.78831L92.0753 9.38042L92.5234 24.6928L93.0482 10.0912L93.5466 6.35842L94.1222 9.05598L94.5173 15.8409L95.0484 38L95.5702 7.22973L96.0096 8.29504L96.5439 9.07772L97.0191 7.79333L97.5228 3.61905L97.99 7.43376L98.4619 0L98.95 5.98882L99.4708 6.23801L99.8655 8.5643L100.352 6.24135L100.91 7.23141L101.407 5.99049L101.923 4.2395L102.319 3.94516L102.882 6.97553L103.37 4.88505L103.842 6.71798L104.347 7.43042L104.834 8.44054L105.332 8.58437L105.813 7.94217L106.302 6.86348L106.802 7.47223L107.275 8.02746L107.758 8.82519L108.143 7.05748L108.734 6.4688L109.271 6.39688L109.614 8.48068L110.105 7.31168L110.789 9.13793L111.435 6.39521L111.78 7.25482L112.081 7.18792L112.556 3.40164L113.106 9.36872L113.594 7.36018L114 7.25816L114.475 5.21283L115.077 7.40199L115.577 5.77308L116.081 6.41528L116.551 4.7245L116.963 6.26978L117.433 7.39195L118.07 7.2197L118.456 6.93874L118.899 7.41537L119.384 7.30834L119.92 6.82836L120.408 6.3417L120.915 6.76648L121.333 6.01223L121.796 5.78145L122.289 6.99894L122.868 6.51395L123.329 6.02896L123.834 6.53235L124.411 5.56403L124.743 5.68779L125.235 6.71798L125.732 6.53235L126.225 6.67617L126.723 5.75636L127.202 5.94032L127.696 6.49555L128.124 7.36352L128.782 6.4504L129.179 6.61262L129.67 7.39864L130.17 6.93038L130.641 4.86163L131.097 6.86181L131.59 6.38183L132.061 6.66279L132.599 6.74809L133.028 7.7465L133.627 7.04577L133.991 7.13106L134.646 6.96382L135.066 6.64607L135.675 6.55242L136.043 6.96215L136.429 6.15439L136.945 6.64607L137.439 7.47725L137.892 6.50726L138.379 6.26644L138.892 7.41704L139.404 8.18968L140 6.83505" stroke="#67C570" stroke-width="1.5"/>
</g>
<defs>
<clipPath id="clip0_23_6">
<rect width="140" height="38" fill="white"/>
</clipPath>
</defs>
</svg>
