<svg viewBox="0 0 400 400" xmlns="http://www.w3.org/2000/svg" fill="#f9ca02">
<path fill-rule="evenodd" clip-rule="evenodd" d="M319.169 360.636C368.219 324.187 400 265.805 400 200C400 89.5431 310.457 0 200 0C89.5431 0 0 89.5431 0 200C0 275.796 42.1637 341.744 104.316 375.669C105.223 373.31 106.045 370.88 106.87 368.442C110.011 359.156 113.194 349.747 121.268 343.665C132.294 336.006 125.238 319.174 120.735 308.435L120.733 308.43L120.73 308.422C120.407 307.653 120.098 306.914 119.809 306.213C119.868 305.656 119.705 305.242 119.093 305.125C117.847 300.669 114.266 298.476 110.446 296.449C102.936 292.455 102.928 292.464 97.4157 298.193L97.0453 298.578C83.4252 312.725 72.8728 328.708 66.1077 347.014C64.6788 346.057 63.7195 344.729 63.01 343.216H63C70.0948 324.021 81.4466 307.502 96.2559 293.247C99.1238 290.494 100.073 289.039 96.7055 285.778C91.2095 280.447 85.6635 275.009 82.0262 268.126C63.2398 258.138 56.015 223.624 75.4709 207.192C77.0333 205.93 77.0785 204.685 77.1336 203.17L77.1397 203.004C87.9219 79.6433 310.36 74.0685 334.872 192.655C337.66 208.813 335.402 224.522 327.468 239.158C326.453 242.533 325.594 245.948 324.737 249.356C322.332 258.925 319.939 268.444 314.117 276.874C312.59 280.056 312.726 282.57 312.869 285.2C313.066 288.832 313.276 292.687 309.131 298.832C308.042 300.901 308.012 302.385 309.161 304.524C313.854 313.299 315.517 322.934 317.178 332.554V332.555L317.312 333.333L317.395 333.814C317.493 335.798 317.872 338.403 318.293 341.294C319.204 347.546 320.308 355.13 319.169 360.636ZM314.62 363.918C315.472 346.143 313.541 322.143 305.244 307.521C304.385 307.417 304.157 308.146 303.935 308.853C303.845 309.141 303.756 309.426 303.625 309.649C302.481 311.907 301.159 314.074 299.84 316.237C296.957 320.964 294.087 325.669 293.113 331.256C292.251 344.433 292.257 357.609 292.263 370.79V370.792V370.806C292.264 373.035 292.265 375.265 292.262 377.494C300.027 373.45 307.494 368.91 314.62 363.918ZM288.156 379.573V333.316C286.025 335.168 283.822 336.847 281.655 338.498L281.653 338.499C277.38 341.755 273.249 344.902 270.099 349.055C267.311 352.735 264.194 354.913 259.437 354.961C254.85 355.01 252.902 357.178 254.521 361.698C254.716 364.756 254.895 367.815 255.074 370.874L255.074 370.876L255.074 370.879L255.074 370.882L255.074 370.885C255.484 377.9 255.894 384.913 256.495 391.909C267.47 388.684 278.053 384.542 288.156 379.573ZM252.245 393.107C252.023 390.149 251.84 387.187 251.657 384.225C251.208 376.956 250.758 369.685 249.744 362.46C251.15 355.888 246.367 356.843 241.763 357.762L241.762 357.762C240.244 358.065 238.745 358.364 237.493 358.388C233.096 359.033 229.259 358.32 226.591 354.405C223.171 350.324 217.829 349.207 212.526 348.098L212.525 348.098C209.696 347.506 206.877 346.917 204.367 345.881L204.1 345.801C193.767 342.704 183.448 339.611 173.699 334.829C157.951 327.116 144.61 316.347 132.089 304.494C129.421 301.975 126.854 300.374 122.926 302.18C127.783 312.354 131.17 322.723 131.27 333.921C131.908 339.627 129.191 341.848 125.985 344.47C124.418 345.752 122.734 347.129 121.268 349.055C116.197 356.749 112.376 366.964 108.983 376.036L108.983 376.038L108.98 376.046C108.759 376.635 108.541 377.219 108.324 377.798C135.786 391.987 166.957 400 200 400C218.075 400 235.59 397.602 252.245 393.107ZM119.093 305.125L119.075 305.122L119.059 305.119L119.099 305.149L119.093 305.125ZM320.873 220.598C324.12 238.045 321.002 254.877 312.709 270.469L312.719 270.459C312.702 270.513 312.685 270.568 312.668 270.623C312.656 270.661 312.645 270.699 312.633 270.737C312.428 271.418 312.23 272.076 311.349 272.256H311.369C278.563 328.961 188.778 313.76 137.985 290.748C137.876 290.696 137.767 290.646 137.659 290.596L137.489 290.518C135.579 289.639 133.959 288.893 133.728 286.159C131.863 281.902 127.116 279.365 122.189 276.733C117.295 274.118 112.225 271.41 109.626 266.827C107.194 266.195 104.702 266.171 102.134 266.147C99.2672 266.12 96.306 266.091 93.2281 265.216C98.1659 261.894 100.036 257.061 101.895 252.256C102.379 251.003 102.863 249.753 103.401 248.531C104.11 232.421 101.802 214.378 84.6942 206.812C85.5773 205.904 86.7363 205.537 87.8744 205.177C89.1961 204.758 90.4894 204.349 91.2895 203.111C90.5502 203.102 89.8571 203.097 89.2084 203.094C81.1061 203.046 79.9278 203.039 82.1761 193.231C89.121 157.292 121.527 127.972 156.931 119.673C128.862 138.126 110.915 168.607 111.495 201.91C111.495 202.21 111.449 202.538 111.402 202.874C111.232 204.094 111.047 205.424 112.974 205.913C114.453 157.711 152.285 108.992 204.837 110.837C250.074 110.545 302.146 129.525 322.451 171.38C291.308 150.428 251.274 158.512 216.408 165.553L216.401 165.554L216.392 165.556C214.838 165.87 213.295 166.182 211.762 166.489C172.95 175.139 133.688 193.787 117.471 231.552C115.712 220.353 111.615 209.292 100.163 205.132C100.013 205.923 99.8932 206.665 100.713 207.28C114.939 217.84 114.568 235.181 114.224 251.259L114.224 251.26C114.158 254.357 114.093 257.408 114.133 260.354C115.819 260.099 115.893 258.999 115.971 257.863C115.991 257.565 116.012 257.264 116.061 256.976C119.129 241.52 122.777 224.581 134.748 213.236C133.518 244.303 173.739 258.782 196.703 239.997C218.857 220.9 204.747 185.059 174.948 183.711C201.629 171.097 229.239 166.557 258.158 163.618C273.437 161.685 290.545 162.925 301.347 175.383C260.556 184.385 285.129 245.504 320.873 220.598ZM303.435 299.378C303.365 300.247 303.275 301.097 302.126 301.243V301.233V301.214C301.094 305.488 298.85 309.18 296.607 312.871L296.606 312.871C295.16 315.251 293.714 317.631 292.593 320.165C289.636 326.847 284.131 331.089 278.63 335.328C276.881 336.675 275.133 338.022 273.467 339.447C271.468 340.928 269.884 342.701 268.356 344.413C264.956 348.219 261.828 351.72 255.01 351.027C255.994 348.023 258.317 343.924 260.803 339.535C265.697 330.899 271.224 321.145 268.421 316.425L268.252 316.183L268.252 316.183C266.518 313.701 265.658 312.471 265.945 311.63C266.226 310.802 267.619 310.353 270.382 309.461C270.711 309.355 271.06 309.242 271.428 309.122C285.498 305.022 297.17 296.889 307.362 286.911C308.472 290.816 308.352 291.216 303.435 299.378ZM162.078 304.48L162.078 304.48L162.078 304.48L162.079 304.48L162.08 304.481C167.741 306.29 173.397 308.097 178.906 310.255L178.926 310.274C205.256 314.385 231.537 317.304 258.108 312.383C261.181 312.087 262.174 314.31 263.157 316.51L263.157 316.511C263.504 317.287 263.849 318.061 264.284 318.72C265.249 322.327 260.711 330.595 256.638 338.014C254.263 342.342 252.046 346.38 251.173 349.035C249.65 352.88 246.005 353.092 242.315 353.306H242.314C240.56 353.408 238.795 353.511 237.243 354.005C233.367 355.15 231.285 352.996 229.114 350.751C227.451 349.031 225.736 347.257 223.123 346.868C220.722 346.155 218.319 345.449 215.915 344.743L215.871 344.73L215.87 344.729C206.894 342.092 197.914 339.454 189.058 336.47C178.476 334.556 128.282 304.475 132.559 294.321C133.557 292.818 134.607 293.589 135.528 294.266C135.815 294.477 136.09 294.678 136.346 294.799C144.592 298.893 153.342 301.688 162.078 304.48ZM72.8828 216.761C86.5229 200.426 100.683 227.285 99.1638 240.027C99.4635 246.558 98.0446 252.592 94.1874 257.972C73.2126 278.016 61.551 229.277 72.8828 216.761ZM148.997 198.718C159.989 190.067 162.987 188.271 174.229 188.271C207.735 187.861 214.67 236.902 180.494 243.454C154.553 252.592 122.807 217.395 148.997 198.718ZM326.219 229.892C337.88 202.223 331.545 170.17 296.24 165.307C314.347 183.038 324.19 204.176 326.219 229.892ZM299.478 179.962C302.916 179.269 304.095 179.63 306.383 182.296H306.373C268.311 186.191 295.611 237.195 319.544 210.2C326.089 220.939 297.39 229.58 288.236 212.894C279.762 200.173 285.708 182.745 299.478 179.962ZM121.557 297.006C118.22 296.02 104.75 290.045 106.648 286.178C107.029 272.137 113.109 276.145 120.083 280.741C122.265 282.179 124.534 283.675 126.744 284.694C130.672 286.909 129.566 289.591 128.498 292.183C128.102 293.145 127.71 294.095 127.583 295.004C127.123 298.311 124.207 297.627 121.854 297.075L121.844 297.073L121.817 297.066C121.729 297.046 121.643 297.026 121.557 297.006ZM101.735 284.795C102.317 283.338 102.645 281.875 102.96 280.466C103.548 277.845 104.093 275.41 106.159 273.544C111.199 270.175 101.535 270.09 94.4524 270.028C91.6216 270.003 89.2033 269.982 88.3016 269.756C92.6164 275.426 96.8214 280.061 101.735 284.795ZM302.116 192.752C302.016 195.633 305.564 199.45 308.821 199.479C319.354 198.005 302.536 181.446 302.116 192.752ZM173.684 192.012C211.477 193.555 207.4 242.586 170.986 240.224C136.511 236.933 140.778 191.182 173.684 192.012ZM192.211 209.576C192.081 203.064 178.711 195.429 178.501 205.368C178.831 212.105 190.862 218.432 192.211 209.576ZM272.67 262.427L272.67 262.427C262.554 259.594 254.566 257.358 241.819 266.073C240.497 266.959 239.19 267.88 237.881 268.802C231.559 273.254 225.192 277.737 216.947 278.521C216.011 278.584 215.071 278.642 214.131 278.699C204.627 279.28 195.036 279.867 187.588 286.556C183.451 291.36 179.554 285.502 185.09 282.622C191.706 278.15 198.59 274.323 207.054 274.919C219.508 275.144 228.092 269.767 236.374 264.58C247.855 257.39 258.753 250.564 278.572 259.531C283.22 262.326 287.485 260.755 290.736 259.557C293.447 258.559 295.454 257.82 296.39 260.088C297.207 261.978 295.949 262.367 294.755 262.737C294.357 262.86 293.967 262.981 293.662 263.154C290.914 264.716 288.006 265.887 284.878 265.253H284.868C280.301 264.563 276.345 263.456 272.67 262.427ZM243.048 234.313C242.908 237.124 238.711 237.613 238.112 234.801C237.932 232.008 242.559 231.608 243.048 234.313ZM257.838 231.151C257.488 233.983 252.721 233.914 252.881 231.024C252.911 228.173 257.858 228.544 257.838 231.151Z"></path>
</svg>