<svg width="221" height="36" viewBox="0 0 221 36" fill="none" xmlns="http://www.w3.org/2000/svg">
<g clip-path="url(#clip0_20_14)">
<path d="M0 3.07838L0.738677 1.79572L1.46572 0L2.28986 2.30879L3.09658 4.7886L4.03747 6.4133L4.54492 4.87411L5.44486 3.07838L6.16942 5.04513L6.95484 6.92637L7.77341 6.32779L8.46842 5.47268L9.31938 5.21615L10.0344 4.019L10.7739 5.81473L11.5877 7.1829L12.396 11.3729L13.1709 9.74822L13.8668 8.29454L14.4996 7.86698L15.4153 9.23515L16.2123 7.61045L17.0285 5.81473L17.7306 5.98575L18.5159 6.84086L19.1834 8.38005L19.9718 10.0903L20.8232 8.46556L21.4906 9.14964L22.3266 11.1164L23.1214 9.91924L23.8459 11.2874L24.7061 10.4323L25.3664 9.5772L26.2026 8.46556L27.0093 9.23515L27.7888 10.6033L28.4867 11.2874L29.2717 10.9454L29.9207 12.8266L30.761 15.3919L31.6082 16.9311L32.4047 15.0499L33.3027 13.8527L33.8167 14.2803L34.6525 19.4964L35.4833 22.0618L36.1516 23.0879L36.9738 23.772L37.8307 23.0024L38.4488 24.4561L39.3736 28.133L40.0886 26.8504L40.7722 28.304L41.6048 25.3967L42.2597 24.285L43.1951 22.9169L43.843 22.8314L44.6784 23.8575L45.4049 24.8836L46.2461 24.1995L46.9895 24.285L47.7332 25.8242L48.4489 26.4228L49.3404 25.6532L50.032 26.7648L50.735 26.8504L51.6118 27.962L52.3068 27.0214L53.1469 27.1924L53.9571 26.9359L54.6353 27.4489L55.4534 28.6461L56.1436 28.5606H56.9827L57.7063 29.6722L58.2503 30.2708L59.0554 30.3563L59.8502 28.5606L60.5706 27.7055L61.3535 27.2779L62.1705 27.0214L62.9947 26.0808L63.6706 26.3373L64.4862 27.5344L66.0449 26.7648L66.8501 28.133L67.675 29.4157L68.4971 30.2708L69.1471 31.7245L69.9802 31.4679L70.7272 28.9026L71.7161 29.4157L72.204 28.5606L73.0218 28.9026L73.8231 27.791L74.5287 29.0736L75.3086 28.9881L76.1197 30.1853L76.7839 29.4157L77.633 30.0143L78.4371 28.8171L79.3732 28.6461L79.9277 27.791L80.7224 28.6461L81.467 28.8171L82.1697 27.791L83.0161 26.5938L83.7889 26.8504L84.6015 26.4228L85.4955 26.8504L86.1488 26.5083L86.9444 25.9097L87.6118 24.7126L88.4963 25.9952L89.2298 25.3112L89.8882 26.5083L90.7672 27.3634L91.6401 28.0475L92.1258 28.2185L92.9036 28.133L93.6749 27.962L94.3985 27.3634L95.302 26.0808L95.9886 25.9097L96.7018 25.0546L97.5364 25.3967L98.313 25.4822L99.0231 24.4561L99.8269 25.3112L100.624 26.0808L101.305 28.7316L102.147 28.8171L102.981 26.7648L103.716 26.6793L104.465 26.3373L105.415 25.8242L106.097 22.6603L106.769 21.9762L107.498 21.5487L108.273 21.8052L109.046 22.9169L109.837 23.3444L110.654 22.8314L111.543 23.4299L112.09 22.3183L112.921 22.6603L113.656 21.1211L114.397 21.2067L115.282 22.8314L116.01 23.4299L116.705 22.8314L117.456 23.2589L118.257 25.5677L119.024 25.7387L120.061 25.3967H120.84L121.517 25.6532L122.284 26.2518L123.065 26.9359L123.691 26.5938L124.474 26.1663L125.426 25.9952H125.931L126.748 24.7126L127.638 25.0546L128.428 25.3112L129.04 25.3967H129.823L130.627 25.7387L131.396 25.4822L132.159 24.8836L132.923 25.7387L133.824 25.9097H134.454L135.187 25.6532L136.048 24.4561L136.786 24.0285L137.555 23.4299L138.312 24.0285H140.105L140.577 23.3444L141.344 23.4299L142.117 22.9169L142.899 22.4893H143.663L144.718 21.2067L145.574 21.5487L146.184 20.9501L146.86 20.8646L147.71 20.6081L148.611 21.2067L149.262 21.9762L150.008 22.3183L150.79 21.5487L151.545 22.4893L152.4 23.6865L153.184 25.6532L154.167 27.1069L154.683 25.8242L155.387 27.0214L156.291 26.4228L156.95 26.8504L157.787 27.7055L158.581 27.4489L159.347 26.6793L160.001 26.0808L160.891 26.6793L161.626 25.9097L162.379 24.9691H163.19L163.956 26.3373L164.68 27.2779L165.422 26.8504L166.143 26.5083L167.065 26.4228L167.725 25.7387L168.583 27.5344L169.348 29.3302L170.076 31.0404L170.789 30.9549L171.728 30.5273L172.323 31.639L173.109 30.6983L173.887 33.0926L174.798 31.4679L175.421 31.3824L176.088 30.3563L176.924 31.0404L177.75 31.3824L178.501 30.0143L179.275 28.9026L180.054 28.6461L180.787 27.3634L181.577 27.791L182.307 30.0143L183.114 31.639L183.89 31.81L184.622 31.3824L185.386 30.7838L186.25 31.3824L187.056 32.8361L187.839 32.4941L188.607 34.0333L189.392 33.6912L190.014 33.5202L190.836 34.2898L191.618 34.4608L192.378 34.7173L193.139 35.0594L193.909 35.7435L194.675 34.8028L195.399 36L196.189 33.6057L196.999 33.5202L197.758 33.4347L198.544 31.8955L199.295 31.4679L200.138 31.81L201.071 31.0404L201.547 31.3824L202.46 31.2969L203.097 31.4679L203.9 31.639L204.679 33.8622H205.454L206.226 33.3492L206.995 34.2043L207.771 35.3159L208.535 35.5724L209.244 34.3753L210.16 34.8884L210.929 35.4014L211.722 34.1188L212.366 33.0926H213.223L213.891 34.6318L214.85 33.6912L215.487 33.5202L216.307 34.5463L216.959 32.4941L217.901 32.4086L218.613 31.981L219.339 33.7767L220.03 32.9216L220.851 31.5534L221 31.4679" stroke="#FB7273" stroke-width="1.5"/>
</g>
<defs>
<clipPath id="clip0_20_14">
<rect width="221" height="36" fill="white"/>
</clipPath>
</defs>
</svg>
