<svg width="221" height="36" viewBox="0 0 221 36" fill="none" xmlns="http://www.w3.org/2000/svg">
<g clip-path="url(#clip0_17_14)">
<path d="M0 0.184412L0.64262 0.60714L1.4187 1.16038L2.57308 2.70376L2.93766 2.67255L3.73846 3.32225L4.55836 4.01166L5.31692 4.42304L6.16473 4.56206L6.91047 4.65285L7.59538 5.15218L8.43354 4.26984L9.21857 4.2131L9.91912 2.95059L10.795 2.78036L11.5383 3.1123L12.1884 3.03854L13.0108 3.57475L13.845 2.95342L14.4472 2.84561L15.5166 0.99866L15.9971 0.933407L16.9177 1.71361L17.5876 1.74766L18.374 1.2767L19.1754 2.06541L19.9964 1.94625L20.6751 2.54772L21.2733 2.14769L22.067 2.39452L23.0177 2.0342L23.6556 3.08677L24.4678 3.94357L25.2361 3.54354L25.9134 2.37182L26.7372 0L27.5864 1.18023L28.2197 1.35897L28.9423 0.763181L29.9157 1.77603L30.8996 2.71511L31.2209 2.71227L32.0612 1.91504L32.888 2.42856L33.5871 2.31791L34.3866 1.24265L35.0292 1.20293L35.9395 2.90519L36.6878 4.03436L37.4181 3.23146L38.2441 3.23997L39.0338 4.37198L39.7428 4.60746L40.4328 5.73946L41.4646 6.30404L41.9827 6.35795L42.9166 6.26432L43.5244 6.35227L44.362 6.55938L45.2099 7.85594L45.9355 7.93254L46.653 8.40917L47.5344 8.4574L48.1989 8.66451L48.95 10.7725L49.6582 11.059L50.5255 11.7825L51.2005 11.4505L52.0683 11.3654L52.8587 11.9697L53.5566 12.2393L54.3799 12.2308L55.1045 12.4804L55.952 12.8294L56.8154 13.8422L57.59 15.5133L58.2763 14.5799L58.9733 13.394L59.7287 14.7302L60.5903 14.9345L61.2801 15.1104L62.0562 14.7019L62.9338 14.5855L63.6064 14.4437L64.4575 14.5941L65.1171 14.7075L65.8181 14.3614L66.6759 14.4777L67.429 14.6905L68.1685 14.3189L69.0511 14.5799L69.7811 14.5628L70.6817 14.3643L71.2054 14.3416L72.1541 14.2025L72.8646 13.9812L73.5826 14.7643L74.3511 15.1388L75.1853 15.1473L75.991 15.7289L76.7973 15.8481L77.3818 15.7942L78.2603 15.5956L78.9822 15.4963L79.7087 16.2055L80.4978 16.0892L81.3333 16.3275L82.0471 16.3899L82.7693 16.0183L83.6529 16.0154L84.3494 15.4537L85.2042 16.2055L85.9037 16.3928L86.6768 16.4013L87.4332 16.1318L88.229 15.7629L88.952 15.7459L89.7273 15.9615L90.6099 15.919L91.3145 16.3559L91.9989 16.529L92.7861 16.2339L93.696 16.5658L94.4304 16.4524L95.2247 16.7758L95.9609 16.8325L96.6544 16.9999L97.4195 17.8085L98.1774 17.0226L98.9505 18.0723L99.8038 18.9916L100.623 19.0029L101.327 18.5632L102.029 18.8384L103.704 18.1858L104.407 17.9901L105.1 17.9106L106.051 18.1092L106.771 18.6256L107.693 19.0199L108.231 18.4582L109.13 18.9916L109.794 19.6384L110.49 20.7137L111.232 22.4954L112.074 24.1494L112.863 29.9144L113.621 28.1441L114.299 28.5668L115.047 31.3443L115.928 33.5573L116.903 32.6976L117.519 32.5671L118.198 32.4933L118.995 33.0267L119.772 33.0154L120.564 33.7246L121.276 34.0623L122.026 35.7418L122.93 36L123.629 35.634L124.335 35.6851L125.146 34.3602L125.884 33.6594L126.667 32.8054L127.422 31.7075L128.157 31.8749L129.237 28.8448L129.756 28.7001L130.563 25.0545L131.375 23.0798L132.159 22.921L132.737 22.0897L133.664 20.3619L134.403 20.7052L134.956 20.8045L135.811 19.9902L136.701 19.5902L137.419 19.0568L138.176 18.8128L139.021 18.2L139.721 16.9148L140.492 16.6141L141.346 15.3005L142.119 13.8167L142.937 12.8663L143.661 11.8137L144.389 11.5101L145.051 11.53L145.911 10.9796L146.617 10.8604L147.421 11.2066L148.226 12.0549L149.193 11.9726L149.708 12.0974L150.526 12.313L151.258 12.2648L152.027 12.4549L152.781 12.3527L153.544 12.4946L154.343 12.4577L155.131 12.8719L155.871 13.794L156.662 13.6011L157.384 13.5897L158.232 13.7486L158.902 12.696L159.679 11.9896L160.527 12.0463L161.342 12.1627L161.963 11.9556L162.848 11.8137L163.524 11.1895L164.303 11.3626L165.089 11.1356L165.864 10.9314L166.655 10.0065L167.463 9.59792L168.135 9.26882L168.955 9.15249L169.729 8.75814L170.522 8.39783L171.195 9.00213L171.976 10.1029L172.807 10.3838L173.607 11.0221L174.226 10.9597L175.038 10.5625L175.856 10.8434L177.283 10.3781L177.777 10.6023L178.232 10.7923L178.947 10.4774L179.693 10.2987L180.478 10.4122L181.312 10.5852L182.004 10.5569L182.888 10.31L183.501 10.2476L184.223 9.5809L185.117 10.5625L185.793 10.642L186.558 11.2973L187.443 12.2847L188.199 12.3471L188.865 11.9527L189.757 11.4534L191.408 14.6848L192.025 15.7544L192.775 16.2566L193.51 16.5602L194.285 16.7758L195.045 17.0311L195.915 16.9659L196.595 17.1758L197.394 18.7986L198.159 19.7065L198.931 19.959L199.528 19.4058L200.51 20.3477L201.177 20.413L201.932 20.5548L202.748 21.5705L203.491 21.6698L204.479 21.5194L204.985 21.2442L205.785 20.8243L206.562 20.6626L207.352 20.5775L208.134 20.7846L209.134 21.9677L209.725 21.9478L210.455 22.0471L211.258 22.0925L212.025 22.9011L212.676 22.9834L213.6 23.1479L214.201 23.3096L215.049 24.1125L215.823 24.0303L216.586 24.0501L217.377 24.3991L218.168 24.3962L218.802 23.8714L219.648 24.3367L220.476 24.4927L221 24.5636" stroke="#FB7273" stroke-width="1.5"/>
</g>
<defs>
<clipPath id="clip0_17_14">
<rect width="221" height="36" fill="white"/>
</clipPath>
</defs>
</svg>
